<?xml version="1.0" encoding="utf-8"?>
<!-- Generator: Adobe Illustrator 15.0.2, SVG Export Plug-In  -->
<!DOCTYPE svg PUBLIC "-//W3C//DTD SVG 1.1//EN" "http://www.w3.org/Graphics/SVG/1.1/DTD/svg11.dtd" [
	<!ENTITY ns_flows "http://ns.adobe.com/Flows/1.0/">
]>
<svg version="1.1"
	 xmlns="http://www.w3.org/2000/svg" xmlns:xlink="http://www.w3.org/1999/xlink" xmlns:a="http://ns.adobe.com/AdobeSVGViewerExtensions/3.0/"
	 x="0px" y="0px" width="512px" height="532px" viewBox="-10.356 -23.748 512 532"
	 overflow="visible" enable-background="new -10.356 -23.748 512 532" xml:space="preserve">
<defs>
</defs>
<path fill-rule="evenodd" clip-rule="evenodd" d="M195.288,8.108c23.742-7.073,15.998,47.257,15.998,68.992
	c0,27.915,4.545,54.861-13.998,52.993c-14.389-1.449-9.999-31.193-9.999-57.993c0-13.006,0-23.166,0-33.996
	C187.289,23.892,184.6,11.292,195.288,8.108z"/>
<path fill-rule="evenodd" clip-rule="evenodd" d="M90.301,82.099c7.678-1.209,17.901,10.902,25.997,18.998
	c6.85,6.85,19.355,16.663,18.998,24.997c-0.213,4.968-3.732,10.352-9.999,10.999c-9.931,1.026-17.199-10.2-25.997-18.998
	c-6.099-6.099-19.741-14.854-19.998-23.997C79.086,86.382,85.817,82.805,90.301,82.099z"/>
<path fill-rule="evenodd" clip-rule="evenodd" d="M300.274,83.099c5.305-1.345,15.378,0.658,15.998,9.999
	c0.714,10.754-15.673,20.672-19.997,24.997c-5.667,5.667-14.719,19.998-23.997,19.998c-5.553,0-11.815-4.683-11.999-11.999
	C260.055,117.15,293.579,84.797,300.274,83.099z"/>
<path fill-rule="evenodd" clip-rule="evenodd" d="M13.311,189.085c13.011-4.214,46.653-1,63.992-1
	c19.566,0,50.706-4.311,49.994,12.999c-0.698,16.96-42.759,10.999-65.992,10.999c-20.272,0-53.997,4.897-56.993-7.999
	C2.328,195.546,6.701,191.226,13.311,189.085z"/>
<path fill-rule="evenodd" clip-rule="evenodd" d="M191.288,194.085c82.97,24.016,167.046,46.93,249.969,70.991
	c-28.616,15.378-57.188,30.801-86.989,44.994c8.644,13.779,22.186,24.185,33.996,35.995c35.259,35.26,72.409,72.203,106.986,108.986
	c-16.414,14.249-29.747,31.579-46.994,44.995c-46.86-47.46-94.708-93.938-141.982-140.982
	c-14.891,29.104-30.783,57.205-44.994,86.989C236.102,363.911,214.792,277.9,191.288,194.085z"/>
<path fill-rule="evenodd" clip-rule="evenodd" d="M118.297,265.076c5.284-1.38,15.019-0.109,15.998,8.999
	c1.089,10.133-12.895,19.894-18.998,25.996c-5.407,5.407-16.212,19.656-23.997,19.998c-7.202,0.315-12.834-6.683-12.999-11.999
	c-0.263-8.488,11.939-17.938,16.998-22.997C102.921,277.453,110.825,267.027,118.297,265.076z"/>
<g>
	<path fill="#6793A1" d="M181.977,9.251c0,0,12.667-19.333,24,0v102.667c0,0-9.333,25.333-24,0V9.251z"/>
	<path d="M181.977,9.251c1.37-2.169,3.041-4.168,5.017-5.871c1.974-1.674,4.381-3.061,7.138-3.336
		c1.366-0.137,2.779,0.045,4.087,0.505c1.31,0.461,2.5,1.19,3.562,2.037c2.124,1.712,3.762,3.864,5.169,6.095l0.145,0.23l0.01,0.34
		c0.25,8.556,0.438,17.111,0.623,25.667c0.132,8.556,0.327,17.111,0.409,25.667l0.244,25.667l0.089,25.667l0.001,0.457l-0.155,0.405
		c-0.604,1.573-1.255,2.889-2.047,4.265c-0.784,1.352-1.673,2.667-2.741,3.908c-1.071,1.233-2.324,2.413-3.908,3.323
		c-1.562,0.913-3.555,1.481-5.517,1.328c-1.966-0.135-3.725-0.893-5.167-1.818c-1.454-0.935-2.654-2.048-3.731-3.208
		c-2.135-2.336-3.804-4.874-5.286-7.467l-0.327-0.572l0.007-0.621l0.268-25.667l0.458-25.667c0.21-8.555,0.389-17.111,0.675-25.667
		C181.243,26.362,181.583,17.807,181.977,9.251z M181.977,9.251c0.394,8.556,0.733,17.111,0.978,25.667
		c0.286,8.556,0.465,17.111,0.675,25.667l0.458,25.667l0.268,25.667l-0.32-1.192c1.41,2.372,2.938,4.665,4.71,6.56
		c1.744,1.888,3.838,3.351,5.682,3.433c0.917,0.057,1.819-0.181,2.736-0.714c0.913-0.528,1.799-1.336,2.601-2.279
		c1.595-1.871,2.934-4.359,3.873-6.669l-0.154,0.861l0.089-25.667l0.244-25.667c0.082-8.556,0.276-17.111,0.409-25.667
		c0.184-8.555,0.373-17.111,0.623-25.667l0.155,0.57c-1.19-2.174-2.593-4.245-4.379-5.871c-1.77-1.62-4.01-2.717-6.416-2.643
		c-2.406,0.047-4.755,1.158-6.795,2.612C185.362,5.39,183.53,7.214,181.977,9.251z"/>
</g>
<g>
	<path fill="#E6B3C9" d="M293.977,76.585c0,0,18.667-4.667,16,14l-36.667,38c0,0-20,10-16-15.333L293.977,76.585z"/>
	<path d="M293.977,76.585c2.121-0.625,4.355-0.983,6.626-0.904c2.248,0.092,4.636,0.591,6.625,2.032
		c2.01,1.41,3.339,3.71,3.896,6.044c0.571,2.352,0.549,4.738,0.317,7.037l-0.042,0.412l-0.358,0.406
		c-2.915,3.301-5.876,6.56-8.847,9.809l-4.447,4.881l-4.501,4.83c-3.01,3.21-5.977,6.463-9.032,9.63l-9.111,9.553l-0.301,0.315
		l-0.378,0.183c-1.397,0.677-2.631,1.104-4.021,1.483c-1.365,0.363-2.786,0.622-4.283,0.686c-1.492,0.06-3.083-0.076-4.66-0.627
		c-1.573-0.535-3.085-1.562-4.156-2.87c-1.085-1.305-1.751-2.795-2.167-4.238c-0.425-1.451-0.588-2.886-0.653-4.281
		c-0.114-2.793,0.193-5.458,0.641-8.058l0.128-0.739l0.494-0.481c3.096-3.015,6.231-5.991,9.384-8.95
		c3.135-2.976,6.29-5.932,9.48-8.852c3.165-2.946,6.38-5.842,9.596-8.738C287.427,82.257,290.681,79.401,293.977,76.585z
		 M293.977,76.585c-2.815,3.295-5.672,6.55-8.561,9.772c-2.896,3.215-5.792,6.43-8.738,9.595c-2.921,3.191-5.877,6.346-8.853,9.481
		c-2.959,3.152-5.936,6.287-8.95,9.384l0.622-1.221c-0.331,2.403-0.506,4.814-0.329,7.086c0.182,2.251,0.727,4.406,1.844,5.686
		c0.551,0.642,1.215,1.087,2.042,1.365c0.823,0.279,1.803,0.376,2.838,0.32c1.035-0.055,2.121-0.258,3.199-0.559
		c0.539-0.151,1.077-0.328,1.607-0.525c0.512-0.186,1.099-0.422,1.498-0.612l-0.679,0.498l9.222-9.447
		c3.057-3.167,6.2-6.248,9.302-9.37l4.666-4.67l4.719-4.619c3.141-3.084,6.291-6.16,9.486-9.191l-0.399,0.817
		c0.388-2.062,0.531-4.151,0.25-6.141c-0.274-1.984-1.108-3.845-2.611-5.164c-1.489-1.325-3.523-2.112-5.642-2.445
		C298.386,76.299,296.163,76.265,293.977,76.585z"/>
</g>
<g>
	<path fill="#E6B3C9" d="M75.977,90.585c0,0-5.333-17.704,17.333-14.519l36,36.519c0,0,6,19.894-18,17.947L75.977,90.585z"/>
	<path d="M75.977,90.585c-0.75-2.238-1.122-4.68-0.737-7.124c0.192-1.217,0.585-2.433,1.225-3.543
		c0.632-1.115,1.535-2.09,2.579-2.853c2.105-1.54,4.642-2.241,7.102-2.557c2.481-0.289,4.951-0.204,7.378,0.038l0.451,0.045
		l0.428,0.397c3.134,2.911,6.205,5.884,9.293,8.84c3.099,2.946,6.157,5.932,9.202,8.93c3.041,3.002,6.129,5.959,9.129,9.002
		l9.052,9.078l0.442,0.443l0.167,0.583c0.244,0.851,0.369,1.494,0.496,2.239c0.122,0.722,0.2,1.449,0.241,2.183
		c0.084,1.466,0.032,2.96-0.22,4.463c-0.252,1.5-0.71,3.014-1.444,4.434c-0.729,1.419-1.742,2.73-2.95,3.787
		c-2.438,2.132-5.436,3.207-8.28,3.644c-2.868,0.449-5.673,0.391-8.401,0.132l-0.927-0.088l-0.56-0.656l-4.331-5.069l-4.274-5.119
		c-2.856-3.407-5.701-6.825-8.5-10.282c-2.827-3.433-5.604-6.909-8.376-10.391C81.395,97.659,78.665,94.141,75.977,90.585z
		 M75.977,90.585c3.201,3.102,6.359,6.242,9.481,9.414c3.117,3.176,6.228,6.357,9.291,9.582c3.09,3.201,6.134,6.441,9.167,9.692
		l4.559,4.868l4.502,4.917l-1.486-0.743c2.475,0.152,4.94,0.099,7.228-0.346c2.277-0.453,4.38-1.256,5.872-2.623
		c1.504-1.34,2.408-3.225,2.739-5.389c0.168-1.077,0.2-2.211,0.121-3.352c-0.041-0.57-0.108-1.143-0.192-1.711
		c-0.081-0.544-0.213-1.184-0.325-1.591l0.609,1.026l-8.948-9.181c-3-3.043-5.912-6.173-8.871-9.257
		c-2.955-3.088-5.896-6.188-8.798-9.329c-2.911-3.13-5.841-6.243-8.707-9.418l0.879,0.442c-2.248-0.405-4.519-0.657-6.751-0.573
		c-2.222,0.064-4.447,0.462-6.301,1.554c-1.854,1.072-3.235,2.913-3.836,5.107C75.611,85.858,75.538,88.264,75.977,90.585z"/>
</g>
<g>
	<path fill="#6793A1" d="M8.644,181.251c0,0-18,12,0,23.333H113.31c0,0,18-11.333,0-21.333L8.644,181.251z"/>
	<path d="M8.644,181.251c-1.935,1.505-3.652,3.289-5.018,5.279c-1.348,1.983-2.344,4.252-2.355,6.559
		c-0.042,2.308,0.979,4.461,2.478,6.202c1.507,1.754,3.439,3.16,5.482,4.362l-0.586-0.169c8.722-0.268,17.444-0.456,26.167-0.649
		c8.722-0.135,17.444-0.343,26.167-0.418c8.723-0.077,17.445-0.218,26.167-0.241l26.167-0.089l-1.332,0.384
		c0.763-0.495,1.669-1.192,2.435-1.867c0.785-0.691,1.517-1.429,2.156-2.203c1.283-1.541,2.179-3.261,2.28-4.835
		c0.126-1.558-0.534-3.091-1.814-4.519c-1.27-1.419-3.018-2.645-4.89-3.696l1.12,0.302l-26.162-0.761l-26.158-0.943
		c-8.718-0.391-17.437-0.726-26.153-1.19C26.074,182.339,17.358,181.827,8.644,181.251z M8.644,181.251
		c8.73-0.242,17.459-0.42,26.186-0.505c8.728-0.131,17.453-0.133,26.18-0.19l26.175,0.057l26.172,0.239l0.588,0.005l0.532,0.296
		c2.165,1.207,4.31,2.625,6.165,4.65c0.917,1.014,1.754,2.204,2.335,3.592c0.583,1.382,0.868,2.966,0.762,4.494
		c-0.217,3.102-1.711,5.632-3.342,7.649c-0.832,1.02-1.734,1.937-2.683,2.786c-0.973,0.858-1.894,1.599-3.071,2.375l-0.586,0.387
		l-0.745-0.003l-26.167-0.089c-8.722-0.023-17.444-0.165-26.167-0.241c-8.722-0.075-17.444-0.283-26.167-0.418
		c-8.722-0.193-17.444-0.381-26.167-0.649l-0.352-0.011l-0.234-0.158c-2.093-1.415-4.098-3.056-5.674-5.135
		c-1.583-2.043-2.6-4.714-2.343-7.352c0.227-2.633,1.483-4.977,3.056-6.896C4.688,184.21,6.579,182.58,8.644,181.251z"/>
</g>
<g>
	<path fill="#E6B3C9" d="M109.977,259.252c0,0,20.667-5.333,16.667,14l-32.667,34.666c0,0-23.092,12-18.546-14L109.977,259.252z"/>
	<path d="M109.977,259.252c2.221-0.685,4.55-1.132,6.932-1.152c2.361-0.014,4.879,0.324,7.086,1.694
		c1.094,0.676,2.065,1.616,2.781,2.724c0.723,1.106,1.193,2.354,1.454,3.61c0.507,2.525,0.338,5.04-0.054,7.44l-0.06,0.368
		l-0.333,0.388c-2.588,3.016-5.251,5.96-7.881,8.937c-2.624,2.981-5.292,5.921-7.968,8.854c-2.682,2.928-5.316,5.898-8.036,8.79
		l-8.115,8.715l-0.294,0.315l-0.368,0.185c-1.427,0.715-2.711,1.245-4.134,1.717c-1.403,0.459-2.851,0.833-4.364,1.067
		c-1.512,0.23-3.099,0.328-4.758,0.122c-1.646-0.201-3.409-0.757-4.915-1.851c-1.516-1.08-2.623-2.641-3.278-4.203
		c-0.668-1.573-0.938-3.166-1.065-4.691c-0.224-3.062,0.145-5.943,0.67-8.739l0.132-0.705l0.473-0.462
		c2.916-2.852,5.896-5.641,8.858-8.445c2.953-2.815,5.944-5.592,8.95-8.354c2.984-2.784,6.028-5.509,9.058-8.247
		C103.792,264.604,106.864,261.907,109.977,259.252z M109.977,259.252c-2.645,3.122-5.331,6.203-8.043,9.258
		c-2.728,3.039-5.442,6.092-8.215,9.086c-2.752,3.015-5.519,6.017-8.324,8.979c-2.794,2.973-5.573,5.962-8.415,8.888l0.605-1.167
		c-0.395,2.57-0.6,5.163-0.331,7.543c0.272,2.381,1.077,4.436,2.514,5.397c1.411,1.027,3.724,1.193,6.075,0.787
		c1.18-0.196,2.379-0.518,3.562-0.921c1.161-0.396,2.414-0.884,3.428-1.385l-0.661,0.5l8.218-8.618
		c2.725-2.886,5.534-5.692,8.297-8.543c2.769-2.846,5.545-5.684,8.366-8.479c2.814-2.802,5.596-5.635,8.453-8.396l-0.393,0.755
		c0.536-2.13,0.839-4.313,0.597-6.381c-0.22-2.06-1.097-3.974-2.76-5.243c-1.648-1.273-3.854-1.935-6.093-2.196
		C114.604,258.875,112.272,258.896,109.977,259.252z"/>
</g>
<g>
	<polygon fill="#B3E0E0" points="187.31,187.252 435.31,258.578 347.977,303.252 489.977,446.585 445.31,491.918 301.977,349.918 
		256.78,436.585 	"/>
	<path d="M187.31,187.252l62.163,17.266l62.135,17.361l62.102,17.48l62.082,17.544l4.239,1.197l-3.927,2.029l-87.146,45.04
		l0.55-3.435l71.169,71.499l71.057,71.61l1.721,1.734l-1.716,1.742l-44.665,45.335l-1.744,1.771l-1.763-1.75l-71.609-71.057
		l-71.502-71.167l3.438-0.536l-45.557,86.479l-2.075,3.938l-1.171-4.279l-17.077-62.414l-17.016-62.432l-16.892-62.466
		L187.31,187.252z M187.31,187.252l17.939,62.174l17.844,62.201l17.719,62.234l17.659,62.253l-3.246-0.341l44.836-86.854
		l1.343-2.602l2.095,2.065l71.831,70.833l71.724,70.942l-3.507,0.021l44.669-45.33l0.005,3.476l-70.943-71.723l-70.83-71.834
		l-2.077-2.105l2.626-1.329l87.521-44.308l0.312,3.227l-61.918-18.119l-61.898-18.183l-61.865-18.302L187.31,187.252z"/>
</g>
</svg>
