<?xml version="1.0" encoding="utf-8"?>
<!-- Generator: Adobe Illustrator 15.0.2, SVG Export Plug-In  -->
<!DOCTYPE svg PUBLIC "-//W3C//DTD SVG 1.1//EN" "http://www.w3.org/Graphics/SVG/1.1/DTD/svg11.dtd" [
	<!ENTITY ns_flows "http://ns.adobe.com/Flows/1.0/">
]>
<svg version="1.1"
	 xmlns="http://www.w3.org/2000/svg" xmlns:xlink="http://www.w3.org/1999/xlink" xmlns:a="http://ns.adobe.com/AdobeSVGViewerExtensions/3.0/"
	 x="0px" y="0px" width="585px" height="450px" viewBox="-28.548 -24.45 585 450"
	 overflow="visible" enable-background="new -28.548 -24.45 585 450" xml:space="preserve">
<defs>
</defs>
<path fill-rule="evenodd" clip-rule="evenodd" d="M127.435,375.5c-22.482,10.657-55.402,25.388-89.989,20.997
	c-17.097-2.17-38.595-12.91-36.996-31.996c1.199-14.305,13.704-15.294,23.997-21.997c10.171-6.623,14.406-15.618,20.998-23.997
	C20.7,281.366-3.631,252.408,0.451,191.523C6.688,98.488,86.478,41.071,165.43,15.545C263.28-16.09,381.208,2.868,452.395,51.541
	c44.357,30.329,87.988,79.978,87.988,150.981c0,94.659-74.484,151.53-143.981,179.978
	C321.769,413.049,199.472,416.675,127.435,375.5z M105.438,358.502c6.848-3.122,16.076-9.965,20.998-9.999
	c4.955-0.033,16.531,7.678,21.997,9.999c23.937,10.168,50.176,17.526,77.99,20.997c124.908,15.59,232.641-33.053,272.966-113.985
	c37.368-75-1.816-145.983-46.994-182.977c-46.218-37.845-119.915-63.872-202.975-58.993
	c-81.841,4.808-153.686,40.268-192.976,90.989c-21.792,28.132-36.108,64.35-29.996,105.987c6,40.877,23.423,63.162,47.994,91.988
	c-7.078,19.561-18.627,38.011-33.996,48.994c-3.112,2.224-11.412,5.358-8.999,6.999C59.106,378.688,85.826,367.444,105.438,358.502z
	"/>
<path fill-rule="evenodd" clip-rule="evenodd" fill="#FFFFFF" d="M31.447,368.501c-2.413-1.641,5.887-4.775,8.999-6.999
	c15.369-10.983,26.917-29.434,33.996-48.994c-24.571-28.826-41.993-51.111-47.994-91.988c-6.112-41.637,8.204-77.854,29.996-105.987
	c39.29-50.721,111.135-86.181,192.976-90.989c83.06-4.879,156.757,21.147,202.975,58.993
	c45.178,36.994,84.362,107.978,46.994,182.977c-40.325,80.933-148.059,129.575-272.966,113.985
	c-27.814-3.471-54.053-10.829-77.99-20.997c-5.466-2.321-17.042-10.032-21.997-9.999c-4.922,0.034-14.149,6.877-20.998,9.999
	C85.826,367.444,59.106,378.688,31.447,368.501z M177.429,103.534c-1.231-7.583,4.178-13.795,2-18.998
	c-30.998,23.329-68.581,45.404-95.988,68.991c23.291-12.038,48.069-22.588,71.991-33.996c-0.087,9.245-0.541,18.124-2,25.997
	c40.289-28.037,81.956-60.026,116.985-89.989C240.243,71.694,207.441,90.552,177.429,103.534z M294.414,96.535
	c7.268-18.856-27.208-23.956-24.997-3c-14.059,2.461-14.461,26.912,2,26.997c3.409-0.59,5.254-2.746,8.999-3
	c5.419,4.247,10.1,9.231,16.998,11.999c1.864-8.134,4.39-15.607,7.999-21.997C302.8,102.814,296.444,101.837,294.414,96.535z
	 M372.404,215.521c4.904-8.005,3.128-14.104,6.999-19.998c5.104-7.772,15.277-10.011,20.997-15.998
	c10.53-11.02,16.969-28.501,14.998-46.994c-7.176-67.351-118.905-63.25-112.985,11.999c0.817,10.388,8.658,18.144,8.999,29.997
	c0.271,9.402-6.601,13.872-4,23.997c7.075,5.183,9.295-2.321,15.998-3c1.74,3.593,0.739,9.926,5.999,9.999
	c5.643,3.354,4.461-5.302,10.999-4c4.588,1.745,1.915,10.75,8.999,9.999c5.785,0.786,3.894-6.105,9.999-4.999
	c3.447,2.453-1.439,7.872,3.999,8.999C364.988,217.996,370.4,215.929,372.404,215.521z M459.394,151.528
	c3.667-8.871,0.421-17.011-6-20.998c-18.32-3.99-12.222,16.441-30.996,11.999c-2.812,6.852-3.592,15.738-5.999,22.997
	c7.129,0.129,14.144,0.145,19.998-1C442.911,184.245,474.071,169.094,459.394,151.528z M243.42,155.527
	c-0.083,3.198,4.004,7.085,4,10.999c-0.005,3.621-3.291,6.41-3,8.999c1.625,14.453,22.17,15.749,26.997,1
	c10.731-1.267,22.88-1.117,32.996-3c-2.083-8.25-4.401-16.264-7.999-22.997c-10.061-0.729-17.025,1.639-26.997,1
	C260.897,137.14,243.778,141.852,243.42,155.527z M92.439,179.524c13.821,30.507,25.928,62.729,38.995,93.988
	c9.406-1.592,16.026-5.971,24.997-7.999c-10.451-33.21-19.003-68.319-31.996-98.987C114.442,171.531,101.445,173.532,92.439,179.524
	z M226.422,188.523c2.646-22.03-29.646-28.152-45.994-15.998c0.939,5.061,4.454,7.545,6,11.999c6.46-4.115,20.626-6.658,22.997,3
	c-5.296,10.1-28.632,11.481-18.998,29.996c5.137,0.138,9.852-0.146,12.998-1.999c-2.208-0.125-0.424-4.242-1-6
	C211.296,201.871,224.846,201.646,226.422,188.523z M403.4,182.524c-5.897,5.101-13.685,8.313-18.998,13.998
	c5.409,6.224,21.653,11.281,25.997,21.997c2.805,6.919,0.205,14.812,7.999,16.998c8.849,2.481,19.225-4.303,17.998-14.998
	c19.969-2.063,8.791-34.131-9.999-21.997C417.75,194.171,412.421,186.502,403.4,182.524z M268.417,217.52
	c1.42,16.245,6.028,29.301,7.999,44.995c6.948-1.306,14.769,2.536,19.998,5.999c10.251-10.079,21.41-19.251,29.996-30.996
	C315.535,222.735,295.845,212.542,268.417,217.52z M183.428,235.518c1.741,11.497,21.41,9.838,18.998-3.999
	c-0.995-5.709-6.385-8.575-12.999-6C183.375,227.875,182.988,232.612,183.428,235.518z M381.403,254.516
	c-1.817,3.848-8.338,2.994-8.999,7.999c2.653,5.357,9.698,11.615,9.999,15.997c-6.666,0-13.332,0-19.998,0
	c-0.696,5.03,1.697,6.97,1,11.999c7.301,1.281,14.246-3.058,19.998,0c-3.59,5.41-6.687,11.312-9.999,16.998
	c4.189,1.477,6.71,4.621,11.998,4.999c2.13-6.869,4.729-13.269,8.999-17.998c1.762,7.237,7.236,10.762,8.999,17.998
	c4.682-0.983,6.316-5.016,10.999-5.999c-2.51-7.156-8.322-11.009-10.999-17.998c6.884,0.115,14.534-0.536,19.997,1
	c0-4.333,0-8.666,0-12.998c-8.07-0.738-13.04,1.624-20.997,1c3.035-6.631,7.923-11.408,9.999-18.998
	c-4.536-0.463-5.93-4.069-10.999-3.999c-3.424,5.574-4.954,13.043-8.999,17.997C388.607,266.642,386.69,258.893,381.403,254.516z
	 M219.423,264.514c-10.11,20.061-3.116,50.449,8.999,62.992c5.484-3.779,11.482-8.405,17.998-13.998
	c3.814-3.274,16.402-11.682,16.998-15.998c0.047-0.344-3.648-4.831-4-6.999c-0.813-5.017,0.731-7.745,1-12.998
	C246.374,273.56,233.885,268.05,219.423,264.514z M291.414,275.513c-5.407-8.251-20.781-6.791-24.996,2.999
	C261.178,311.527,305.734,297.359,291.414,275.513z M159.431,319.507c6.805-1.072,16.869-8.678,14.998-21.997
	c-1.48-10.537-10.92-15.857-21.998-13.998C127.226,287.742,136.482,323.124,159.431,319.507z M299.413,291.511
	c-3.899,5.766-6.104,13.228-14.998,13.998c4.102,14.896,5.738,32.257,11.999,44.994c22.584-7.079,37.729-21.597,43.994-44.994
	C327.354,300.231,312.243,297.012,299.413,291.511z"/>
<path fill-rule="evenodd" clip-rule="evenodd" d="M305.413,107.534c-3.609,6.39-6.135,13.863-7.999,21.997
	c-6.898-2.767-11.579-7.752-16.998-11.999c-3.745,0.254-5.59,2.41-8.999,3c-16.461-0.085-16.059-24.536-2-26.997
	c-2.211-20.956,32.265-15.856,24.997,3C296.444,101.837,302.8,102.814,305.413,107.534z"/>
<path fill-rule="evenodd" clip-rule="evenodd" d="M363.405,215.521c-5.438-1.127-0.552-6.546-3.999-8.999
	c-6.105-1.106-4.214,5.785-9.999,4.999c-7.084,0.751-4.411-8.254-8.999-9.999c-6.538-1.302-5.356,7.354-10.999,4
	c-5.26-0.073-4.259-6.406-5.999-9.999c-6.703,0.679-8.923,8.183-15.998,3c-2.601-10.125,4.271-14.595,4-23.997
	c-0.341-11.853-8.182-19.609-8.999-29.997c-5.92-75.249,105.81-79.349,112.985-11.999c1.971,18.493-4.468,35.975-14.998,46.994
	c-5.72,5.987-15.894,8.226-20.997,15.998c-3.871,5.895-2.095,11.993-6.999,19.998C370.4,215.929,364.988,217.996,363.405,215.521z
	 M343.408,129.531c-10.984-19.205-40.419,10.08-21.998,26.997C340.432,163.832,350.093,141.219,343.408,129.531z M378.403,173.525
	c20.214,3.31,25.025-36.779,3-32.996C366.04,143.168,363.408,171.07,378.403,173.525z M337.408,167.526
	c1.278,6.277,4.624,1.499,11.999,4c4.055,1.375,4.633,6.006,8.999,5c2.193-0.506,3.28-3.602,4.999-5
	C365.883,154.508,334.685,154.151,337.408,167.526z"/>
<path fill-rule="evenodd" clip-rule="evenodd" fill="#FFFFFF" d="M321.41,156.527c-18.421-16.917,11.014-46.201,21.998-26.997
	C350.093,141.219,340.432,163.832,321.41,156.527z"/>
<path fill-rule="evenodd" clip-rule="evenodd" d="M436.396,164.526c-5.854,1.145-12.869,1.129-19.998,1
	c2.407-7.259,3.187-16.145,5.999-22.997c18.774,4.442,12.676-15.988,30.996-11.999c6.421,3.987,9.667,12.126,6,20.998
	C474.071,169.094,442.911,184.245,436.396,164.526z"/>
<path fill-rule="evenodd" clip-rule="evenodd" fill="#FFFFFF" d="M381.403,140.529c22.025-3.783,17.214,36.306-3,32.996
	C363.408,171.07,366.04,143.168,381.403,140.529z"/>
<path fill-rule="evenodd" clip-rule="evenodd" d="M269.417,151.528c9.972,0.639,16.937-1.729,26.997-1
	c3.598,6.733,5.916,14.748,7.999,22.997c-10.116,1.882-22.265,1.732-32.996,3c-4.826,14.749-25.371,13.453-26.997-1
	c-0.292-2.589,2.995-5.378,3-8.999c0.005-3.914-4.083-7.801-4-10.999C243.778,141.852,260.897,137.14,269.417,151.528z"/>
<path fill-rule="evenodd" clip-rule="evenodd" fill="#FFFFFF" d="M363.405,171.525c-1.719,1.398-2.806,4.494-4.999,5
	c-4.366,1.006-4.944-3.625-8.999-5c-7.375-2.501-10.721,2.278-11.999-4C334.685,154.151,365.883,154.508,363.405,171.525z"/>
<path fill-rule="evenodd" clip-rule="evenodd" d="M124.436,166.526c12.993,30.668,21.544,65.777,31.996,98.987
	c-8.97,2.028-15.59,6.407-24.997,7.999c-13.067-31.26-25.174-63.481-38.995-93.988C101.445,173.532,114.442,171.531,124.436,166.526
	z"/>
<path fill-rule="evenodd" clip-rule="evenodd" d="M202.426,209.521c0.575,1.758-1.209,5.875,1,6
	c-3.146,1.853-7.861,2.137-12.998,1.999c-9.635-18.515,13.702-19.896,18.998-29.996c-2.371-9.658-16.537-7.114-22.997-3
	c-1.546-4.454-5.061-6.938-6-11.999c16.348-12.154,48.64-6.032,45.994,15.998C224.846,201.646,211.296,201.871,202.426,209.521z"/>
<path fill-rule="evenodd" clip-rule="evenodd" d="M426.397,198.522c18.79-12.134,29.968,19.934,9.999,21.997
	c1.227,10.695-9.149,17.479-17.998,14.998c-7.794-2.186-5.194-10.079-7.999-16.998c-4.344-10.716-20.588-15.773-25.997-21.997
	c5.313-5.685,13.101-8.897,18.998-13.998C412.421,186.502,417.75,194.171,426.397,198.522z"/>
<path fill-rule="evenodd" clip-rule="evenodd" d="M326.41,237.518c-8.586,11.745-19.745,20.917-29.996,30.996
	c-5.229-3.463-13.05-7.305-19.998-5.999c-1.971-15.694-6.579-28.75-7.999-44.995C295.845,212.542,315.535,222.735,326.41,237.518z"
	/>
<path fill-rule="evenodd" clip-rule="evenodd" d="M189.427,225.519c6.614-2.575,12.003,0.291,12.999,6
	c2.412,13.837-17.257,15.496-18.998,3.999C182.988,232.612,183.375,227.875,189.427,225.519z"/>
<path fill-rule="evenodd" clip-rule="evenodd" d="M392.401,272.513c4.045-4.954,5.575-12.423,8.999-17.997
	c5.069-0.07,6.463,3.536,10.999,3.999c-2.076,7.59-6.964,12.367-9.999,18.998c7.957,0.624,12.927-1.738,20.997-1
	c0,4.332,0,8.665,0,12.998c-5.463-1.536-13.113-0.885-19.997-1c2.677,6.989,8.489,10.842,10.999,17.998
	c-4.683,0.983-6.317,5.016-10.999,5.999c-1.763-7.236-7.237-10.761-8.999-17.998c-4.27,4.729-6.869,11.129-8.999,17.998
	c-5.288-0.378-7.809-3.522-11.998-4.999c3.312-5.687,6.409-11.588,9.999-16.998c-5.752-3.058-12.697,1.281-19.998,0
	c0.697-5.029-1.696-6.969-1-11.999c6.666,0,13.332,0,19.998,0c-0.301-4.382-7.346-10.64-9.999-15.997
	c0.661-5.005,7.182-4.151,8.999-7.999C386.69,258.893,388.607,266.642,392.401,272.513z"/>
<path fill-rule="evenodd" clip-rule="evenodd" d="M260.418,277.513c-0.269,5.253-1.813,7.981-1,12.998
	c0.352,2.168,4.047,6.655,4,6.999c-0.596,4.316-13.184,12.724-16.998,15.998c-6.516,5.593-12.514,10.219-17.998,13.998
	c-12.115-12.543-19.109-42.932-8.999-62.992C233.885,268.05,246.374,273.56,260.418,277.513z"/>
<path fill-rule="evenodd" clip-rule="evenodd" d="M266.418,278.512c4.215-9.79,19.589-11.25,24.996-2.999
	C305.734,297.359,261.178,311.527,266.418,278.512z"/>
<path fill-rule="evenodd" clip-rule="evenodd" d="M152.432,283.512c11.078-1.859,20.518,3.461,21.998,13.998
	c1.871,13.319-8.193,20.925-14.998,21.997C136.482,323.124,127.226,287.742,152.432,283.512z"/>
<path fill-rule="evenodd" clip-rule="evenodd" d="M340.408,305.509c-6.266,23.397-21.41,37.915-43.994,44.994
	c-6.261-12.737-7.897-30.099-11.999-44.994c8.895-0.771,11.099-8.232,14.998-13.998
	C312.243,297.012,327.354,300.231,340.408,305.509z"/>
<path fill-rule="evenodd" clip-rule="evenodd" d="M270.417,55.54c-35.03,29.963-76.696,61.952-116.985,89.989
	c1.459-7.873,1.913-16.751,2-25.997c-23.922,11.407-48.7,21.958-71.991,33.996c27.407-23.587,64.99-45.662,95.988-68.991
	c2.178,5.203-3.231,11.415-2,18.998C207.441,90.552,240.243,71.694,270.417,55.54z"/>
<g>
	<polygon fill="#B3E0E0" points="82.952,174.55 114.952,161.05 145.452,258.05 121.952,268.05 	"/>
	<path d="M82.952,174.55l7.846-3.739l7.873-3.677l15.787-7.255l1.245-0.572l0.463,1.362c2.729,8.024,5.511,16.032,8.17,24.079
		c2.689,8.037,5.379,16.073,7.984,24.137c2.626,8.057,5.275,16.106,7.821,24.188c2.557,8.078,5.17,16.14,7.682,24.232l0.67,2.16
		l-2.068,0.871l-23.536,9.916l-2.245,0.946l-0.901-2.228l-9.5-23.479l-9.332-23.55c-3.051-7.874-6.14-15.733-9.122-23.637
		C88.765,190.419,85.834,182.495,82.952,174.55z M82.952,174.55c3.618,7.638,7.187,15.297,10.663,22.994
		c3.519,7.68,6.93,15.404,10.378,23.112l10.167,23.201l10,23.271l-3.146-1.28l23.464-10.084l-1.397,3.031
		c-2.572-8.073-5.042-16.18-7.568-24.268c-2.538-8.085-4.972-16.202-7.429-24.312c-2.478-8.104-4.872-16.233-7.266-24.363
		c-2.425-8.12-4.726-16.279-7.08-24.421l1.708,0.79l-16.213,6.245l-8.127,3.073L82.952,174.55z"/>
</g>
<g>
	<polygon fill="#6793A1" points="361.952,256.05 367.171,252.657 371.952,249.55 377.299,258.97 382.452,268.05 385.604,260.76 
		390.452,249.55 395.156,251.566 400.952,254.05 391.952,272.05 400.785,272.05 411.452,272.05 411.452,276.55 411.452,283.05 
		400.785,283.05 392.452,283.05 397.865,291.053 403.952,300.05 399.722,302.944 394.452,306.55 387.808,296.306 382.452,288.05 
		373.952,306.55 361.952,302.05 372.452,284.05 353.952,285.05 353.952,274.05 370.452,272.55 	"/>
	<path d="M361.952,256.05l9.753-6.88l0.381-0.269l0.261,0.425c3.712,6.046,7.392,12.11,11.046,18.189l-1.934,0.104
		c2.485-6.245,5.047-12.457,7.578-18.683l0.567-1.396l1.455,0.591l10.586,4.298l1.707,0.693l-0.825,1.714l-8.727,18.136l-1.849-2.99
		l19.5-0.195l2.241-0.022l0.021,2.284l0.101,11l0.021,2.353l-2.384,0.01l-19,0.078l2.021-3.808l11.547,16.968l1.402,2.061
		l-2.061,1.4l-9.52,6.471l-2.094,1.423l-1.362-2.115l-11.943-18.536l4.185-0.304l-8.666,18.424l-0.886,1.882l-1.9-0.734
		l-11.955-4.62l-2.336-0.902l1.268-2.099l10.774-17.84l1.621,2.653l-18.521,0.63l-1.505,0.052l0.033-1.445l0.257-11l0.025-1.071
		l1.011-0.063l16.543-1.035l-0.537,0.978C367.188,267.272,364.56,261.666,361.952,256.05z M361.952,256.05
		c3.059,5.384,6.098,10.777,9.098,16.192l0.475,0.856l-1.012,0.121l-16.457,1.965l1.036-1.135l0.257,11l-1.472-1.394l18.479-1.37
		l3.251-0.24l-1.63,2.894l-10.226,18.16l-1.068-3.001l12.045,4.38l-2.786,1.147l8.334-18.576l1.785-3.979l2.399,3.676l12.057,18.463
		l-3.456-0.692l9.48-6.529l-0.658,3.461l-11.453-17.032l-2.572-3.826l4.594,0.019l19,0.078l-2.362,2.362l0.101-11l2.262,2.262
		l-19.5-0.195l-3.383-0.034l1.535-2.956l9.272-17.864l0.882,2.407l-10.414-4.702l2.022-0.805
		c-2.803,6.107-5.574,12.229-8.422,18.317l-0.929,1.984l-1.005-1.88c-3.346-6.255-6.665-12.523-9.954-18.811l0.642,0.156
		L361.952,256.05z"/>
</g>
<g>
	<path fill="#B3E0E0" d="M139.452,278.05c0,0,21-4,24,15s-16.5,21-18,20.5s-10.5,0.5-17-10.5S135.963,278.383,139.452,278.05z"/>
	<path d="M139.452,278.05c2.358-0.394,4.765-0.468,7.157-0.321c2.391,0.161,4.784,0.595,7.069,1.449
		c2.276,0.854,4.455,2.148,6.213,3.955c1.771,1.787,3.13,4.007,4.024,6.382c0.887,2.392,1.428,4.857,1.589,7.442
		c0.133,2.578-0.183,5.309-1.233,7.86c-1.038,2.553-2.812,4.823-4.941,6.531c-2.135,1.717-4.577,2.909-7.094,3.703
		c-1.266,0.389-2.551,0.677-3.884,0.861c-0.673,0.093-1.338,0.153-2.114,0.151c-0.193,0-0.409-0.008-0.66-0.028
		c-0.135-0.014-0.286-0.029-0.499-0.071l-0.221-0.053l-0.119-0.034c-0.066-0.021,0.072,0.022,0.004,0.001l-0.053-0.017
		c-0.014-0.004,0.032,0.01,0.045,0.013c0.103,0.021-0.055-0.015-0.146-0.026l-0.391-0.052c-2.435-0.247-5.227-0.89-7.588-2.136
		c-2.405-1.22-4.463-2.988-6.13-4.96c-0.837-0.988-1.562-2.051-2.211-3.137c-0.646-1.108-1.225-2.146-1.701-3.466
		c-0.906-2.5-0.929-5.203-0.378-7.643c0.535-2.46,1.623-4.698,2.911-6.746c1.3-2.047,2.826-3.922,4.521-5.619
		c0.844-0.852,1.745-1.645,2.693-2.375C137.267,279.02,138.262,278.26,139.452,278.05z M139.452,278.05
		c-1.185,0.227-2.167,0.997-3.109,1.704c-0.936,0.743-1.786,1.586-2.595,2.46c-1.601,1.765-2.98,3.73-4.05,5.837
		c-1.065,2.104-1.791,4.374-2.018,6.642c-0.206,2.271,0.188,4.522,1.197,6.42c0.459,0.883,1.181,1.868,1.876,2.735
		c0.704,0.884,1.479,1.691,2.279,2.445c1.604,1.509,3.44,2.663,5.386,3.438c0.974,0.39,1.981,0.67,3.011,0.877
		c1.044,0.209,2.059,0.289,3.257,0.385l0.5,0.046c0.204,0.026,0.344,0.031,0.738,0.119l0.208,0.055
		c-0.049-0.016,0.106,0.032,0.058,0.017l-0.064-0.021l-0.112-0.026c-0.066-0.015-0.068-0.015-0.054-0.015l0.235-0.005
		c0.419-0.018,0.946-0.079,1.456-0.153c1.034-0.155,2.084-0.41,3.101-0.729c4.09-1.255,7.725-3.646,9.611-7.265
		c0.955-1.797,1.521-3.878,1.657-6.073c0.153-2.193,0.004-4.511-0.483-6.697c-0.497-2.192-1.384-4.312-2.77-6.126
		c-1.393-1.799-3.241-3.292-5.358-4.314C149.148,277.77,144.154,277.346,139.452,278.05z"/>
</g>
<g>
	<path fill="#E6B3C9" d="M176.952,179.05l-4.102-6.739l-2.898-4.761c0,0,1.145-0.629,2.988-1.501
		c3.606-1.705,9.887-4.337,15.512-4.999c2.125-0.25,4.188-0.188,6.086,0.047c5.695,0.703,9.914,2.953,9.914,2.953
		s2.125,1,4.438,2.562s4.812,3.688,5.562,5.938c1.5,4.5,1.5,4.5,1.5,4.5s0.364,1.642,0.433,3.492
		c0.045,1.214-0.037,2.518-0.433,3.508c-0.496,1.24-1.484,3.342-2.721,5.268c-1.256,1.956-2.767,3.729-4.279,4.232l-4.152,2.185
		l-5.348,2.815c0,0-6.056,3-6.278,5s0,7,0,7h-6.223h-6.5c0,0-0.59-2.211-1.048-4.232c-0.386-1.701-0.68-3.268-0.452-3.268
		c0.5,0,3-7,5-7s3.5-5,7-6c2.161-0.617,3.56-0.663,4.666-2.608c0.686-1.205,1.26-3.14,1.834-6.392c1.5-8.5-13.056-4-4.278-5.5
		s-8.778,1.5-8.778,1.5l-2.575,0.692L176.952,179.05z"/>
	<path d="M176.952,179.05l-3.845-5.54l-3.788-5.575l-0.425-0.625l0.701-0.409c3.979-2.322,8.102-4.305,12.509-5.808
		c2.201-0.725,4.497-1.333,6.862-1.621c2.433-0.29,4.832-0.223,7.208,0.118c2.37,0.351,4.684,0.957,6.934,1.791
		c2.297,0.864,4.365,1.944,6.419,3.198c2.031,1.282,4.027,2.698,5.718,4.899c0.416,0.558,0.804,1.186,1.112,1.914
		c0.074,0.167,0.157,0.403,0.203,0.534l0.14,0.401l0.28,0.801l1.12,3.207l0.034,0.099l0.028,0.127
		c0.206,0.934,0.332,1.741,0.433,2.634c0.048,0.45,0.083,0.86,0.105,1.36c0.017,0.352,0.027,0.917,0.005,1.371
		c-0.037,0.936-0.168,2.011-0.599,3.104c-0.322,0.813-0.662,1.592-1.039,2.354c-0.751,1.515-1.604,3.021-2.636,4.459
		c-0.527,0.725-1.105,1.443-1.817,2.141c-0.731,0.684-1.557,1.407-2.892,1.881l0.364-0.155l-5.725,3.047l-2.862,1.524l-1.426,0.754
		c-0.442,0.237-0.883,0.488-1.313,0.743c-0.861,0.503-1.703,1.044-2.386,1.591c-0.34,0.267-0.632,0.552-0.776,0.729
		c-0.068,0.077-0.073,0.13-0.019-0.017l0.041-0.164l0.011-0.108l-0.011,0.101l-0.027,0.318c-0.111,1.914-0.052,4.135,0.016,6.214
		l0.083,2.566l-2.52-0.02c-4.241-0.033-8.481-0.012-12.722-0.089l-1.844-0.033l-0.426-1.711c-0.339-1.361-0.656-2.699-0.954-4.076
		c-0.146-0.682-0.292-1.383-0.417-2.112c-0.062-0.378-0.124-0.731-0.166-1.237c-0.009-0.128-0.02-0.267-0.015-0.493
		c0.006-0.122-0.001-0.212,0.054-0.512l0.042-0.184c0-0.005,0.034-0.12,0.066-0.205c0.033-0.089,0.072-0.178,0.117-0.264
		c0.09-0.174,0.193-0.33,0.32-0.479c0.29-0.344,0.826-0.669,1.334-0.747c0.668-0.081-0.025,0.011-0.011,0l0.016-0.003
		c-0.176,0.021-0.566,0.151-0.789,0.312c-0.18,0.117-0.277,0.22-0.315,0.256c-0.109,0.113-0.114,0.131-0.132,0.153
		c-0.02,0.029,0.004-0.002,0.027-0.037c0.241-0.394,0.578-1.067,0.89-1.664c0.321-0.619,0.657-1.252,1.026-1.893
		c0.373-0.642,0.77-1.288,1.289-1.963c0.265-0.338,0.553-0.684,0.964-1.052c0.42-0.34,0.936-0.826,2.063-1l0.349-0.024
		c0.092-0.004-0.055-0.003-0.093,0.007c-0.048,0.004-0.15,0.042-0.146,0.038c-0.068,0.023-0.082,0.048-0.053,0.03
		c0.054-0.021,0.221-0.154,0.395-0.336c0.359-0.37,0.772-0.896,1.212-1.438c0.891-1.084,1.905-2.351,3.492-3.295
		c0.397-0.231,0.829-0.431,1.284-0.588c0.232-0.075,0.48-0.147,0.62-0.179l0.533-0.13c0.687-0.162,1.312-0.298,1.725-0.458
		c0.417-0.164,0.63-0.309,0.905-0.63c0.066-0.078,0.131-0.171,0.197-0.268l0.087-0.139l0.118-0.208
		c0.1-0.177,0.237-0.471,0.342-0.731c0.438-1.098,0.793-2.375,1.091-3.663c0.14-0.62,0.323-1.386,0.362-1.806
		c0.05-0.514,0.02-0.982-0.117-1.354c-0.23-0.732-1-1.303-2.113-1.598c-0.543-0.146-1.139-0.228-1.739-0.25
		c-0.299-0.013-0.603-0.005-0.889,0.01c-0.138,0.007-0.289,0.023-0.364,0.033c-0.01,0-0.024,0.006,0.049-0.024
		c0.008-0.002,0.131-0.058,0.184-0.099c-0.06,0.028,0.193-0.068,0.419-0.485c0.142-0.361,0.192-0.666-0.082-1.168
		c-0.425-0.505-0.605-0.444-0.557-0.455c-0.045-0.018-0.092-0.033-0.14-0.044l-0.11-0.02c-0.094-0.004,0.008,0.006,0.058,0.004
		c1.183-0.027,2.598-0.25,3.942-0.415l0.509-0.065l0.255-0.033l0.127-0.016l0.016-0.002c0.674,3.89,0.189,1.078,0.331,1.947
		l-0.032,0.004l-0.064,0.008l-1.019,0.131l-2.038,0.262l-8.163,0.989l0.042-0.009L176.952,179.05z M176.952,179.05l7.326-2.439l0,0
		l0.042-0.009l8.028-1.778l2.009-0.43l1.005-0.215l0.062-0.014l0.032-0.007c0.155,0.867-0.321-1.946,0.334,1.946l-0.016,0.003
		l-0.125,0.027l-0.251,0.054l-0.502,0.108c-1.356,0.275-2.629,0.611-4.179,0.783c-0.121,0.006-0.191,0.022-0.455,0.002
		c-0.056-0.009-0.02,0.004-0.174-0.029c-0.058-0.014-0.115-0.032-0.17-0.053c0.037-0.012-0.152,0.044-0.583-0.47
		c-0.286-0.51-0.236-0.823-0.083-1.193c0.231-0.426,0.491-0.531,0.442-0.506c0.072-0.05,0.214-0.117,0.242-0.126
		c0.153-0.06,0.223-0.075,0.295-0.096c0.259-0.065,0.448-0.096,0.65-0.126c0.395-0.059,0.776-0.084,1.161-0.096
		c0.768-0.021,1.543,0.027,2.335,0.183c0.789,0.159,1.606,0.427,2.381,0.923c0.773,0.485,1.473,1.262,1.86,2.156
		c0.809,1.809,0.379,3.673,0.189,4.92c-0.24,1.394-0.49,2.798-1.007,4.268c-0.136,0.38-0.266,0.717-0.478,1.149l-0.124,0.245
		l-0.169,0.306c-0.117,0.193-0.238,0.387-0.382,0.58c-0.544,0.778-1.46,1.489-2.312,1.84c-1.662,0.695-3.022,0.809-3.588,1.278
		c-0.766,0.495-1.512,1.404-2.288,2.473c-0.399,0.538-0.798,1.117-1.358,1.763c-0.288,0.322-0.614,0.672-1.131,1.03
		c-0.253,0.176-0.576,0.355-0.967,0.489c-0.173,0.07-0.645,0.153-0.739,0.156l-0.128,0.012l-0.016,0.002
		c0.024-0.001-0.299,0.013-0.15,0.007h0.045l0.086-0.007c0.44-0.081,0.369-0.148,0.285-0.038c-0.097,0.092-0.25,0.272-0.4,0.479
		c-0.305,0.42-0.617,0.948-0.915,1.499c-0.299,0.554-0.588,1.139-0.881,1.743c-0.309,0.623-0.553,1.19-0.998,1.982
		c-0.066,0.11-0.133,0.224-0.254,0.392c-0.069,0.091-0.126,0.177-0.295,0.352c-0.067,0.067-0.198,0.196-0.412,0.339
		c-0.241,0.171-0.65,0.312-0.845,0.343l-0.016,0.003c0.003-0.01-0.7,0.087-0.041,0.011c0.49-0.069,1.007-0.385,1.277-0.72
		c0.117-0.13,0.211-0.266,0.292-0.421c0.04-0.076,0.074-0.155,0.103-0.234l0.055-0.176l0.031-0.12
		c0.036-0.217,0.029-0.221,0.033-0.257c0.002-0.056,0.001-0.023,0.008,0.019c0.019,0.177,0.075,0.498,0.135,0.794
		c0.124,0.616,0.274,1.252,0.434,1.904c0.318,1.291,0.67,2.608,1.029,3.894l-2.271-1.744c4.241-0.077,8.481-0.056,12.722-0.089
		l-2.436,2.547c-0.088-2.239-0.183-4.347-0.071-6.753l0.038-0.489l0.009-0.101c0.012-0.106,0.029-0.206,0.048-0.309
		c0.038-0.214,0.09-0.399,0.147-0.554c0.237-0.656,0.527-1.064,0.791-1.412c0.533-0.667,1.042-1.117,1.542-1.529
		c1-0.812,1.982-1.442,2.98-2.041c0.5-0.294,1.003-0.57,1.516-0.841l1.448-0.748l2.876-1.497l5.754-2.994l0.239-0.124l0.125-0.031
		c0.185-0.046,0.641-0.339,1.062-0.746c0.432-0.414,0.869-0.933,1.283-1.495c0.839-1.146,1.58-2.415,2.257-3.75
		c0.334-0.665,0.663-1.335,0.943-1.999c0.171-0.387,0.281-0.914,0.324-1.565c0.022-0.342,0.029-0.575,0.023-1.021
		c-0.004-0.296-0.024-0.682-0.052-1.025c-0.055-0.694-0.16-1.467-0.279-2.095l0.062,0.226l-1.028-3.237l-0.257-0.809l-0.128-0.405
		c-0.045-0.138-0.053-0.169-0.09-0.263c-0.123-0.319-0.315-0.673-0.566-1.029c-1.023-1.447-2.71-2.808-4.441-4.012
		c-1.753-1.191-3.673-2.304-5.583-3.12c-1.959-0.833-4.023-1.479-6.117-1.889c-2.085-0.411-4.245-0.625-6.324-0.508
		c-2.149,0.118-4.288,0.535-6.427,1.088c-4.266,1.111-8.506,2.716-12.534,4.617l0.276-1.034l3.212,5.925L176.952,179.05z"/>
</g>
<g>
	<path fill="#E6B3C9" d="M183.452,219.05c0,0,9.944,3.5,9.722,10s-9.222,9-9.722,8.5s-9-0.438-9.5-9.219
		S183.452,219.05,183.452,219.05z"/>
	<path d="M183.452,219.05c2.473,0.36,4.859,1.254,7.09,2.659c1.099,0.728,2.156,1.624,3.015,2.807
		c0.863,1.164,1.489,2.683,1.579,4.29c0.102,1.562-0.256,3.192-0.994,4.582c-0.723,1.4-1.763,2.537-2.877,3.463
		c-1.121,0.932-2.35,1.637-3.633,2.221c-0.647,0.288-1.312,0.526-2.036,0.73c-0.37,0.1-0.737,0.191-1.221,0.258
		c-0.121,0.017-0.255,0.031-0.417,0.04c-0.167,0.006-0.334,0.019-0.674-0.021c-0.071-0.008-0.17-0.022-0.312-0.056l-0.191-0.052
		c-0.105-0.033-0.209-0.072-0.311-0.118l-0.149-0.071c-0.066-0.034-0.168-0.095-0.248-0.149c-0.084-0.057-0.165-0.118-0.242-0.184
		c-0.246-0.217,0.062,0.051,0.046,0.039l-0.023-0.018c0.009,0.01,0.149,0.119,0.226,0.164c0.069,0.048,0.244,0.134,0.234,0.129
		l0.068,0.03l0.085,0.034l0.043,0.015l-0.732-0.166l-0.977-0.233c-0.668-0.174-1.353-0.387-2.03-0.663
		c-1.345-0.562-2.694-1.358-3.807-2.479c-1.11-1.114-1.967-2.508-2.422-3.954c-0.478-1.438-0.617-2.913-0.568-4.271
		c0.047-1.474,0.367-2.934,1.057-4.273c0.681-1.336,1.734-2.441,2.907-3.197C178.33,219.132,180.982,218.728,183.452,219.05z
		 M183.452,219.05c-2.34,0.761-4.541,1.86-5.955,3.451c-1.434,1.562-1.849,3.477-1.594,5.421c0.252,2.132,1.01,3.844,2.322,4.934
		c0.653,0.556,1.441,1.006,2.355,1.329c0.453,0.169,0.931,0.315,1.441,0.438l0.798,0.176c0.299,0.065,0.542,0.098,1.046,0.231
		l0.26,0.083l0.192,0.074l0.12,0.054c0.008,0.001,0.199,0.098,0.285,0.154c0.093,0.055,0.25,0.172,0.275,0.193l0.022,0.018
		c-0.009-0.006,0.307,0.268,0.068,0.056c-0.069-0.06-0.143-0.116-0.219-0.167c-0.071-0.049-0.166-0.104-0.224-0.133l-0.124-0.062
		c-0.083-0.038-0.17-0.07-0.257-0.097l-0.136-0.038c-0.105-0.023-0.167-0.032-0.2-0.037c-0.189-0.02-0.205-0.01-0.219-0.011
		c-0.011,0.001,0.007,0.001,0.037-0.003c0.119-0.012,0.345-0.057,0.562-0.112c0.448-0.114,0.93-0.286,1.401-0.471
		c0.951-0.367,1.857-0.864,2.658-1.421c1.616-1.138,2.672-2.551,2.852-4.291c0.233-1.646-0.721-3.572-2.25-5.244
		C187.457,221.876,185.508,220.426,183.452,219.05z"/>
</g>
<g>
	<path fill="#E6B3C9" d="M257.452,214.55l9.5,42.5c0,0,14.5-0.5,18.5,6.5l30-31C315.452,232.55,295.452,201.55,257.452,214.55z"/>
	<path d="M257.452,214.55c1.051,3.483,2.072,6.974,3.053,10.474l2.898,10.508l2.777,10.535l2.68,10.557l-1.976-1.527
		c1.868-0.08,3.591-0.028,5.39,0.116c1.781,0.155,3.565,0.438,5.351,0.877c1.782,0.449,3.574,1.06,5.306,2.022
		c1.716,0.952,3.418,2.337,4.561,4.273l-3.727-0.469c2.443-2.637,4.96-5.205,7.437-7.811l7.458-7.79l15.084-15.42l-0.29,2.943
		c-0.613-0.953-1.444-2.05-2.25-3.035c-0.823-1.004-1.691-1.979-2.595-2.922c-1.81-1.885-3.762-3.64-5.836-5.234
		c-4.108-3.244-8.743-5.824-13.701-7.574c-4.951-1.782-10.244-2.638-15.591-2.684C268.13,212.373,262.734,213.16,257.452,214.55z
		 M257.452,214.55c5.023-2.132,10.397-3.632,15.943-4.113c5.539-0.536,11.225-0.016,16.668,1.486
		c5.442,1.524,10.591,4.08,15.226,7.335c2.301,1.652,4.475,3.48,6.506,5.462c1.015,0.991,1.994,2.021,2.934,3.094
		c0.951,1.097,1.816,2.138,2.723,3.446l1.062,1.533l-1.352,1.411l-14.916,15.58l-7.542,7.71c-2.523,2.561-5.007,5.16-7.563,7.688
		l-2.264,2.24l-1.463-2.708c-0.557-1.03-1.524-1.948-2.749-2.681c-1.222-0.737-2.656-1.299-4.158-1.727
		c-1.505-0.43-3.086-0.718-4.686-0.936c-1.584-0.218-3.267-0.352-4.801-0.368l-1.683-0.019l-0.293-1.509l-2.07-10.693l-1.973-10.715
		l-1.852-10.742C258.547,221.742,257.985,218.149,257.452,214.55z"/>
</g>
<g>
	<path fill="#E6B3C9" d="M219.202,322.3l33.5-29.25c0,0-7.5-9.25-2.75-20l-40-14C209.952,259.05,194.452,296.8,219.202,322.3z"/>
	<path d="M219.202,322.3c2.616-2.639,5.253-5.253,7.916-7.838l8.021-7.718l8.104-7.623l8.169-7.547l-0.233,2.71
		c-0.698-0.863-1.182-1.605-1.692-2.446c-0.493-0.823-0.938-1.673-1.336-2.549c-0.785-1.755-1.366-3.619-1.701-5.55
		c-0.335-1.929-0.408-3.929-0.179-5.904c0.223-1.977,0.752-3.919,1.524-5.738l1.378,3.179c-3.355-1.105-6.684-2.286-10.026-3.425
		l-10.019-3.447l-19.967-7.095l3.004-1.35c-0.97,2.376-1.815,5.065-2.509,7.681c-0.697,2.641-1.261,5.322-1.681,8.024
		c-0.885,5.397-1.213,10.895-0.809,16.35c0.354,5.459,1.523,10.867,3.509,16.01C212.695,313.15,215.568,317.99,219.202,322.3z
		 M219.202,322.3c-4.202-3.748-7.771-8.328-10.331-13.469c-2.615-5.121-4.214-10.753-5.025-16.468
		c-0.771-5.729-0.727-11.549-0.075-17.281c0.351-2.864,0.854-5.709,1.5-8.524c0.665-2.836,1.402-5.553,2.466-8.417l0.786-2.114
		l2.218,0.765l20.033,6.905l9.981,3.553c3.324,1.194,6.662,2.347,9.974,3.575l2.443,0.906l-1.065,2.272
		c-1.317,2.81-1.78,5.943-1.335,9.055c0.215,1.555,0.647,3.098,1.243,4.588c0.292,0.747,0.628,1.481,1.004,2.193
		c0.363,0.69,0.821,1.445,1.204,1.977l1.138,1.579l-1.372,1.132l-8.58,7.077l-8.646,7.002l-8.729,6.907
		C225.116,317.803,222.169,320.063,219.202,322.3z"/>
</g>
<g>
	<path fill="#E6B3C9" d="M285.202,344.3l-10.5-43.5c0,0,11.5-1,14.5-13.75l40.25,13.25C329.452,300.3,322.202,338.55,285.202,344.3z
		"/>
	<path d="M285.202,344.3l-1.687-5.348l-1.623-5.362l-3.151-10.748l-3.027-10.777l-2.928-10.802l-0.562-2.07l2.307-0.356
		c0.245-0.038,0.688-0.127,1.042-0.221c0.375-0.096,0.751-0.209,1.122-0.337c0.743-0.254,1.468-0.567,2.163-0.925
		c1.398-0.703,2.675-1.612,3.768-2.694c2.201-2.16,3.602-5.033,4.271-8.151l0.54-2.516l2.506,0.808l20.166,6.503l20.088,6.735
		l2.041,0.685l-0.446,2.021c-0.34,1.538-0.731,2.855-1.173,4.243c-0.439,1.367-0.924,2.714-1.447,4.043
		c-1.047,2.659-2.253,5.25-3.615,7.759c-2.776,4.983-6.168,9.65-10.233,13.661c-4.078,3.985-8.786,7.34-13.94,9.669
		C296.253,342.496,290.724,343.845,285.202,344.3z M285.202,344.3c5.407-1.235,10.58-3.214,15.282-5.921
		c4.687-2.735,8.899-6.182,12.442-10.211c3.568-4.006,6.538-8.521,8.886-13.337c1.2-2.394,2.254-4.863,3.153-7.382
		c0.449-1.26,0.86-2.531,1.227-3.811c0.359-1.259,0.702-2.611,0.921-3.782l1.595,2.704l-20.162-6.514l-20.084-6.747l3.046-1.707
		c-0.479,1.893-1.173,3.767-2.15,5.514c-0.971,1.749-2.221,3.367-3.699,4.732c-1.476,1.369-3.167,2.486-4.968,3.32
		c-0.904,0.411-1.835,0.751-2.788,1.021c-0.477,0.135-0.958,0.252-1.449,0.351c-0.513,0.099-0.941,0.176-1.58,0.232l1.745-2.427
		l2.322,10.948l2.223,10.973l2.099,11.002l1.002,5.513L285.202,344.3z"/>
</g>
<g>
	<path fill="#E6B3C9" d="M269.452,264.8c0,0,11.5,0.5,13.5,13.25s-13.5,15.25-13.5,15.25s-13-2.25-13.25-13
		S262.702,266.3,269.452,264.8z"/>
	<path d="M269.452,264.8c3.648-0.218,7.501,1.104,10.437,3.751c1.448,1.338,2.618,2.996,3.479,4.785
		c0.436,0.894,0.777,1.828,1.052,2.773c0.14,0.474,0.261,0.95,0.367,1.429l0.081,0.385l0.063,0.333
		c0.042,0.218,0.078,0.521,0.115,0.778c0.257,2.035,0.102,4.241-0.677,6.293c-0.746,2.062-2.085,3.866-3.631,5.283
		c-1.555,1.426-3.323,2.485-5.134,3.33c-0.912,0.413-1.841,0.765-2.784,1.068c-0.97,0.304-1.845,0.554-2.971,0.759l-0.418,0.075
		l-0.407-0.08c-1.124-0.223-1.984-0.482-2.942-0.803c-0.93-0.321-1.847-0.686-2.738-1.124c-1.776-0.881-3.501-1.986-4.99-3.448
		c-1.482-1.453-2.737-3.268-3.43-5.296c-0.351-1.009-0.582-2.052-0.682-3.091c-0.046-0.521-0.067-1.038-0.061-1.552l0.022-0.712
		l0.044-0.74c0.154-1.927,0.536-3.894,1.339-5.731c0.792-1.835,1.993-3.522,3.493-4.797
		C262.149,265.926,265.896,265.04,269.452,264.8z M269.452,264.8c-3.331,1.293-6.609,2.866-8.649,5.399
		c-2.104,2.463-2.736,5.674-2.638,8.912l0.023,0.594c0.011,0.187,0.025,0.473,0.042,0.623c0.033,0.376,0.087,0.746,0.156,1.108
		c0.143,0.724,0.348,1.417,0.638,2.07c0.583,1.301,1.454,2.454,2.567,3.431c1.114,0.972,2.428,1.801,3.866,2.443
		c0.717,0.325,1.456,0.622,2.212,0.87c0.73,0.242,1.586,0.472,2.21,0.586l-0.824-0.005c0.648-0.113,1.52-0.331,2.271-0.564
		c0.775-0.238,1.537-0.522,2.273-0.84c1.48-0.622,2.85-1.422,4.008-2.379c1.168-0.951,2.073-2.094,2.68-3.383
		c0.601-1.291,0.87-2.765,0.842-4.318c-0.131-3.198-0.991-6.538-3.035-9.123C276.102,267.583,272.969,265.687,269.452,264.8z"/>
</g>
<g>
	<path fill="#B3E0E0" d="M294.118,168.551l-33.166,2c0,0-5.001,12.666-13.501,11.333s-13.167-7.833-12.333-14.667s2-5.657,2.5-6.329
		s-3.5-3.338-3.667-6.671s-1.667-11.667,7.333-15.5s12.167,1.333,11.667,1.167s5.167,2.667,6,6.833l26.833-1.167
		C285.784,145.551,293.118,157.385,294.118,168.551z"/>
	<path d="M294.118,168.551c-2.753,0.343-5.504,0.719-8.26,1.023c-2.755,0.322-5.509,0.641-8.266,0.923l-8.271,0.861l-8.273,0.796
		l1.398-1.014c-0.782,2.06-1.729,3.88-2.918,5.684c-1.187,1.779-2.593,3.489-4.438,4.894c-1.812,1.396-4.257,2.434-6.822,2.352
		c-0.316-0.007-0.632-0.028-0.943-0.07l-0.456-0.066l-0.371-0.06c-0.504-0.086-1.144-0.221-1.659-0.359
		c-1.086-0.283-2.159-0.661-3.195-1.145c-2.072-0.959-3.991-2.371-5.516-4.169c-1.526-1.792-2.638-3.979-3.16-6.309
		c-0.264-1.163-0.374-2.36-0.344-3.548c0.04-1.241,0.199-2.248,0.357-3.307c0.185-1.074,0.358-2.125,0.84-3.41
		c0.13-0.328,0.283-0.677,0.536-1.082c0.244-0.391,0.649-0.904,1.247-1.289c0.282-0.185,0.582-0.313,0.649-0.345
		c0.096-0.042-0.196,0.063-0.478,0.367l-0.091,0.106c-0.112,0.178,0.191-0.322-0.26,0.413l0.01-0.021l0.021-0.042
		c-0.091,0.17-0.172,0.395-0.21,0.61c-0.02,0.109-0.031,0.22-0.034,0.327l0.002,0.208c0.003,0.077,0.012,0.154,0.026,0.229
		c0.039,0.184,0.052,0.222,0.077,0.298c0.102,0.263,0.118,0.241,0.099,0.227c-0.096-0.14-0.461-0.561-0.786-0.934
		c-0.339-0.391-0.7-0.819-1.052-1.283c-0.696-0.932-1.404-2.014-1.822-3.422c-0.106-0.347-0.182-0.72-0.237-1.101
		c-0.025-0.181-0.041-0.409-0.054-0.561l-0.022-0.342l-0.115-1.507c-0.071-1.056-0.09-2.169-0.019-3.305
		c0.137-2.261,0.7-4.686,1.976-6.821c1.258-2.144,3.173-3.84,5.21-4.966c0.51-0.286,1.029-0.541,1.552-0.771l0.753-0.315
		l0.801-0.302c1.052-0.375,2.151-0.684,3.307-0.879c2.289-0.363,4.919-0.293,7.338,1c0.599,0.328,1.171,0.721,1.713,1.241
		c0.275,0.272,0.528,0.535,0.829,0.996c0.076,0.123,0.159,0.252,0.271,0.513c0.049,0.161,0.14,0.244,0.198,0.855
		c0.001,0.143,0.028,0.319-0.094,0.785c-0.015,0.23-0.492,1.084-1.117,1.364c-0.53,0.306-1.272,0.288-1.39,0.245
		c-0.801-0.15,0.128,0.001,0.094,0.008c0.617-0.151-1.414,0.331,1.378-0.341c0.888-6.902-0.044-2.189,0.231-3.65
		c-0.061-0.051-0.154-0.112-0.122-0.09l0.032,0.022l0.147,0.097c0.898,0.581,1.811,1.246,2.657,1.99
		c0.85,0.749,1.662,1.587,2.371,2.588c0.702,0.996,1.314,2.181,1.577,3.555l-2.163-1.696l13.432-0.238
		c4.478-0.078,8.958-0.08,13.437-0.123l0.815-0.008l0.352,0.625c1.051,1.87,1.903,3.745,2.738,5.663
		c0.817,1.917,1.571,3.858,2.211,5.838C293.113,160.318,294.029,164.424,294.118,168.551z M294.118,168.551
		c-0.32-2.034-0.847-4.018-1.481-5.956c-0.621-1.942-1.365-3.84-2.194-5.696c-0.825-1.858-1.713-3.686-2.682-5.468
		c-0.958-1.777-2.019-3.542-3.087-5.191l1.167,0.617c-4.466,0.345-8.93,0.733-13.396,1.043l-13.401,0.929l-1.767,0.123l-0.396-1.819
		c-0.261-1.195-1.33-2.525-2.67-3.616c-0.675-0.556-1.399-1.053-2.196-1.534l-0.169-0.104l-0.125-0.08
		c0.006,0.005-0.112-0.075-0.198-0.145c0.265-1.472-0.685,3.236,0.199-3.683c2.782-0.688,0.784-0.188,1.411-0.34
		c-0.019,0.01,0.925,0.164,0.139,0.017c-0.102-0.037-0.829-0.06-1.344,0.242c-0.613,0.271-1.077,1.113-1.091,1.327
		c-0.117,0.45-0.091,0.611-0.091,0.738c0.053,0.549,0.122,0.572,0.147,0.676c0.062,0.146,0.083,0.167,0.091,0.185
		c0.026,0.042-0.061-0.067-0.148-0.139c-0.187-0.166-0.449-0.341-0.733-0.482c-2.35-1.203-6.252-0.21-9.214,1.418
		c-1.448,0.829-2.603,1.912-3.366,3.236c-0.77,1.323-1.156,2.904-1.245,4.628c-0.048,0.863-0.017,1.754,0.04,2.694l0.099,1.487
		l0.038,0.593c0.018,0.114,0.034,0.234,0.075,0.366c0.138,0.522,0.502,1.174,0.999,1.84c0.249,0.336,0.529,0.678,0.841,1.046
		c0.32,0.39,0.635,0.708,1.113,1.388c0.122,0.191,0.27,0.385,0.458,0.883c0.045,0.136,0.083,0.231,0.127,0.478
		c0.019,0.107,0.032,0.215,0.04,0.322c0.003,0.038,0.009,0.108,0.004,0.255c-0.005,0.123-0.018,0.249-0.04,0.373
		c-0.042,0.247-0.126,0.502-0.221,0.703l-0.021,0.042l-0.011,0.021c-0.456,0.75-0.166,0.261-0.287,0.451
		c-0.047,0.06-0.098,0.119-0.152,0.177c-0.451,0.491-0.972,0.712-1.103,0.771c-0.161,0.07-0.09,0.044-0.018-0.004
		c0.174-0.114,0.248-0.236,0.225-0.206c-0.015,0.018-0.072,0.126-0.127,0.263c-0.236,0.585-0.441,1.514-0.594,2.409
		c-0.151,0.916-0.299,1.893-0.326,2.653c-0.035,0.813,0.05,1.622,0.198,2.416c0.594,3.194,2.849,5.996,5.929,7.519
		c1.499,0.765,3.338,1.293,4.889,1.458c1.461,0.125,2.965-0.359,4.369-1.313c2.813-1.919,5.043-5.312,6.639-8.602l0.481-0.991
		l0.917-0.022l8.31-0.204l8.313-0.139c2.771-0.051,5.543-0.065,8.316-0.077C288.567,168.499,291.344,168.542,294.118,168.551z"/>
</g>
<g>
	<path fill="#B3E0E0" d="M286.951,124.217l-17.166-12.667c0,0-3.999,3.5-8.833,3.167s-10.667-2.333-11.5-7.667s-1-10.833,3.5-14.167
		s5.666-3,6.333-3.5s-0.165-7.5,1.667-9.5s4.036-4.667,7.018-5.333s11.649,0.167,14.315,5.167s2.166,13.667,2.166,13.667l10.5,8.667
		C294.951,102.051,286.284,117.884,286.951,124.217z"/>
	<path d="M286.951,124.217c-3.035-1.875-6.041-3.791-9.03-5.727l-4.464-2.934c-1.483-0.984-2.981-1.948-4.45-2.952l1.641-0.068
		c-0.887,0.79-1.732,1.372-2.689,1.935c-0.945,0.547-1.955,1.012-3.029,1.355c-1.074,0.34-2.215,0.566-3.392,0.596
		c-0.289,0.01-0.601,0.007-0.875-0.008l-0.801-0.051c-0.54-0.045-1.077-0.108-1.615-0.19c-2.143-0.34-4.317-0.961-6.344-2.214
		c-1.005-0.631-1.968-1.435-2.751-2.447c-0.792-1-1.373-2.21-1.672-3.455l-0.1-0.467l-0.078-0.423l-0.126-0.767
		c-0.08-0.519-0.154-1.039-0.217-1.567c-0.125-1.057-0.206-2.14-0.206-3.254c0-2.209,0.346-4.641,1.54-6.882
		c0.592-1.109,1.381-2.138,2.308-2.979c0.448-0.414,1.001-0.824,1.365-1.091c0.442-0.323,0.869-0.624,1.318-0.926
		c0.897-0.599,1.834-1.18,2.918-1.688c0.524-0.25,1.174-0.492,1.646-0.645l0.187-0.067l-0.064,0.03l-0.075,0.045l-0.047,0.031
		l-0.022,0.017c0.057-0.052-0.61,0.546-0.319,0.283l0.031-0.035l0.016-0.018l-0.104,0.112c-0.145,0.164-0.27,0.386-0.334,0.564
		c-0.025,0.038-0.051,0.164-0.048,0.137c-0.006,0.026,0.005-0.038,0.012-0.104c0.036-0.311,0.055-0.809,0.069-1.284l0.046-1.512
		c0.04-1.04,0.095-2.114,0.268-3.27c0.089-0.581,0.206-1.183,0.413-1.843c0.212-0.651,0.499-1.406,1.211-2.223
		c0.682-0.74,1.358-1.497,2.141-2.276c1.56-1.517,3.452-3.171,6.291-3.802c1.276-0.248,2.445-0.25,3.565-0.203
		c1.126,0.057,2.229,0.193,3.324,0.409c2.188,0.429,4.367,1.18,6.396,2.534c1.009,0.676,1.967,1.541,2.746,2.605
		c0.798,1.129,1.232,2.216,1.603,3.292c1.371,4.336,1.454,8.459,1.207,12.704l-0.691-1.584l5.118,4.493l5.068,4.554l0.912,0.82
		l-0.571,0.955c-0.994,1.662-1.946,3.399-2.896,5.115c-0.942,1.726-1.846,3.474-2.69,5.248c-0.848,1.772-1.667,3.562-2.342,5.405
		C287.614,120.34,286.946,122.223,286.951,124.217z M286.951,124.217c-0.308-1.979,0.03-4.021,0.449-5.972
		c0.448-1.958,1.021-3.886,1.675-5.779c1.341-3.783,2.856-7.47,4.632-11.096l0.341,1.775l-5.432-4.112l-5.382-4.173l-0.702-0.544
		l0.011-1.041c0.018-1.837-0.102-3.814-0.349-5.673c-0.24-1.869-0.598-3.716-1.209-5.34c-0.301-0.805-0.682-1.569-1.068-2.058
		c-0.428-0.533-0.984-1.02-1.654-1.43c-1.334-0.833-3.028-1.361-4.758-1.69c-0.869-0.161-1.758-0.259-2.631-0.292
		c-0.875-0.03-1.725,0.001-2.411,0.151c-1.116,0.245-2.489,1.218-3.725,2.508c-0.628,0.639-1.28,1.381-1.944,2.12
		c0.056-0.059-0.081,0.118-0.17,0.417c-0.098,0.293-0.184,0.674-0.25,1.081c-0.135,0.821-0.202,1.748-0.248,2.707l-0.063,1.487
		c-0.026,0.524-0.04,1.027-0.122,1.71c-0.025,0.181-0.049,0.365-0.113,0.635c-0.018,0.097-0.094,0.338-0.153,0.497
		c-0.092,0.235-0.246,0.512-0.417,0.732l-0.141,0.17l-0.032,0.035c0.281-0.252-0.396,0.36-0.353,0.315l-0.061,0.043l-0.124,0.084
		l-0.237,0.139c-0.15,0.082-0.292,0.145-0.403,0.19c-0.232,0.094-0.388,0.143-0.519,0.187c-0.479,0.153-0.77,0.258-1.153,0.431
		c-0.733,0.331-1.512,0.79-2.283,1.293c-0.385,0.251-0.779,0.523-1.147,0.785c-0.445,0.32-0.699,0.505-0.992,0.764
		c-0.559,0.499-1.037,1.052-1.41,1.696c-0.753,1.279-1.111,2.913-1.172,4.687c-0.032,0.887,0,1.804,0.076,2.738
		c0.038,0.466,0.088,0.939,0.143,1.412l0.091,0.718l0.047,0.316l0.045,0.269c0.28,1.401,1.095,2.628,2.438,3.577
		c1.328,0.949,3.037,1.594,4.817,1.98c0.447,0.096,0.9,0.177,1.354,0.243l0.692,0.086c0.225,0.022,0.413,0.046,0.624,0.056
		c0.825,0.052,1.68-0.039,2.532-0.23c1.684-0.379,3.45-1.237,4.833-2.256l0.896-0.66l0.745,0.592
		c1.392,1.107,2.755,2.254,4.133,3.381l4.119,3.4C281.548,119.563,284.264,121.871,286.951,124.217z"/>
</g>
<g>
	<path fill="#B3E0E0" d="M348.284,78.718c0,0,51.5-1.833,57.167,56c0,0-0.501,35.029-25.667,47.265c0,0-12.832,7.402-13.332,15.569
		s-3.5,11.001-4.5,11.834s-5.668,4.667-10.334,0c0,0,0.667-7.5-1.333-7.5s-0.833-2-5.5,0.333c0,0-0.41,4.235-5.333,3.667
		c-4.333-0.5-5.333-2-5.333-3.833s0.834-6.499-4-6.833s-3.667,1.5-4.667,2.833s-2.999,2.833-6.333,2.5s-4.334-7.003-4.334-7.003
		s0-3.498-2.833-3.164s-5.166,3.5-5.833,4.667s-8,0.167-8.667-2.833c-0.667-3,2.333-13,2.333-14.167s1.667-4.667,1.667-4.667
		l-0.167-8c0,0-7.499-13.5-8.166-22.833s0-15.833,0-15.833s4.665-23.5,16.999-33.333S330.45,79.717,348.284,78.718z"/>
	<path d="M348.284,78.718c3.693-0.044,7.381,0.389,11.009,1.072c3.628,0.698,7.198,1.704,10.648,3.032
		c6.888,2.664,13.343,6.584,18.653,11.787c5.32,5.186,9.447,11.549,12.352,18.403c2.905,6.869,4.595,14.214,5.453,21.613
		l0.006,0.049l-0.001,0.058c-0.102,4.827-0.749,9.524-1.763,14.2c-1.032,4.659-2.49,9.25-4.507,13.63
		c-2.013,4.375-4.603,8.545-7.871,12.196c-3.256,3.653-7.214,6.744-11.628,8.976l0.121-0.064c-3.008,1.897-5.962,4.267-8.336,6.854
		c-1.182,1.303-2.22,2.703-2.908,4.149c-0.343,0.721-0.597,1.449-0.729,2.158c-0.03,0.178-0.058,0.354-0.075,0.528l-0.044,0.615
		c-0.024,0.451-0.068,1.008-0.121,1.515c-0.213,2.033-0.604,4.096-1.361,6.133c-0.755,2.007-1.918,4.106-3.818,5.678
		c-1.698,1.431-3.926,2.672-6.619,2.764c-1.328,0.042-2.694-0.263-3.861-0.821c-1.176-0.555-2.156-1.32-2.982-2.139l-0.787-0.78
		l0.086-1.15c0.077-1.022,0.109-2.162,0.073-3.191c-0.02-0.518-0.057-1.025-0.123-1.472c-0.05-0.425-0.196-0.877-0.2-0.847
		c0.01,0.016,0.039,0.079,0.159,0.203c0.114,0.122,0.373,0.322,0.717,0.415c0.084,0.021,0.168,0.042,0.254,0.05l0.119,0.012
		l0.061,0.002l0.015-0.001h0.008c0.021,0-0.149-0.002-0.079-0.001l-0.014-0.001l-0.109-0.003l-0.194-0.011
		c-0.395-0.03-0.661-0.088-1.021-0.198c-0.697-0.208-1.322-0.703-1.362-0.723c-0.036-0.022,0.064,0.046,0.194,0.089
		c0.13,0.046,0.254,0.059,0.308,0.059c0.16-0.02-0.332,0.068-0.729,0.246c-0.428,0.169-0.905,0.396-1.383,0.636l1.358-1.977
		c-0.039,0.344-0.067,0.455-0.11,0.659c-0.041,0.182-0.087,0.356-0.141,0.529c-0.105,0.344-0.235,0.68-0.393,1.011
		c-0.312,0.659-0.747,1.3-1.304,1.854c-1.113,1.139-2.689,1.746-4.042,1.873c-0.685,0.076-1.34,0.062-1.952-0.006
		c-0.367-0.038-0.477-0.055-0.812-0.104c-0.293-0.043-0.549-0.087-0.831-0.144c-1.103-0.236-2.283-0.522-3.577-1.367
		c-0.636-0.427-1.301-1.062-1.752-1.875c-0.459-0.811-0.643-1.703-0.678-2.443c-0.029-0.772,0.026-1.209,0.036-1.655
		c0.019-0.438,0.02-0.823-0.001-1.18c-0.039-0.709-0.207-1.221-0.365-1.424c-0.143-0.196-0.332-0.346-0.887-0.469
		c-0.134-0.026-0.279-0.048-0.438-0.061c-0.105-0.012-0.48-0.035-0.609-0.036c-0.367-0.015-0.767-0.008-1.045,0.024
		c-0.288,0.019-0.445,0.125-0.261,0.015c0.085-0.054,0.216-0.206,0.247-0.272c0.036-0.076-0.001-0.01-0.057,0.176
		c-0.061,0.19-0.147,0.509-0.307,0.896c-0.085,0.199-0.182,0.406-0.311,0.622c-0.062,0.106-0.132,0.214-0.207,0.319l-0.166,0.222
		c-0.434,0.553-0.888,1.003-1.409,1.421c-1.032,0.827-2.263,1.403-3.513,1.69c-0.624,0.146-1.251,0.225-1.866,0.248
		c-0.308,0.014-0.612,0.008-0.913-0.006l-0.447-0.03l-0.222-0.021l-0.239-0.032l-0.088-0.016l-0.201-0.037
		c-0.14-0.031-0.278-0.066-0.415-0.106c-0.304-0.084-0.461-0.166-0.679-0.258c-0.401-0.188-0.758-0.417-1.069-0.663
		c-0.621-0.496-1.071-1.041-1.438-1.575c-0.725-1.074-1.151-2.127-1.501-3.167c-0.344-1.062-0.581-2.023-0.766-3.182l-0.102-0.636
		l0.076,0.297c0.003,0.012-0.01-0.195-0.026-0.295c-0.017-0.124-0.042-0.242-0.069-0.344c-0.055-0.205-0.132-0.332-0.139-0.345
		c-0.016-0.011,0.09,0.06,0.109,0.045c0.003,0.002-0.02-0.006-0.073-0.009c-0.012,0-0.104,0.008-0.062,0
		c-0.097,0.014-0.256,0.034-0.246,0.038c-0.353,0.059-0.945,0.319-1.458,0.692c-0.531,0.378-1.059,0.876-1.539,1.429
		c-0.24,0.277-0.47,0.568-0.678,0.862c-0.104,0.146-0.203,0.294-0.284,0.426l-0.029,0.048l-0.186,0.278l-0.025,0.032l-0.052,0.063
		c-0.06,0.072-0.209,0.232-0.326,0.331c-0.118,0.104-0.285,0.226-0.383,0.283l-0.212,0.113c-0.153,0.08-0.283,0.133-0.389,0.167
		c-0.477,0.169-0.809,0.211-1.133,0.25c-0.321,0.034-0.611,0.045-0.892,0.043c-0.56-0.003-1.079-0.049-1.59-0.119
		c-1.021-0.141-1.999-0.387-2.981-0.757c-0.977-0.379-1.973-0.849-2.945-1.75c-0.477-0.456-0.961-1.058-1.249-1.863
		c-0.063-0.203-0.129-0.414-0.167-0.617c-0.011-0.051-0.062-0.369-0.069-0.487c-0.03-0.312-0.038-0.594-0.037-0.864
		c0.016-1.067,0.147-1.989,0.293-2.907c0.304-1.821,0.712-3.555,1.135-5.276l0.649-2.556c0.208-0.82,0.452-1.739,0.578-2.398
		l0.011-0.063c0.001-0.006,0.001,0.001,0,0.032l0.001,0.017l0.002-0.084l0.003-0.041l0.027-0.303l0.044-0.268
		c0.062-0.312,0.136-0.569,0.213-0.815c0.154-0.488,0.322-0.929,0.497-1.362c0.354-0.866,0.722-1.671,1.131-2.507l-0.161,0.75
		l-0.025-8.003l0.191,0.707c-1.589-3.061-2.976-6.131-4.235-9.304c-1.244-3.168-2.347-6.409-3.07-9.79
		c-0.358-1.673-0.604-3.459-0.654-5.16c-0.081-1.697-0.124-3.384-0.132-5.077c-0.006-3.39,0.098-6.75,0.452-10.157l0.005-0.049
		l0.006-0.026c1.57-6.56,3.794-12.89,6.772-18.899c1.51-2.986,3.191-5.898,5.213-8.576c1.008-1.339,2.103-2.616,3.294-3.797
		c1.185-1.193,2.518-2.226,3.841-3.228c5.284-4.026,10.917-7.768,17.226-9.983C334.969,79.841,341.658,79.075,348.284,78.718z
		 M348.284,78.718c-6.624,0.405-13.304,1.221-19.562,3.498c-3.123,1.131-6.11,2.619-8.931,4.368
		c-2.814,1.763-5.479,3.752-8.077,5.82c-5.372,3.943-9.052,9.672-11.797,15.651c-2.723,6.012-4.708,12.397-6.006,18.821l0.011-0.075
		c-0.223,3.277-0.212,6.634-0.087,9.949c0.066,1.66,0.169,3.324,0.306,4.975c0.109,1.651,0.384,3.191,0.779,4.785
		c0.793,3.158,1.965,6.253,3.28,9.281c1.322,3.018,2.811,6.017,4.414,8.855l0.176,0.311l0.016,0.396l0.309,7.997l0.014,0.357
		l-0.175,0.392c-0.333,0.747-0.664,1.546-0.943,2.31c-0.14,0.382-0.269,0.765-0.364,1.114c-0.048,0.173-0.086,0.339-0.104,0.457
		c-0.001,0.017-0.008,0.064-0.006,0.056c0.004-0.011,0.001-0.062,0,0.023l-0.001,0.041v0.01c0-0.025-0.002,0.071,0.001-0.054
		l-0.001,0.058l-0.01,0.195l-0.029,0.262c-0.165,1.065-0.358,1.841-0.545,2.724l-0.552,2.549c-0.354,1.688-0.685,3.375-0.896,5.013
		c-0.103,0.811-0.178,1.631-0.159,2.314c0.006,0.167,0.018,0.322,0.035,0.444c0.016,0.099-0.003-0.002,0.03,0.16
		c0.005,0.012,0.016,0.007,0.011,0.014c0.013,0.02,0.081,0.126,0.242,0.264c0.321,0.282,0.93,0.6,1.59,0.814
		c0.662,0.223,1.396,0.38,2.108,0.465c0.355,0.042,0.709,0.062,1.024,0.057c0.157-0.001,0.304-0.013,0.417-0.028
		c0.108-0.012,0.212-0.043,0.146-0.028c-0.001,0.002-0.03,0.012-0.089,0.038c-0.022,0.012-0.045,0.025-0.065,0.04
		c-0.052,0.029-0.177,0.113-0.251,0.186c-0.075,0.064-0.178,0.195-0.198,0.229l0.05-0.065l0.025-0.032
		c-0.339,0.506-0.09,0.134-0.164,0.243l0.007-0.012l0.014-0.023l0.054-0.094c0.143-0.242,0.282-0.461,0.427-0.675
		c0.289-0.426,0.593-0.828,0.917-1.219c0.649-0.779,1.378-1.515,2.256-2.173c0.896-0.652,1.884-1.234,3.25-1.525
		c0.223-0.046,0.28-0.05,0.4-0.071c0.259-0.036,0.385-0.042,0.59-0.054c0.384-0.012,0.799,0.017,1.229,0.111
		c0.872,0.188,1.758,0.736,2.306,1.396c0.559,0.657,0.857,1.341,1.054,1.97c0.098,0.317,0.168,0.627,0.22,0.935
		c0.05,0.332,0.085,0.561,0.096,1.009l-0.025-0.339c0.28,1.522,0.866,3.336,1.599,4.346c0.178,0.248,0.358,0.433,0.488,0.527
		c0.065,0.048,0.115,0.073,0.147,0.085c0.004-0.005,0.06,0.025-0.01-0.005c-0.022-0.007-0.047-0.01-0.071-0.008
		c0.008,0.005,0.104,0.017,0.151,0.024l0.089,0.014l0.044,0.007l0.011,0.001c0.035,0.005-0.265-0.034-0.134-0.018l0.017,0.001
		l0.135,0.01l0.268,0.013c0.176,0.004,0.349,0.002,0.518-0.008c0.339-0.016,0.662-0.061,0.967-0.135
		c0.609-0.146,1.145-0.41,1.603-0.779c0.223-0.179,0.445-0.411,0.6-0.611l0.054-0.071l0.014-0.018
		c-0.007,0.009,0.025-0.032-0.014,0.019l-0.001,0.001l-0.005,0.005c-0.006,0.009-0.01,0.017-0.013,0.019
		c-0.006,0.013-0.003,0.002,0.007-0.018c0.022-0.056,0.066-0.197,0.146-0.463c0.086-0.27,0.195-0.661,0.472-1.151
		c0.262-0.484,0.721-1,1.201-1.321c0.98-0.648,1.786-0.757,2.438-0.853c0.671-0.079,1.229-0.083,1.814-0.067
		c0.349,0.011,0.449,0.016,0.819,0.043c0.317,0.024,0.645,0.067,0.98,0.13c0.67,0.13,1.385,0.355,2.084,0.748
		c0.698,0.388,1.352,0.971,1.833,1.633c0.973,1.356,1.218,2.793,1.309,3.974c0.04,0.597,0.037,1.166,0.019,1.682
		c-0.016,0.508-0.046,1.025-0.03,1.207c0.016,0.21,0.048,0.273,0.063,0.295c0.017,0.022,0.05,0.075,0.204,0.181
		c0.307,0.213,1.005,0.455,1.765,0.593c0.186,0.037,0.4,0.072,0.58,0.097c0.137,0.021,0.501,0.067,0.608,0.074
		c0.337,0.038,0.642,0.031,0.906,0.007c0.541-0.059,0.837-0.207,1.075-0.435c0.121-0.118,0.238-0.273,0.335-0.476
		c0.049-0.1,0.094-0.209,0.129-0.32l0.045-0.163c0.01-0.027,0.026-0.151,0.015-0.045l0.152-1.384l1.206-0.593
		c0.563-0.277,1.138-0.55,1.792-0.805c0.323-0.128,0.678-0.251,1.083-0.362c0.41-0.104,0.878-0.218,1.559-0.212
		c0.344,0.008,0.758,0.064,1.163,0.203c0.406,0.135,0.763,0.347,0.968,0.487c0.435,0.309,0.279,0.178,0.145,0.139
		c-0.084-0.024-0.063-0.02-0.168-0.03l-0.031,0.002l0.054,0.002l0.109,0.004h0.013c0.073,0.001-0.096-0.001-0.071-0.001h0.014
		l0.028,0.001l0.114,0.005l0.229,0.019c0.157,0.022,0.313,0.049,0.467,0.094c0.624,0.172,1.135,0.535,1.453,0.864
		c0.324,0.332,0.517,0.639,0.665,0.91c0.535,1.066,0.61,1.776,0.732,2.496c0.097,0.705,0.137,1.359,0.156,2.003
		c0.032,1.296-0.009,2.484-0.114,3.779l-0.701-1.931c1.059,1.067,2.159,1.609,3.295,1.58c1.153-0.01,2.502-0.634,3.715-1.614
		c1.084-0.838,1.908-2.151,2.521-3.678c0.607-1.524,0.983-3.228,1.201-4.977c0.055-0.44,0.097-0.832,0.135-1.331l0.077-0.809
		c0.037-0.299,0.088-0.593,0.146-0.884c0.243-1.16,0.656-2.234,1.152-3.223c1.002-1.977,2.317-3.627,3.72-5.116
		c1.407-1.489,2.938-2.795,4.522-4c1.603-1.208,3.198-2.29,4.992-3.323l0.073-0.042l0.049-0.022
		c4.045-1.871,7.724-4.528,10.839-7.782c3.123-3.25,5.693-7.06,7.751-11.146c2.061-4.09,3.623-8.456,4.781-12.931
		c1.14-4.467,1.937-9.103,2.193-13.668l0.005,0.106c-0.587-7.283-1.986-14.535-4.602-21.379c-1.306-3.417-2.908-6.731-4.86-9.835
		c-1.957-3.1-4.237-6.001-6.813-8.62c-5.145-5.249-11.47-9.339-18.344-12.006c-3.432-1.349-6.988-2.379-10.606-3.102
		C355.659,79.16,351.978,78.701,348.284,78.718z"/>
</g>
<g>
	<path d="M373.451,134.218c0,0,14.333,0.834,13,16.167c0,0-2.333,19.333-15.5,18.667c0,0-12.333,0.077-12.833-15.628
		C358.118,153.423,357.618,136.718,373.451,134.218z"/>
	<path d="M373.451,134.218c2.064,0.185,4.089,0.768,5.974,1.654c1.881,0.894,3.607,2.182,4.938,3.856
		c1.332,1.669,2.259,3.695,2.71,5.819c0.235,1.061,0.385,2.142,0.451,3.227c0.036,0.543,0.046,1.086,0.046,1.63
		c-0.03,0.651-0.079,1.116-0.138,1.674c-0.497,4.258-1.551,8.545-3.963,12.498c-1.222,1.947-2.87,3.796-5.03,5.105
		c-1.077,0.645-2.261,1.155-3.492,1.47c-1.234,0.302-2.499,0.437-3.731,0.407c-2.484-0.044-4.901-0.741-7.041-1.958
		c-2.146-1.218-3.962-3.042-5.171-5.127c-1.225-2.086-1.849-4.374-2.154-6.593c-0.155-1.114-0.19-2.227-0.186-3.322l0.02-0.82
		l0.018-0.441l0.037-0.43c0.057-0.56,0.138-1.102,0.233-1.641c0.388-2.151,1.043-4.229,1.95-6.181
		c0.887-1.959,2.092-3.765,3.544-5.309c1.452-1.544,3.171-2.807,5.048-3.712C369.391,135.116,371.403,134.531,373.451,134.218z
		 M373.451,134.218c-2.042,0.336-4.052,0.956-5.855,1.964c-1.806,0.997-3.385,2.374-4.604,3.999
		c-2.443,3.275-3.462,7.36-3.52,11.296c-0.006,0.492,0.001,0.984,0.032,1.46l0.027,0.348l0.043,0.335l0.104,0.732
		c0.148,0.972,0.361,1.921,0.614,2.839c0.502,1.84,1.303,3.524,2.339,4.921c1.044,1.396,2.347,2.489,3.851,3.243
		c1.505,0.74,3.196,1.207,4.86,1.206c1.679,0.06,3.252-0.291,4.695-1.056c1.447-0.759,2.761-1.955,3.906-3.396
		c1.147-1.442,2.146-3.112,2.965-4.897c0.835-1.78,1.541-3.667,2.08-5.6c1.027-3.693,0.983-8.048-1.18-11.489
		C381.639,136.667,377.537,134.634,373.451,134.218z"/>
</g>
<g>
	<path d="M343.785,152.386l8.5,8.667c0,0,2.203,10.5-3.148,10.167c0,0-3.685,0.516-5.352,0.008s-3.001-1.175-4.167-4.341
		c0,0-2.667,2.5-5.5,1.333s-5.833-1.167-6.833-5.333s1.834-6.667,4.667-8.167S343.785,152.386,343.785,152.386z"/>
	<path d="M343.785,152.386c0.835,0.598,1.66,1.205,2.466,1.832c0.801,0.632,1.625,1.241,2.406,1.891
		c1.582,1.282,3.16,2.569,4.699,3.893l0.256,0.22l0.142,0.522c0.296,1.093,0.516,2.108,0.667,3.201
		c0.143,1.083,0.238,2.193,0.17,3.375c-0.092,1.174-0.24,2.458-1.082,3.852c-0.424,0.682-1.111,1.375-1.97,1.789
		c-0.857,0.423-1.766,0.535-2.543,0.511l0.453-0.017c-1.084,0.179-2.077,0.288-3.18,0.347c-0.549,0.022-1.107,0.039-1.732-0.012
		c-0.313-0.026-0.642-0.064-1.019-0.143c-0.448-0.1-0.668-0.176-0.966-0.269c-0.576-0.188-1.249-0.464-1.887-0.88
		c-0.639-0.414-1.206-0.948-1.64-1.498c-0.873-1.11-1.347-2.208-1.749-3.252l4.047,0.958c-0.3,0.273-0.455,0.388-0.682,0.561
		c-0.209,0.157-0.424,0.302-0.646,0.438c-0.442,0.272-0.91,0.515-1.416,0.719c-1.001,0.407-2.186,0.669-3.438,0.558
		c-0.621-0.052-1.245-0.202-1.82-0.434l-0.522-0.214l-0.477-0.181c-0.67-0.247-1.451-0.484-2.325-0.852
		c-0.862-0.373-1.852-0.907-2.687-1.731c-0.842-0.814-1.434-1.842-1.771-2.817c-0.176-0.507-0.284-0.933-0.395-1.48l-0.049-0.289
		l-0.056-0.403c-0.036-0.283-0.05-0.516-0.06-0.78c-0.037-1.029,0.144-2.11,0.526-3.093c0.771-2.006,2.306-3.383,3.797-4.31
		c0.38-0.234,0.766-0.445,1.153-0.638c0.398-0.192,0.742-0.363,1.238-0.548c0.896-0.308,1.707-0.453,2.523-0.585
		C337.462,152.21,340.607,152.145,343.785,152.386z M343.785,152.386c-3.039,0.887-6.116,1.615-8.959,2.662
		c-0.697,0.252-1.397,0.534-1.936,0.853c-0.219,0.132-0.552,0.357-0.829,0.558c-0.284,0.207-0.555,0.421-0.81,0.644
		c-1.034,0.879-1.748,1.901-1.981,2.887c-0.12,0.498-0.137,1-0.059,1.529c0.017,0.125,0.042,0.282,0.068,0.385l0.115,0.46
		c0.07,0.213,0.18,0.54,0.288,0.762c0.494,0.96,0.912,1.303,2.098,1.741c0.577,0.215,1.301,0.415,2.11,0.672l0.629,0.211
		l0.571,0.208c0.154,0.05,0.3,0.076,0.457,0.089c0.31,0.024,0.7-0.045,1.141-0.232c0.219-0.091,0.446-0.212,0.667-0.353l0.325-0.22
		l0.23-0.176l2.907-2.223l1.14,3.181c0.278,0.776,0.615,1.478,0.95,1.903c0.352,0.425,0.533,0.595,1.228,0.864l0.434,0.148
		c0.099,0.027,0.253,0.055,0.425,0.076c0.345,0.042,0.762,0.071,1.186,0.078c0.846,0.016,1.796-0.038,2.644-0.11l0.358-0.03
		l0.095,0.013c0.231,0.032,0.362,0.026,0.429,0.018c0.067-0.009,0.151-0.031,0.29-0.19c0.286-0.309,0.58-1.074,0.718-1.901
		c0.15-0.836,0.226-1.763,0.228-2.703c0.005-0.93-0.031-1.931-0.125-2.829l0.397,0.743c-1.294-1.565-2.55-3.167-3.801-4.774
		c-0.635-0.794-1.229-1.629-1.844-2.442C344.958,154.069,344.366,153.232,343.785,152.386z"/>
</g>
<g>
	<path d="M322.784,118.052c0,0,13.5,1.667,12.667,17.333c0,0-0.999,19-17.833,18c0,0-11.168,0.494-11.834-16.086
		C305.784,137.299,306.117,120.218,322.784,118.052z"/>
	<path d="M322.784,118.052c4.264,0.737,8.347,3.09,10.811,6.848c1.24,1.858,2.065,4.011,2.486,6.233
		c0.222,1.11,0.36,2.238,0.426,3.371l0.035,0.85c0.009,0.315-0.001,0.597-0.011,0.886c-0.021,0.574-0.062,1.142-0.12,1.71
		c-0.24,2.265-0.706,4.535-1.549,6.734c-0.854,2.182-2.023,4.354-3.742,6.177c-1.689,1.835-3.907,3.293-6.313,4.101
		c-2.402,0.841-4.933,1.056-7.336,0.914l0.257,0.002c-0.312,0.008-0.429-0.001-0.625-0.01l-0.511-0.041
		c-0.333-0.035-0.657-0.083-0.977-0.143c-0.638-0.122-1.262-0.285-1.867-0.5c-1.209-0.435-2.353-1.048-3.379-1.807
		c-2.055-1.537-3.546-3.647-4.461-5.834c-0.913-2.202-1.34-4.47-1.521-6.683c-0.079-1.111-0.091-2.212-0.059-3.303
		c-0.007-0.442,0.055-0.666,0.091-0.962l0.146-0.829c0.107-0.546,0.233-1.083,0.375-1.615c1.146-4.225,3.279-8.21,6.46-11.09
		C314.55,120.136,318.647,118.562,322.784,118.052z M322.784,118.052c-4.139,0.511-8.196,2.35-10.911,5.475
		c-2.733,3.098-4.14,7.106-4.539,11.073c-0.051,0.497-0.086,0.994-0.104,1.486l-0.012,0.733c0.007,0.225-0.002,0.524,0.04,0.604
		c0.128,0.999,0.302,1.984,0.522,2.944c0.412,1.923,1.059,3.753,1.958,5.328c0.883,1.582,2.033,2.89,3.404,3.776
		c0.678,0.453,1.416,0.804,2.189,1.041c0.386,0.118,0.776,0.222,1.168,0.287c0.194,0.034,0.39,0.059,0.577,0.075l0.271,0.018
		c0.066,0.004,0.211,0.002,0.159,0.003l0.194-0.002l0.064,0.004c3.864,0.235,7.498-0.671,10.284-3.156
		c2.817-2.445,4.756-6.237,5.836-10.241c1.042-3.924,1.028-8.445-0.899-12.241C331.056,121.443,327.056,118.78,322.784,118.052z"/>
</g>
<g>
	<path fill="#B3E0E0" d="M412.452,137.552h10.667c0,0,4.334-1.5,7-9.333c0,0,8.333-7.167,17.333,1.167c0,0,6,5.667,1,14.833
		c0,0-1.333,3.333,0.167,4.667c0,0,11.666,13.365-7.334,20.183c0,0-8.666,1.484-13.166-9.349l-21.167,0.5L412.452,137.552z"/>
	<path d="M412.452,137.552l5.333-0.418l5.334-0.352l-0.252,0.042c0.671-0.344,1.454-0.982,2.062-1.639
		c0.63-0.673,1.184-1.425,1.667-2.225c0.958-1.605,1.672-3.367,2.208-5.188l0.099-0.334l0.311-0.271
		c0.698-0.609,1.312-1.023,2.018-1.453c0.691-0.413,1.415-0.776,2.17-1.081c1.506-0.606,3.146-0.998,4.827-1.026
		c3.387-0.107,6.709,1.232,9.281,3.177c0.325,0.242,0.643,0.493,0.952,0.75l0.229,0.195c0.069,0.061,0.15,0.122,0.29,0.26
		c0.191,0.188,0.34,0.349,0.491,0.521c0.595,0.673,1.075,1.389,1.498,2.146c0.84,1.511,1.39,3.195,1.605,4.921
		c0.447,3.485-0.525,6.925-2.034,9.781l0.12-0.256c-0.062,0.185-0.17,0.558-0.229,0.832c-0.066,0.294-0.105,0.578-0.117,0.816
		c-0.013,0.235,0.012,0.426,0.032,0.482c0.022,0.074,0-0.056-0.121-0.155l0.1,0.081l0.115,0.136c0.5,0.588,0.821,1.04,1.187,1.577
		c0.351,0.521,0.675,1.055,0.977,1.607c0.603,1.104,1.113,2.281,1.479,3.542c0.749,2.488,0.822,5.49-0.296,8.13
		c-1.115,2.638-3.119,4.597-5.177,6.005c-2.083,1.422-4.294,2.399-6.51,3.187l-0.225,0.08l-0.185,0.028
		c-0.384,0.058-0.55,0.063-0.807,0.081c-0.233,0.012-0.46,0.017-0.686,0.016c-0.449-0.003-0.89-0.029-1.327-0.076
		c-0.873-0.097-1.733-0.267-2.565-0.532c-1.664-0.525-3.219-1.37-4.558-2.435c-2.7-2.147-4.454-5.05-5.607-7.963l2.027,1.318
		c-3.53,0.014-7.061-0.041-10.591-0.058c-1.766-0.02-3.53-0.01-5.296-0.055l-5.297-0.103l-1.906-0.037l0.488-1.723
		c1.06-3.743,2.204-7.465,3.325-11.194C410.038,144.967,411.217,141.253,412.452,137.552z M412.452,137.552
		c-0.598,3.855-1.252,7.697-1.941,11.53c-0.713,3.827-1.401,7.66-2.175,11.473l-1.417-1.76l5.286-0.353
		c1.762-0.128,3.524-0.202,5.287-0.305c3.525-0.184,7.05-0.406,10.576-0.558l1.423-0.062l0.604,1.38
		c1.057,2.412,2.541,4.555,4.46,5.953c0.955,0.7,2.011,1.215,3.121,1.52c0.555,0.15,1.12,0.267,1.688,0.318
		c0.282,0.027,0.565,0.04,0.84,0.038l0.399-0.014l0.273-0.026l-0.408,0.107c1.935-0.711,3.782-1.579,5.338-2.675
		c1.556-1.091,2.777-2.42,3.367-3.891c0.627-1.452,0.662-3.124,0.179-4.861c-0.239-0.864-0.597-1.733-1.042-2.573
		c-0.223-0.42-0.467-0.833-0.729-1.233c-0.247-0.381-0.573-0.828-0.785-1.084l0.215,0.217c-0.731-0.651-1.162-1.534-1.334-2.256
		c-0.185-0.74-0.194-1.379-0.162-1.962c0.038-0.581,0.128-1.11,0.247-1.615c0.126-0.525,0.249-0.942,0.479-1.524l0.06-0.15
		l0.062-0.106c1.285-2.233,2.018-4.665,1.806-7.02c-0.102-1.174-0.428-2.329-0.965-3.39c-0.267-0.527-0.592-1.038-0.931-1.485
		l-0.239-0.293c0.013,0.006-0.047-0.048-0.112-0.112l-0.177-0.17c-0.237-0.225-0.48-0.442-0.728-0.651
		c-1.973-1.679-4.313-2.769-6.803-2.856c-1.238-0.043-2.509,0.112-3.746,0.496c-1.211,0.366-2.494,0.994-3.444,1.674l0.409-0.605
		c-0.75,1.954-1.725,3.852-3.025,5.542c-0.646,0.846-1.373,1.638-2.191,2.339c-0.847,0.699-1.668,1.309-2.846,1.733l-0.139,0.05
		l-0.113-0.007l-5.334-0.352L412.452,137.552z"/>
</g>
<g>
	<path fill="#B3E0E0" d="M394.286,177.386l20.167,16.164c0,0,22.5-7.663,22.5,9.17c0,0-0.167,11.333-11.167,12.833
		c0,0,0.668,14.334-13.166,14.667c0,0-14,1.375-11.667-18.562l-26.333-21.271C374.62,190.386,388.452,182.386,394.286,177.386z"/>
	<path d="M394.286,177.386c3.554,2.454,7.07,4.954,10.575,7.468c3.479,2.548,6.988,5.056,10.438,7.639l-1.283-0.225
		c2.005-0.718,3.958-1.233,6.011-1.629c2.04-0.383,4.137-0.63,6.295-0.554c2.147,0.079,4.396,0.431,6.541,1.471
		c2.146,1.007,4.047,2.912,5.037,5.137c0.506,1.104,0.821,2.255,1.003,3.391c0.091,0.568,0.148,1.133,0.186,1.694l0.033,0.837
		c0.007,0.424-0.019,0.66-0.04,0.966c-0.204,2.272-0.778,4.456-1.814,6.543c-1.028,2.071-2.599,3.996-4.593,5.365
		c-1.983,1.39-4.312,2.142-6.562,2.459l2.088-2.507c0.022,0.662,0.001,1.119-0.03,1.664c-0.032,0.522-0.086,1.04-0.155,1.556
		c-0.143,1.031-0.355,2.057-0.654,3.072c-0.598,2.023-1.547,4.034-2.979,5.771c-1.416,1.742-3.327,3.146-5.395,3.977
		c-2.073,0.837-4.234,1.161-6.308,1.206l0.182-0.011c-0.485,0.036-0.742,0.03-1.094,0.023c-0.327-0.009-0.648-0.03-0.968-0.062
		c-0.639-0.062-1.269-0.17-1.893-0.316c-1.247-0.296-2.472-0.768-3.61-1.425c-2.293-1.308-4.111-3.424-5.167-5.706
		c-1.09-2.287-1.512-4.694-1.666-7.001c-0.145-2.318,0.002-4.58,0.289-6.79l0.808,1.981c-2.161-1.813-4.344-3.601-6.487-5.437
		l-6.444-5.49c-4.312-3.639-8.545-7.378-12.812-11.074l-1.447-1.253l1.61-0.848c3.457-1.82,6.904-3.717,10.308-5.666
		c1.707-0.969,3.401-1.959,5.071-2.991C391.037,179.604,392.703,178.56,394.286,177.386z M394.286,177.386
		c-2.839,2.748-6.018,5.13-9.21,7.452c-1.598,1.163-3.231,2.273-4.864,3.385c-1.64,1.104-3.273,2.205-4.952,3.269l0.163-2.1
		c4.511,3.395,9.057,6.746,13.521,10.197l6.722,5.146c2.246,1.71,4.451,3.468,6.679,5.199l0.932,0.725l-0.123,1.257
		c-0.196,2.003-0.253,3.998-0.071,5.912c0.173,1.913,0.629,3.733,1.374,5.281c0.75,1.552,1.855,2.771,3.263,3.564
		c0.703,0.396,1.48,0.689,2.299,0.874c0.409,0.092,0.827,0.158,1.245,0.194c0.209,0.019,0.417,0.029,0.619,0.033
		c0.18,0.006,0.453-0.006,0.497-0.011l0.08-0.008l0.102-0.003c3.261-0.088,6.156-1.16,8.012-3.407
		c0.94-1.113,1.639-2.502,2.104-4.018c0.231-0.758,0.405-1.548,0.524-2.349c0.059-0.4,0.104-0.804,0.134-1.204
		c0.029-0.378,0.044-0.848,0.038-1.11l-0.051-2.244l2.139-0.263c3.389-0.416,6.194-2.154,7.766-5.131
		c0.791-1.455,1.31-3.177,1.512-4.864c0.021-0.19,0.046-0.451,0.043-0.525l-0.005-0.656c-0.016-0.433-0.045-0.861-0.099-1.278
		c-0.108-0.834-0.303-1.625-0.582-2.354c-0.572-1.449-1.576-2.6-2.994-3.384c-1.41-0.789-3.164-1.203-4.98-1.358
		c-3.64-0.286-7.596,0.234-11.23,1.224l-0.774,0.211l-0.509-0.436c-3.272-2.805-6.484-5.685-9.729-8.525
		C400.66,183.208,397.455,180.32,394.286,177.386z"/>
</g>
<g>
	<path fill="#6793A1" d="M71.118,148.881c24.847-17.375,43.436-30.376,57.345-40.103c2.071-1.449,4.039-2.825,5.908-4.131
		c3.432-2.4,6.532-4.568,9.331-6.525c6.146-4.298,10.843-7.583,14.434-10.094c2.395-1.674,4.297-3.004,5.808-4.061
		c5.842-4.085,5.842-4.085,5.842-4.085l0,0c0,0-0.636,5.215-1.291,10.238c-0.601,4.6-1.217,9.04-1.376,9.165
		c-0.333,0.264-0.333,0.264-0.333,0.264s4.571-2.326,11.693-5.971c1.532-0.784,3.182-1.629,4.929-2.524
		c3.175-1.628,6.674-3.425,10.375-5.331c5.029-2.588,10.432-5.376,15.906-8.214c5.93-3.074,11.944-6.205,17.659-9.203
		c2.589-1.358,5.116-2.689,7.547-3.975c14.659-7.757,25.788-13.872,25.557-14.449c0,0-8.543,6.921-20.975,16.94
		c-8.387,6.759-18.544,14.929-29.042,23.333c-7.51,6.012-15.194,12.144-22.529,17.966c-3.662,2.907-7.237,5.736-10.66,8.435
		c-8.321,6.562-15.744,12.351-21.334,16.599c-5.871,4.461-9.718,7.223-10.459,7.394c0,0,1.667-25.333,0-26L71.118,148.881z"/>
	<path d="M71.118,148.881l12.126-8.92l12.175-8.852l24.358-17.691l24.432-17.585l24.487-17.508l-0.811,1.557
		c0.002,0.038-0.005,0.042,0.012,0.221c-2.235,0.904,4.924,1.831,3.72,0.276c0.078-0.356,0.04-0.225,0.049-0.249l-0.002,0.019
		l-0.004,0.039l-0.009,0.078l-0.018,0.156l-0.035,0.311l-0.071,0.623l-0.143,1.245l-0.288,2.489l-0.589,4.978l-0.621,4.985
		l-0.34,2.507l-0.198,1.287c-0.041,0.231-0.072,0.431-0.149,0.757l-0.042,0.157l-0.029,0.097l-0.082,0.215l-0.023,0.054
		l-0.079,0.153c-0.106,0.189-0.247,0.37-0.405,0.519l-0.157,0.136l-0.061,0.049l-0.243,0.196l-2.239-3.492
		c15.692-8.131,31.382-16.285,47.018-24.522c7.833-4.091,15.658-8.196,23.448-12.351c3.894-2.078,7.782-4.167,11.642-6.288
		c1.929-1.06,3.853-2.128,5.75-3.214c0.948-0.542,1.891-1.091,2.807-1.645c0.457-0.277,0.91-0.557,1.33-0.833
		c0.208-0.137,0.412-0.275,0.578-0.396l0.177-0.137c0.01-0.008,0-0.004-0.053,0.053l-0.079,0.09l-0.04,0.052l-0.096,0.136
		l-0.085,0.148c-0.019,0.033-0.123,0.244-0.158,0.369c-0.055,0.202-0.066,0.177-0.111,0.569c-0.031,0.362,0.034,0.76,0.168,1.081
		l0.575,0.861c6.592,0.318,1.813,0.1,3.278,0.176l-0.027,0.022l-0.055,0.045l-0.111,0.09l-0.222,0.18l-0.444,0.361l-0.889,0.722
		l-1.777,1.443l-3.565,2.873l-7.135,5.739l-14.281,11.464c-9.532,7.629-19.047,15.28-28.644,22.831
		c-9.583,7.566-19.183,15.114-28.824,22.615c-4.825,3.746-9.678,7.456-14.553,11.146c-2.439,1.843-4.886,3.679-7.358,5.493
		c-1.237,0.907-2.478,1.81-3.742,2.7c-0.633,0.445-1.27,0.887-1.927,1.324l-1.02,0.655l-0.57,0.333l-0.349,0.18
		c-0.152,0.065-0.263,0.136-0.641,0.234l-2.37,0.614l0.18-2.475c0.314-4.319,0.567-8.666,0.77-12.992
		c0.095-2.164,0.171-4.328,0.188-6.475c0.007-1.072,0.002-2.144-0.043-3.188c-0.023-0.52-0.055-1.04-0.112-1.517
		c-0.026-0.24-0.064-0.466-0.103-0.645c-0.017-0.083-0.043-0.17-0.043-0.169c-0.007-0.027,0.015,0.036,0.046,0.068
		c0.032,0.052,0.085,0.119,0.141,0.165c0.068,0.07,0.247,0.205,0.393,0.247l1.172-0.03l-18.701,8.33l-18.738,8.25l-18.738,8.249
		C83.656,143.482,77.377,146.159,71.118,148.881z M71.118,148.881c6.13-3,12.24-6.045,18.387-9.008l18.429-8.917l18.429-8.917
		l18.467-8.836l0.574-0.275l0.599,0.244c0.201,0.082,0.443,0.246,0.559,0.364c0.099,0.098,0.198,0.216,0.271,0.322
		c0.097,0.15,0.192,0.329,0.23,0.432c0.107,0.251,0.153,0.429,0.201,0.609c0.088,0.351,0.143,0.663,0.185,0.963
		c0.087,0.603,0.135,1.171,0.176,1.738c0.079,1.131,0.112,2.239,0.133,3.346c0.04,2.21,0.02,4.404-0.02,6.596
		c-0.078,4.385-0.267,8.745-0.5,13.124l-2.19-1.861c-0.192,0.049-0.129,0.041-0.109,0.024l0.157-0.086l0.413-0.253l0.895-0.599
		l1.821-1.302c1.214-0.89,2.425-1.805,3.632-2.725c2.414-1.843,4.815-3.716,7.211-5.597l14.321-11.377
		c9.543-7.599,19.049-15.25,28.542-22.919l28.492-22.992l14.233-11.514l7.11-5.764l3.554-2.883l1.781-1.436l0.891-0.718l0.445-0.359
		l0.223-0.179l0.111-0.09l0.056-0.045l0.028-0.023c1.483,0.062-3.278-0.172,3.333,0.131l0.235,0.011l0.34,0.85
		c0.135,0.338,0.202,0.754,0.172,1.133c-0.042,0.41-0.066,0.4-0.125,0.618c-0.042,0.141-0.148,0.37-0.178,0.417l-0.113,0.192
		l-0.124,0.179l-0.073,0.092l-0.146,0.168c-0.149,0.156-0.26,0.254-0.355,0.335c-0.19,0.162-0.33,0.263-0.477,0.372
		c-0.281,0.204-0.537,0.374-0.791,0.54c-0.505,0.328-0.994,0.627-1.483,0.922c-0.977,0.586-1.947,1.145-2.919,1.697
		c-1.944,1.102-3.889,2.172-5.838,3.234c-3.897,2.122-7.806,4.203-11.719,6.273c-7.828,4.136-15.676,8.218-23.533,12.282
		c-15.749,8.062-31.518,16.065-47.333,23.993l-2.239-3.492l0.247-0.192l0.062-0.048l0.015-0.012l0.008-0.006
		c-0.003,0.002,0.013-0.01-0.006,0.005l-0.115,0.098c-0.151,0.138-0.285,0.309-0.384,0.487l-0.086,0.172
		c-0.021,0.045-0.042,0.105-0.053,0.142l-0.007,0.022c-0.006,0.023-0.004,0.018-0.001,0.006c0.022-0.078,0.065-0.29,0.099-0.469
		l0.205-1.183l0.378-2.445l0.708-4.936l0.679-4.95l0.333-2.477l0.165-1.238l0.083-0.62l0.041-0.31l0.021-0.155l0.01-0.077
		l0.005-0.039l0.003-0.02c0.01-0.031-0.027,0.095,0.051-0.268c-1.204-1.559,5.956-0.635,3.721,0.267
		c0.018,0.176,0.011,0.177,0.013,0.211l0.062,0.96l-0.873,0.597l-24.847,16.992l-24.901,16.915L96.15,132.153l-12.492,8.399
		L71.118,148.881z"/>
</g>
</svg>
