<?xml version="1.0" encoding="utf-8"?>
<!-- Generator: Adobe Illustrator 15.0.2, SVG Export Plug-In  -->
<!DOCTYPE svg PUBLIC "-//W3C//DTD SVG 1.1//EN" "http://www.w3.org/Graphics/SVG/1.1/DTD/svg11.dtd" [
	<!ENTITY ns_flows "http://ns.adobe.com/Flows/1.0/">
]>
<svg version="1.1"
	 xmlns="http://www.w3.org/2000/svg" xmlns:xlink="http://www.w3.org/1999/xlink" xmlns:a="http://ns.adobe.com/AdobeSVGViewerExtensions/3.0/"
	 x="0px" y="0px" width="619px" height="555px" viewBox="-6.249 -6.576 619 555"
	 overflow="visible" enable-background="new -6.249 -6.576 619 555" xml:space="preserve">
<defs>
</defs>
<path fill-rule="evenodd" clip-rule="evenodd" d="M272.494,1.422c7.008-0.546,20.17,1.2,25.997,4
	c5.181,2.489,13.22,12.91,15.998,12.999c2.907,0.093,15.302-12.486,18.998-13.999c44.011-18.015,92.011,31.662,63.991,74.991
	c-7.959,12.309-26.403,27.404-39.994,40.995c-7.114,7.114-12.643,13.642-19.998,20.997c-5.643,5.643-16.599,17.987-21.997,17.998
	c-6.329,0.013-16.706-12.707-22.997-18.998c-8.167-8.167-15.145-15.145-20.997-20.998c-13.223-13.222-33.147-28.523-40.995-42.995
	C209.989,38.589,239.712,3.979,272.494,1.422z"/>
<path fill-rule="evenodd" clip-rule="evenodd" d="M248.498,217.395c23.998,4.446,74.515-9.246,65.991,21.997
	c-4.936,18.091-43.874,6.765-65.991,9.999c0,12.998,0,25.997,0,38.995c24.309,5.05,71.54-9.709,65.991,19.997
	c-3.806,20.374-42.642,8.966-65.991,11.999c-0.66,9.006,1.708,21.039-2,26.996c-67.768,14.124-117.335-9.598-128.984-61.992
	c-25.221,0.458-40.208-2.099-53.993,5c-29.156,15.013-28.423,65.39,7,74.99c11.848,3.211,24.983,1.749,36.995,5.999
	c24.073,8.519,45.338,28.517,47.994,62.992c1.586,20.596,0,42.36,0,60.992c0,22.977,4.569,49.756-18.998,46.994
	c-26.116-3.061-10.156-82.946-13.999-109.986c-3.332-23.448-22.806-30.979-47.994-33.995c-34.502-4.132-61.502-27.53-64.992-64.992
	c-5.175-55.543,42.437-88.309,107.986-79.99c6.789-31.168,33.927-61.624,73.991-64.992c13.662-1.148,48.987-4.033,54.993,4
	C250.684,197.998,247.466,210.487,248.498,217.395z"/>
<path fill-rule="evenodd" clip-rule="evenodd" d="M494.466,253.39c47.234-3.975,79.212,5.927,96.988,31.996
	c32.909,48.266-2.727,106.438-51.994,112.986c-23.139,3.075-45.43,7.381-48.994,31.996c-2.329,16.09,0,42.727,0,63.991
	c0.001,22.187,2.462,47.506-15.997,47.994c-17.823,0.473-16.998-19.899-16.998-45.994c0-20.08-1.44-43.291,0-61.992
	c2.332-30.281,23.801-57.024,50.993-64.992c11.996-3.515,24.032-1.788,32.996-3.999c16.487-4.066,35.219-23.282,28.996-48.994
	c-7.042-29.101-32.476-33.168-73.99-30.996c-12.311,49.172-59.946,77.562-129.984,61.992c-3.522-27.318-1.999-81.592-1.999-121.984
	c0-17.492-3.319-33.899,8.999-36.996c12.131-3.049,32.704-1.04,46.994,0C460.949,191.344,485.854,217.389,494.466,253.39z"/>
<g>
	<path fill="#B3E0E0" d="M147.721,510.589c0-30,0-81.25,0-81.25s-2-39.5-33.5-56.75s-45-6.25-61.25-17.25s-16.5-23.25-17.25-23.5
		s-2.75-19.75,1.75-27.5s11.25-17,15.75-18.5s8-4.75,16.75-5.75s39.25,0,39.25,0s12.75,65,87,65s15,0,15,0l27-3.5l1.5-3v-5.5v-18.25
		l13.25-0.75l16,0.5l17.25,0.25c0,0,10.75-1.5,12.25-2.5s6.5-3.25,7.75-8.5c1.25-5.25,0.25-12.25-1.25-12.75s-1-4.75-10.25-6.5
		s-11-1.5-11.75-1.75s-25.25,0.25-25.25,0.25l-11-0.25l-6.25-0.75l-0.25-38.5l8-1.25c0,0,19.25,1.5,20,1.25s18,1.5,19.5,0.25
		s11.25,0.25,16-5.75c4.75-6,3.382-11.25,3.066-12c-0.316-0.75-1.316-7.5-4.066-9s-12-5-14.5-4.75s-26-0.013-26-0.013h-15.5
		c0,0-6.25-0.487-6.25-1.487s-0.25-18.75-0.25-18.75s0.75-5.75-5.75-8.5s-15-2-16.25-2.75s-19,0.25-19.25,0s-26.5,2.25-29.25,3.5
		s-16.5,6-27,12.25s-17.75,18.75-19.75,20.5s-11,19.75-12,23.75s-2,6.75-2,6.75l-21.75-1.5c0,0-27.5,1.5-41,7.5s-30,18-36.75,31.25
		s-9.5,30.5-8.25,40.5s5.5,31.25,17,43.25s32,19.5,39.25,21s18.75,2.5,27,6.25s12.25,1.25,18.25,11.25s8.25,11.5,10.25,21.5
		s0,53.75,0,53.75s0,32.25,1.75,34.25s0,13.25,10,18.75s3.75,1.65,3.75,1.65S147.721,540.589,147.721,510.589z"/>
	<path d="M147.721,510.589l-0.042-44.219l-0.021-22.109l-0.011-11.055l-0.002-2.764c0.023-0.925-0.037-1.831-0.142-2.75
		c-0.192-1.83-0.463-3.652-0.789-5.463c-1.32-7.241-3.511-14.335-6.631-21.002c-3.125-6.658-7.243-12.877-12.377-18.144
		c-2.563-2.634-5.375-5.022-8.395-7.113c-3.008-2.11-6.267-3.831-9.565-5.457c-6.602-3.232-13.572-5.747-20.787-7.137
		c-3.604-0.707-7.256-1.131-10.923-1.426c-3.665-0.306-7.354-0.477-11.028-1.004c-3.667-0.516-7.321-1.493-10.656-3.182
		c-1.667-0.825-3.263-1.838-4.761-2.908c-1.519-1.07-2.979-2.221-4.373-3.451c-2.783-2.461-5.289-5.268-7.302-8.417
		c-2.029-3.128-3.486-6.671-4.373-10.255c-0.056-0.199-0.138-0.458-0.178-0.527c0.001,0.002-0.003,0,0.034,0.041
		c0.098,0.069,0.087,0.065,0.016,0.019c-0.01,0.005-0.199-0.173-0.227-0.25l-0.065-0.132c-0.06-0.147-0.099-0.274-0.132-0.396
		c-0.13-0.488-0.208-0.947-0.282-1.413c-0.146-0.928-0.249-1.852-0.336-2.777c-0.172-1.851-0.271-3.703-0.309-5.559
		c-0.065-3.709,0.072-7.437,0.705-11.133c0.329-1.845,0.776-3.689,1.558-5.454c0.397-0.9,0.904-1.697,1.364-2.488
		c0.474-0.798,0.958-1.588,1.452-2.372c1.983-3.134,4.104-6.187,6.505-9.049c1.208-1.426,2.48-2.81,3.938-4.047
		c0.733-0.615,1.512-1.197,2.407-1.666c0.441-0.237,0.968-0.423,1.377-0.562c0.403-0.149,0.818-0.318,1.227-0.497
		c1.638-0.722,3.263-1.615,4.976-2.385c1.709-0.777,3.495-1.437,5.325-1.914c1.831-0.481,3.689-0.805,5.567-0.998
		c1.874-0.181,3.723-0.257,5.576-0.321c3.701-0.117,7.393-0.138,11.084-0.135c7.382,0.015,14.754,0.141,22.133,0.333l0.801,0.021
		l0.185,0.818c0.787,3.48,1.975,6.995,3.312,10.377c1.35,3.395,2.911,6.706,4.659,9.912c3.5,6.409,7.776,12.394,12.77,17.697
		c4.992,5.305,10.71,9.912,16.962,13.623c6.25,3.718,13.021,6.534,20.036,8.467c7.016,1.943,14.268,3.009,21.553,3.384
		c3.643,0.198,7.288,0.15,11.004,0.132l11.095-0.051l11.094-0.052l5.547-0.026l2.773-0.013l1.387-0.007l0.693-0.003l0.347-0.002
		h0.087h0.043c0.028-0.767-0.014,6.669-0.02,3.521l-0.173,0.001l-22.189,0.104l-0.24-3.715l26.983-3.626l-1.525,1.085l1.486-3.007
		l-0.212,0.897l-0.107-23.75l-0.009-1.992l2.004-0.119l13.248-0.787l0.087-0.005l0.102,0.003l16.586,0.462l16.628,0.194
		l-0.342,0.021c1.99-0.29,4.007-0.612,5.986-0.969c0.99-0.179,1.975-0.368,2.934-0.578c0.479-0.104,0.95-0.216,1.397-0.334
		c0.421-0.108,0.923-0.271,1.05-0.337c-0.212,0.131,0.267-0.177,0.47-0.296l0.665-0.397c0.422-0.254,0.816-0.501,1.197-0.758
		c0.759-0.512,1.45-1.06,2.05-1.658c1.208-1.202,2.015-2.576,2.347-4.144c0.387-1.755,0.506-3.647,0.432-5.518
		c-0.041-0.933-0.129-1.866-0.287-2.743c-0.078-0.437-0.173-0.861-0.286-1.237c-0.101-0.368-0.267-0.723-0.303-0.768
		c0.002,0.009,0.017,0.032,0.101,0.113c0.035,0.031,0.132,0.121,0.209,0.158c0.052,0.033,0.131,0.081,0.201,0.11l0.112,0.042
		c-0.03-0.011,0.146,0.05-0.052-0.021l-0.022-0.009l-0.058-0.022l-0.214-0.094c-0.155-0.075-0.208-0.111-0.314-0.174
		c-0.175-0.111-0.337-0.234-0.464-0.349c-0.262-0.233-0.436-0.445-0.571-0.622c-0.505-0.698-0.667-1.048-0.914-1.394
		c-0.442-0.654-0.918-1.136-1.553-1.589c-1.259-0.896-2.991-1.503-4.806-1.907c-0.885-0.196-1.928-0.373-2.913-0.551l-2.985-0.502
		c-0.993-0.156-1.983-0.3-2.967-0.424c-1.009-0.129-1.899-0.21-3.012-0.312c-0.154-0.018-0.319-0.034-0.552-0.075
		c-0.117-0.021-0.255-0.05-0.422-0.097l-0.13-0.04c-0.071-0.022,0.343,0.098,0.158,0.046l-0.024-0.006
		c-0.011,0.001,0.158,0.041,0.229,0.043l-0.583-0.021l-1.49-0.014l-3.049,0.014l-6.132,0.077l-12.282,0.223l-0.768,0.016
		l-0.384,0.009l-0.488-0.003l-1.537-0.033l-3.073-0.067l-6.147-0.134l-0.116-0.002l-0.12-0.015l-6.25-0.744l-2.134-0.254
		l-0.016-2.154l-0.287-38.5l-0.016-2.133l2.112-0.332l7.999-1.258l0.283-0.044l0.294,0.022c5.67,0.428,11.377,0.853,17.012,1.172
		c0.697,0.037,1.408,0.072,2.053,0.086l0.407,0.001c0.027,0,0.018-0.001,0.015,0l-0.09,0.011c-0.032,0.004-0.156,0.025-0.228,0.045
		c-0.273,0.076,0.065-0.014,0.069-0.016c-0.135,0.016,0.587-0.104,0.56-0.08l0.244-0.009c0.508-0.004,0.848,0.017,1.232,0.033
		l4.312,0.268c2.835,0.183,5.666,0.362,8.438,0.426c1.355,0.026,2.814,0.034,3.884-0.098c0.119-0.016,0.234-0.036,0.278-0.048
		c0.025,0.016,0.094-0.082-0.349,0.193l-0.084,0.064c-0.064,0.052,0.171-0.132,0.089-0.067l0.054-0.04
		c0.099-0.074,0.354-0.233,0.446-0.276c0.215-0.112,0.405-0.188,0.565-0.244c0.328-0.115,0.589-0.177,0.833-0.229
		c0.943-0.188,1.657-0.241,2.387-0.319c2.83-0.258,5.415-0.594,7.631-1.533c1.096-0.463,2.066-1.063,2.858-1.811
		c0.197-0.188,0.387-0.382,0.562-0.588c0.083-0.099,0.184-0.218,0.248-0.304l0.325-0.425c0.338-0.463,0.686-0.986,0.988-1.515
		c1.211-2.095,1.817-4.502,1.543-6.681c-0.033-0.261-0.082-0.526-0.136-0.728l-0.035-0.121l-0.062-0.17l-0.102-0.324l-0.046-0.173
		l-0.074-0.299c-0.173-0.733-0.319-1.377-0.491-2.028c-0.338-1.282-0.741-2.53-1.25-3.528c-0.249-0.491-0.538-0.908-0.757-1.125
		c-0.052-0.044-0.1-0.092-0.133-0.113c-0.02-0.021-0.031-0.019-0.042-0.028c0,0-0.024-0.017-0.002-0.006l-0.118-0.062l-0.409-0.209
		l-0.44-0.21c-1.203-0.56-2.496-1.088-3.785-1.583c-1.292-0.494-2.6-0.959-3.903-1.375c-1.29-0.409-2.635-0.794-3.777-0.981
		c-0.266-0.042-0.54-0.067-0.646-0.064l-0.445,0.03l-0.588,0.025l-2.195,0.041l-4.305,0.016l-17.141-0.12l-17.092-0.051l-0.105,0
		l-0.079-0.007c-1.135-0.099-2.2-0.224-3.329-0.402c-0.564-0.093-1.13-0.194-1.743-0.345c-0.311-0.079-0.622-0.16-0.993-0.293
		c-0.186-0.068-0.389-0.148-0.625-0.264c-0.261-0.151-0.512-0.237-0.998-0.732l-0.161-0.186c-0.074-0.099-0.144-0.205-0.207-0.314
		s-0.12-0.223-0.168-0.337c-0.055-0.137-0.106-0.315-0.138-0.479c-0.032-0.16-0.05-0.359-0.051-0.487v-0.049l0-0.087l-0.002-0.389
		l-0.007-0.789l-0.016-1.581l-0.033-3.165l-0.139-12.663l-0.001-0.066l0.02-0.262c-0.002,0.027,0.013-0.203,0.008-0.325
		c-0.002-0.149-0.011-0.305-0.025-0.462c-0.031-0.313-0.087-0.629-0.167-0.936c-0.161-0.615-0.417-1.196-0.763-1.723
		c-0.687-1.056-1.752-1.904-3.058-2.515c-2.758-1.259-6.102-1.822-9.453-2.116c-1.713-0.161-3.362-0.202-5.308-0.395
		c-0.254-0.03-0.518-0.064-0.833-0.126c-0.165-0.035-0.329-0.069-0.558-0.141c-0.116-0.038-0.239-0.08-0.4-0.153
		c-0.065-0.027-0.181-0.088-0.268-0.138c-0.097-0.055,0.254,0.139,0.092,0.051l-0.037-0.018c0.364,0.165,0.296,0.102,0.264,0.109
		l-0.186-0.027l-0.535-0.048c-0.783-0.05-1.644-0.063-2.496-0.069c-3.438-0.01-6.944,0.105-10.45,0.2l-2.647,0.067l-1.362,0.017
		c-0.256-0.003-0.438,0.004-0.851-0.025c-0.099-0.012-0.077-0.001-0.306-0.042c-0.124-0.057,0.004,0.083-0.738-0.279
		c-0.817-0.602,0.693,0.479,0.093,0.059c0.063,0.04,0.287,0.139,0.438,0.172c0.123,0.043,0.458,0.06,0.374,0.054h-0.006
		l-0.234,0.005c-1.625,0.077-3.417,0.237-5.137,0.384c-3.475,0.308-6.956,0.656-10.425,1.04c-3.458,0.396-6.954,0.784-10.305,1.347
		c-0.414,0.072-0.825,0.147-1.213,0.23l-0.549,0.128c-0.16,0.039-0.34,0.1-0.331,0.097c-0.865,0.377-1.697,0.691-2.518,1.011
		l-4.891,1.899c-6.469,2.566-12.861,5.333-18.816,8.739c-5.811,3.28-10.55,8.337-14.809,13.739c-1.069,1.358-2.102,2.746-3.164,4.16
		c-0.545,0.714-1.048,1.407-1.747,2.191c-0.168,0.195-0.473,0.469-0.533,0.531c0.009-0.009-0.152,0.174-0.244,0.304
		c-0.218,0.289-0.447,0.633-0.67,0.979c-1.788,2.845-3.423,5.97-5.008,9.053c-1.572,3.101-3.106,6.244-4.461,9.401
		c-0.333,0.786-0.659,1.582-0.921,2.337c-0.139,0.393-0.211,0.671-0.33,1.14l-0.349,1.298c-0.483,1.731-0.995,3.413-1.615,5.15
		l-0.414,1.159l-1.229-0.09l-21.743-1.602l0.188,0.001c-8.601,0.522-17.261,1.458-25.731,3.034
		c-4.228,0.81-8.435,1.782-12.424,3.209c-3.937,1.465-7.799,3.481-11.504,5.627c-7.394,4.364-14.336,9.623-20.118,15.936
		c-2.87,3.168-5.428,6.605-7.322,10.404c-1.922,3.816-3.471,7.847-4.72,11.962c-1.245,4.118-2.196,8.332-2.83,12.59
		c-0.622,4.254-0.962,8.569-0.717,12.825c0.337,4.231,1.111,8.549,2.012,12.759c0.926,4.222,2.08,8.395,3.527,12.461
		c2.903,8.082,6.949,15.973,13.333,21.761c6.352,5.819,13.982,10.174,21.863,13.726c3.958,1.756,8.016,3.32,12.167,4.527
		c2.068,0.615,4.184,0.997,6.33,1.375l6.439,1.097c4.293,0.759,8.593,1.613,12.769,2.967c1.042,0.342,2.075,0.717,3.091,1.138
		c1.026,0.427,1.988,0.899,2.996,1.272c2.01,0.782,4.111,1.281,6.221,1.891c2.108,0.593,4.208,1.562,5.856,3.077
		c1.666,1.486,2.962,3.298,4.117,5.158c1.122,1.874,2.255,3.719,3.424,5.558c1.16,1.841,2.355,3.666,3.41,5.59
		c2.156,3.852,3.261,8.163,3.941,12.478c0.502,4.352,0.543,8.713,0.599,13.069c0.054,8.714-0.166,17.423-0.454,26.128l-0.505,13.055
		c-0.002,4.345,0.045,8.705,0.125,13.057c0.087,4.353,0.204,8.705,0.452,13.051c0.137,2.171,0.271,4.349,0.618,6.492
		c0.1,0.528,0.19,1.079,0.425,1.547c0.354,0.408,0.537,0.974,0.664,1.494c0.252,1.066,0.391,2.146,0.579,3.219
		c0.359,2.142,0.851,4.274,1.706,6.274c0.845,1.998,2.066,3.845,3.635,5.348c0.78,0.755,1.647,1.417,2.562,2.001
		c0.923,0.57,1.894,1.069,2.845,1.597c0.957,0.519,1.914,1.038,2.883,1.53c0.243,0.12,0.487,0.246,0.736,0.343
		c0.028,0.011,0.068,0.023,0.081,0.023c-0.037,0.083-0.032-0.005-0.065-0.007l-0.158-0.123l-0.334-0.232
		c-0.452-0.302-0.912-0.592-1.374-0.879l-0.143-0.089l0.168,0.023c3.081,0.419,6.301-0.167,9.051-1.627
		c2.768-1.46,4.964-3.854,6.464-6.58c1.514-2.734,2.415-5.769,2.969-8.835C147.514,516.838,147.713,513.71,147.721,510.589z
		 M147.721,510.589c-0.001,3.121-0.195,6.25-0.741,9.326c-0.548,3.069-1.443,6.107-2.955,8.85c-1.497,2.734-3.694,5.139-6.47,6.609
		c-2.76,1.472-5.985,2.067-9.09,1.65l0.025-0.065c0.463,0.286,0.924,0.576,1.378,0.878l0.337,0.232l0.164,0.127
		c0,0.039,0.112,0.012,0.023,0.141c-0.056-0.002-0.08-0.017-0.116-0.027c-0.258-0.101-0.5-0.225-0.744-0.346
		c-0.973-0.49-1.931-1.009-2.889-1.525c-0.953-0.526-1.922-1.021-2.853-1.595c-0.921-0.585-1.795-1.249-2.581-2.008
		c-1.583-1.509-2.815-3.365-3.669-5.374c-0.864-2.01-1.361-4.151-1.726-6.297c-0.19-1.072-0.332-2.155-0.583-3.208
		c-0.135-0.528-0.29-1.035-0.654-1.46c-0.255-0.51-0.339-1.054-0.443-1.589c-0.354-2.156-0.491-4.333-0.632-6.507
		c-0.257-4.349-0.382-8.703-0.477-13.057c-0.089-4.356-0.145-8.704-0.151-13.068c0.185-4.35,0.347-8.701,0.467-13.054
		c0.239-8.704,0.41-17.412,0.308-26.116c-0.079-4.347-0.147-8.713-0.668-13.015c-0.696-4.255-1.816-8.521-3.953-12.281
		c-1.05-1.891-2.252-3.705-3.423-5.541c-1.178-1.829-2.335-3.688-3.459-5.545c-1.146-1.825-2.428-3.586-4.028-4.996
		c-1.587-1.437-3.548-2.333-5.624-2.907c-2.074-0.588-4.224-1.086-6.283-1.873c-1.037-0.378-2.036-0.859-3.022-1.263
		c-0.998-0.407-2.015-0.771-3.043-1.102c-4.121-1.316-8.396-2.129-12.681-2.842l-6.449-1.036c-2.144-0.356-4.325-0.73-6.44-1.338
		c-4.226-1.187-8.328-2.725-12.344-4.461c-4.012-1.745-7.929-3.721-11.691-5.977c-3.756-2.259-7.368-4.797-10.637-7.764
		c-3.297-2.941-6.076-6.481-8.324-10.267c-2.264-3.79-4.078-7.82-5.592-11.942c-1.512-4.126-2.723-8.352-3.703-12.627
		c-0.957-4.293-1.772-8.562-2.171-13.011c-0.296-4.442,0.016-8.86,0.61-13.223c0.607-4.362,1.539-8.675,2.774-12.904
		c1.241-4.229,2.786-8.373,4.745-12.355c1.96-4.023,4.621-7.664,7.561-10.969c5.935-6.599,12.989-12.038,20.534-16.59
		c3.806-2.247,7.673-4.327,11.886-5.943c4.202-1.546,8.501-2.575,12.813-3.445c8.642-1.689,17.325-2.709,26.101-3.326l0.08-0.005
		l0.108,0.007l21.757,1.398l-1.642,1.068c0.545-1.572,1.042-3.253,1.486-4.906l0.322-1.246c0.091-0.383,0.238-0.955,0.392-1.39
		c0.304-0.904,0.639-1.735,0.982-2.568c1.383-3.304,2.899-6.484,4.47-9.656c1.595-3.169,3.179-6.29,5.096-9.407
		c0.25-0.394,0.5-0.783,0.806-1.198c0.168-0.224,0.28-0.385,0.59-0.713c0.25-0.249,0.279-0.261,0.398-0.399
		c0.465-0.528,0.999-1.255,1.509-1.941c1.032-1.401,2.081-2.838,3.168-4.248c2.175-2.823,4.503-5.572,7.092-8.111
		c2.579-2.528,5.474-4.882,8.663-6.712c6.202-3.623,12.704-6.499,19.247-9.168l4.903-1.957c0.812-0.324,1.618-0.639,2.357-0.971
		c0.413-0.175,0.656-0.235,0.919-0.31l0.73-0.179c0.469-0.104,0.92-0.191,1.369-0.274c3.566-0.627,7.043-1.056,10.553-1.473
		c3.503-0.407,7.003-0.777,10.516-1.108c1.774-0.16,3.478-0.328,5.356-0.428l0.423-0.01l0.159,0.003
		c-0.057-0.006,0.306,0.015,0.456,0.06c0.179,0.036,0.43,0.135,0.52,0.18c-0.574-0.412,0.963,0.677,0.171,0.087
		c-0.719-0.348-0.562-0.207-0.659-0.258l-0.143-0.021l0.465,0.005l1.269-0.023l2.613-0.081c3.508-0.114,7.016-0.251,10.595-0.261
		c0.902,0.001,1.796,0.007,2.765,0.063c0.244,0.015,0.496,0.034,0.775,0.066c0.141,0.017,0.288,0.036,0.465,0.067
		c0.183,0.046,0.331,0.031,0.899,0.275l0.203,0.105l-0.122-0.063l-0.092-0.037c-0.02-0.005,0.032,0.007,0.081,0.017
		c0.115,0.022,0.287,0.046,0.468,0.065c1.546,0.148,3.408,0.199,5.19,0.354c3.613,0.317,7.322,0.834,10.988,2.466
		c1.869,0.856,3.703,2.216,4.948,4.108c0.623,0.936,1.089,1.979,1.378,3.06c0.145,0.541,0.247,1.09,0.305,1.649
		c0.029,0.28,0.047,0.562,0.052,0.852c0.001,0.316,0.007,0.525-0.042,0.988l0.019-0.328l0.21,12.665l0.05,3.167l0.024,1.585
		l0.011,0.795l0.005,0.402l0.001,0.111v0.049c0.003-0.096-0.007-0.262-0.033-0.39c-0.024-0.133-0.072-0.277-0.116-0.383
		c-0.032-0.085-0.071-0.17-0.118-0.251c-0.046-0.081-0.099-0.158-0.157-0.229l-0.093-0.114c-0.307-0.299-0.32-0.258-0.35-0.285
		l0.105,0.04c0.126,0.046,0.326,0.101,0.527,0.149c0.412,0.1,0.886,0.185,1.364,0.26c0.956,0.147,1.99,0.262,2.958,0.341
		l-0.184-0.007l17.141-0.018l17.091,0.087l4.252-0.023l2.083-0.043l1.102-0.059c0.608-0.006,1.045,0.056,1.484,0.118
		c1.674,0.277,3.075,0.7,4.505,1.144c1.416,0.449,2.797,0.938,4.17,1.459c1.375,0.525,2.727,1.071,4.112,1.712l0.526,0.25
		l0.544,0.277l0.118,0.062l0.228,0.133c0.139,0.086,0.285,0.174,0.403,0.267c0.258,0.185,0.473,0.379,0.682,0.577
		c0.791,0.794,1.274,1.599,1.679,2.371c0.786,1.549,1.239,3.042,1.637,4.512c0.194,0.728,0.365,1.474,0.521,2.129l0.055,0.22
		l0.023,0.085c-0.004-0.02-0.021-0.062-0.025-0.067l0.12,0.332l0.117,0.392c0.13,0.488,0.206,0.927,0.266,1.372
		c0.437,3.513-0.516,6.903-2.13,9.738c-0.406,0.709-0.844,1.379-1.349,2.067l-0.324,0.425c-0.15,0.199-0.281,0.352-0.427,0.526
		c-0.288,0.336-0.595,0.655-0.914,0.959c-1.282,1.216-2.787,2.125-4.314,2.773c-3.065,1.296-6.233,1.64-9.063,1.916
		c-0.688,0.07-1.397,0.144-1.854,0.24c-0.105,0.022-0.191,0.047-0.199,0.051c-0.009,0.001,0.017-0.004,0.073-0.035
		c0.014-0.003,0.193-0.113,0.216-0.141l-0.053,0.04c-0.101,0.079,0.117-0.093,0.035-0.028l-0.139,0.103
		c-0.74,0.475-1.021,0.475-1.34,0.577c-0.302,0.074-0.539,0.11-0.773,0.144c-1.764,0.21-3.168,0.167-4.663,0.152
		c-2.932-0.062-5.798-0.24-8.656-0.418l-4.23-0.255c-0.328-0.016-0.701-0.03-0.906-0.026c-0.027,0-0.036,0.001-0.023,0
		c-0.116,0.031,0.516-0.085,0.295-0.047c-0.019,0.003,0.298-0.082,0.003-0.002c-0.094,0.025-0.239,0.052-0.293,0.059l-0.223,0.024
		l-0.252,0.014l-0.663,0.001c-0.781-0.016-1.495-0.051-2.223-0.088c-5.758-0.32-11.43-0.767-17.137-1.204l0.577-0.022l-8.001,1.242
		l2.095-2.464l0.213,38.5l-2.15-2.409l6.249,0.756l-0.234-0.017l6.146,0.146l3.073,0.072l1.537,0.036l0.192,0.005l0.048,0.001
		c-0.201,0-0.042,0-0.081,0l0.024-0.001l0.096-0.002l0.385-0.007l0.77-0.015l12.308-0.2l6.164-0.065l3.099-0.008l1.584,0.018
		c0.293,0.009,0.508,0.008,0.953,0.045c0.135,0.011,0.369,0.055,0.42,0.067l0.023,0.006c-0.169-0.05,0.261,0.073,0.205,0.057
		l-0.039-0.012c-0.044-0.013-0.057-0.014-0.048-0.012l0.21,0.026c0.928,0.087,2.079,0.194,3.103,0.329
		c1.05,0.133,2.087,0.287,3.118,0.451l3.077,0.526c1.03,0.193,2.009,0.359,3.124,0.611c2.163,0.511,4.406,1.222,6.506,2.708
		c1.037,0.732,2.014,1.743,2.705,2.798c0.335,0.498,0.653,1.059,0.755,1.187c0.057,0.08-0.065-0.131-0.458-0.29l0.212,0.091
		c0.127,0.059,0.267,0.129,0.373,0.195c0.177,0.118,0.386,0.274,0.51,0.397c0.271,0.258,0.44,0.485,0.59,0.703
		c0.519,0.819,0.707,1.438,0.896,2.051c0.177,0.608,0.299,1.187,0.399,1.758c0.197,1.143,0.293,2.255,0.336,3.369
		c0.073,2.224-0.069,4.455-0.573,6.705c-0.52,2.457-1.913,4.741-3.632,6.401c-0.856,0.844-1.787,1.564-2.73,2.193
		c-0.471,0.313-0.947,0.607-1.406,0.879l-0.656,0.388c-0.244,0.13-0.174,0.139-0.847,0.494c-0.806,0.361-1.298,0.469-1.865,0.627
		c-0.545,0.142-1.071,0.262-1.594,0.373c-1.045,0.223-2.074,0.413-3.102,0.594c-2.058,0.358-4.09,0.672-6.158,0.961l-0.173,0.024
		l-0.17-0.003l-16.627-0.287l-16.657-0.557l0.188-0.002l-13.252,0.713l1.995-2.111l-0.107,23.75l-0.002,0.483l-0.21,0.414
		l-1.514,2.993l-0.483,0.954l-1.043,0.131l-27.016,3.374l-0.24-3.715l22.189,0.104l0.173,0.001c0.006-3.147,0.048,4.288,0.02,3.521
		h-0.043h-0.087l-0.347-0.002l-0.693-0.003l-1.387-0.007l-2.773-0.013l-5.547-0.026l-11.094-0.052l-11.095-0.051
		c-3.679-0.017-7.434-0.002-11.178-0.24c-7.479-0.456-14.939-1.62-22.167-3.694c-7.225-2.063-14.206-5.043-20.637-8.95
		c-6.434-3.9-12.3-8.721-17.395-14.236c-5.098-5.516-9.432-11.708-12.958-18.312c-1.762-3.304-3.329-6.71-4.68-10.201
		c-1.343-3.506-2.51-7.029-3.32-10.773l0.985,0.838c-7.354-0.26-14.719-0.453-22.076-0.537c-3.678-0.037-7.357-0.05-11.024,0.032
		c-1.831,0.045-3.666,0.104-5.461,0.262c-1.79,0.167-3.575,0.462-5.312,0.901c-1.741,0.438-3.431,1.042-5.083,1.774
		c-1.656,0.724-3.273,1.596-5.015,2.346c-0.437,0.186-0.876,0.36-1.339,0.526c-0.463,0.155-0.81,0.272-1.185,0.467
		c-0.743,0.379-1.458,0.895-2.139,1.457c-1.364,1.135-2.611,2.46-3.796,3.834c-2.363,2.764-4.487,5.757-6.472,8.831
		c-0.495,0.771-0.98,1.546-1.456,2.329c-0.473,0.795-0.964,1.556-1.316,2.341c-0.729,1.603-1.18,3.362-1.513,5.138
		c-0.646,3.566-0.82,7.238-0.788,10.893c0.02,1.829,0.102,3.659,0.253,5.479c0.078,0.909,0.171,1.818,0.303,2.712
		c0.066,0.444,0.141,0.896,0.245,1.299c0.025,0.101,0.056,0.193,0.081,0.26l0.011,0.023c0.006-0.032-0.159-0.153-0.121-0.116
		c-0.029-0.007,0.021,0.003,0.155,0.119c0.079,0.081,0.104,0.129,0.135,0.18c0.173,0.34,0.201,0.533,0.276,0.774
		c0.854,3.577,2.211,6.948,4.163,10.032c1.93,3.083,4.353,5.852,7.064,8.295c1.357,1.221,2.786,2.368,4.269,3.434
		c1.49,1.086,3.013,2.056,4.644,2.879c3.244,1.663,6.799,2.639,10.418,3.169c3.623,0.541,7.305,0.733,10.98,1.061
		c3.676,0.316,7.354,0.764,10.98,1.496c7.263,1.44,14.264,4.013,20.874,7.295c3.299,1.648,6.569,3.399,9.588,5.542
		c3.029,2.122,5.846,4.542,8.408,7.204c5.137,5.323,9.223,11.596,12.334,18.28c3.116,6.692,5.297,13.804,6.606,21.062
		c0.324,1.815,0.592,3.642,0.781,5.477c0.104,0.913,0.162,1.847,0.137,2.767l-0.002,2.764l-0.011,11.055l-0.021,22.109
		L147.721,510.589z"/>
</g>
<g>
	<path fill="#6793A1" d="M357.752,202.825v101l1.666,26.334c0,0,1.001,10.332,1.334,11c0.333,0.666,66.999,15.332,96.666-12.668
		s25.666-28.334,32-46c6.334-17.666,0-2.666,0-2.666s30.001-0.334,34.334-0.334s21.334,5.334,23,7c1.666,1.668,10,5,14,14
		s6.334,24.334,4,28.334s-1.667,12.34-12.667,21.004c-11,8.662-23.001,12.996-36.667,11.662
		c-13.666-1.332-36.999,13.334-37.666,15.668c-0.667,2.332-15.668,13.666-21.334,29.332c-5.666,15.668-3.001,11-5.334,24.666
		c-2.333,13.668,0,53,0,53l0.334,27.668c0,0,1,13.418,3,16.875c2,3.459,7.666,8.793,14.333,7.793s10.667-4.002,13.667-12.334
		c3-8.334,1.666-51.666,1.666-51.666s-2.666-51.334,3.667-59.668c6.333-8.332,16.334-14,24.667-17s26.666-3.666,30.333-5.332
		c3.667-1.668,36.001-7.666,51.667-49.334c15.666-41.666-18.666-70.666-17-70.666s-20.666-19.333-53-23s-36-1.667-36-1.667
		s-12.668-47.333-52.334-59s-72.666-3.667-72.666-2.667s-3.666,3.667-4,5S357.752,202.825,357.752,202.825z"/>
	<path d="M357.752,202.825l0.09,78.041l0.031,19.51c-0.077,3.257,0.226,6.48,0.431,9.732l0.648,9.734l0.648,9.733
		c0.291,3.221,0.652,6.466,1.07,9.679l0.181,1.196c0.035,0.192,0.072,0.402,0.12,0.56c-0.011-0.004,0.047,0.083-0.025-0.022
		c0.037,0.039-0.006-0.024-0.021-0.022l0.12,0.045l0.279,0.086c0.769,0.215,1.563,0.39,2.354,0.56
		c1.585,0.337,3.181,0.632,4.78,0.905c3.2,0.544,6.417,0.992,9.642,1.365c12.893,1.464,25.966,1.807,38.837,0.241
		c6.426-0.793,12.799-2.084,18.924-4.128c6.113-2.042,11.993-4.864,17.108-8.738c2.574-1.899,4.823-4.205,7.184-6.459
		c2.335-2.258,4.654-4.53,6.937-6.835c4.533-4.623,9.074-9.304,12.753-14.529c1.832-2.617,3.304-5.414,4.38-8.413
		c1.086-2.994,1.943-6.144,2.96-9.254c1.002-3.127,2.15-6.171,3.148-9.238c0.248-0.762,0.501-1.539,0.7-2.271
		c0.045-0.16,0.099-0.403,0.096-0.411c0,0.026-0.009,0.011,0.003,0.162c-0.743-0.012,1.515,1.445,1.684,0.753
		c0.195-0.149,0.166-0.154,0.19-0.173c0.012-0.015,0.009-0.011,0.005-0.005l-0.103,0.178c-0.167,0.311-0.34,0.675-0.506,1.032
		c-0.666,1.446-1.304,2.945-1.927,4.431l-1.068-1.592l25.939-0.416l6.487-0.091l1.627-0.018c0.263-0.003,0.579-0.004,0.909,0.02
		c0.308,0.02,0.598,0.052,0.886,0.088c1.146,0.148,2.229,0.367,3.311,0.602c4.3,0.97,8.468,2.198,12.62,3.609
		c1.036,0.357,2.07,0.73,3.105,1.141c0.519,0.206,1.037,0.422,1.563,0.662c0.544,0.268,1.02,0.452,1.723,0.978l0.365,0.323
		l0.205,0.153c0.178,0.132,0.391,0.271,0.603,0.411l1.352,0.857c0.924,0.583,1.86,1.194,2.771,1.852
		c3.657,2.594,6.923,6.047,8.96,10.212c1.958,4.127,3.162,8.363,4.124,12.684c0.466,2.16,0.844,4.341,1.106,6.55
		c0.254,2.213,0.42,4.442,0.297,6.771c-0.079,1.171-0.189,2.353-0.65,3.677c-0.108,0.312-0.304,0.728-0.455,0.989l-0.152,0.287
		l-0.139,0.297c-0.18,0.41-0.344,0.866-0.498,1.348c-0.607,1.94-1.157,4.158-2,6.279c-1.635,4.3-4.423,8.181-7.754,11.259
		c-0.837,0.777-1.684,1.509-2.588,2.22c-0.831,0.652-1.748,1.36-2.647,1.999c-1.802,1.304-3.679,2.512-5.62,3.622
		c-3.883,2.214-8.054,3.995-12.418,5.15c-4.358,1.171-8.895,1.696-13.402,1.614c-1.126-0.028-2.253-0.073-3.373-0.176
		c-1.102-0.1-1.938-0.135-2.959-0.082c-1.97,0.098-3.984,0.45-5.982,0.945c-4.001,1.002-7.941,2.544-11.762,4.323
		c-3.816,1.791-7.552,3.838-11.05,6.131c-0.87,0.574-1.726,1.168-2.523,1.777c-0.397,0.304-0.783,0.614-1.118,0.915
		c-0.16,0.146-0.324,0.299-0.423,0.411c-0.048,0.051-0.101,0.113-0.088,0.103c-0.015,0.016,0.019-0.023,0.043-0.073
		c-0.016,0.084,0.197-0.5,0.064-0.137c0,0.007-0.073,0.21-0.184,0.436c-0.095,0.186-0.136,0.246-0.206,0.366
		c-0.119,0.189-0.231,0.35-0.339,0.494c-0.216,0.289-0.414,0.523-0.613,0.756c-0.396,0.457-0.781,0.869-1.164,1.274l-2.268,2.351
		c-2.988,3.078-5.84,6.198-8.396,9.532c-2.555,3.324-4.818,6.843-6.562,10.563c-0.888,1.854-1.552,3.75-2.271,5.815
		c-0.705,2.022-1.404,4.048-1.998,6.04c-0.295,0.995-0.558,1.977-0.75,2.932c-0.194,0.955-0.305,1.895-0.395,2.946
		c-0.165,2.12-0.384,4.402-0.7,6.575c-0.155,1.096-0.325,2.184-0.508,3.266c-0.18,1.04-0.306,2.012-0.415,3.063
		c-0.215,2.073-0.341,4.192-0.431,6.318c-0.328,8.523-0.159,17.15,0.104,25.755c0.14,4.305,0.319,8.611,0.534,12.914l0.17,3.226
		l0.046,0.805l0.022,0.401l0.013,0.198l0.008,0.318l0.021,1.621l0.086,6.484l0.169,12.969l0.067,6.323
		c0.165,2.098,0.382,4.232,0.644,6.33c0.266,2.098,0.574,4.193,1.002,6.182c0.213,0.981,0.467,1.97,0.765,2.737
		c0.204,0.588,0.757,1.362,1.329,2.074c2.364,2.876,5.838,5.065,9.213,5.146c0.422,0.009,0.843-0.002,1.261-0.057l0.299-0.036
		l0.399-0.063l0.707-0.128c0.946-0.192,1.855-0.439,2.698-0.771c1.692-0.657,3.106-1.653,4.284-3.025
		c1.181-1.365,2.126-3.073,2.908-4.913c0.379-0.922,0.796-1.919,0.969-2.681c0.221-0.898,0.385-1.91,0.522-2.928
		c0.527-4.113,0.722-8.419,0.873-12.693c0.141-4.286,0.194-8.59,0.206-12.896c0.016-4.306-0.006-8.616-0.063-12.927l-0.112-6.464
		l-0.037-1.613l-0.027-0.764l-0.036-0.816l-0.123-3.258c-0.289-8.681-0.403-17.361-0.211-26.066
		c0.104-4.353,0.284-8.71,0.641-13.082c0.181-2.187,0.406-4.376,0.722-6.576c0.323-2.201,0.709-4.405,1.381-6.66
		c0.349-1.13,0.744-2.271,1.457-3.473c0.168-0.284,0.418-0.642,0.609-0.877l0.501-0.637c0.373-0.453,0.748-0.907,1.123-1.327
		c1.506-1.709,3.146-3.278,4.872-4.729c3.457-2.896,7.249-5.315,11.222-7.335c1.988-1.009,4.021-1.922,6.102-2.725
		c1.039-0.397,2.073-0.788,3.218-1.12c1.104-0.323,2.197-0.581,3.289-0.814c4.363-0.906,8.69-1.421,12.998-1.934l6.421-0.76
		c1.06-0.136,2.114-0.279,3.144-0.448c1.005-0.168,2.087-0.372,2.81-0.636c0.051-0.018,0.569-0.241,0.804-0.313l0.817-0.269
		l1.55-0.485c1.02-0.321,2.024-0.651,3.022-1.003c1.994-0.701,3.956-1.484,5.879-2.356c7.694-3.475,14.736-8.378,20.698-14.386
		c5.975-6.002,10.86-13.073,14.657-20.689c1.892-3.815,3.57-7.748,4.912-11.776c1.323-4.024,2.253-8.176,2.718-12.382
		c0.952-8.415-0.047-17.018-2.738-25.078c-2.676-8.077-6.947-15.603-12.168-22.37c-1.306-1.698-2.674-3.337-4.082-4.977
		c-0.354-0.417-0.702-0.815-1.068-1.292c-0.097-0.133-0.181-0.227-0.318-0.486c-0.184,0.388-0.22-1.361,0.593-1.456
		c0.272-0.394-1.169,1.376-0.538,1.064c0.063,0.127-0.022-0.025-0.07-0.077c-0.069-0.082-0.142-0.167-0.226-0.256
		c-0.679-0.712-1.502-1.411-2.32-2.074c-3.317-2.657-6.938-4.992-10.654-7.124c-7.454-4.246-15.426-7.609-23.685-9.967
		c-4.132-1.172-8.336-2.098-12.587-2.725c-4.248-0.595-8.567-1.038-12.855-1.483c-4.297-0.428-8.599-0.802-12.905-1.043
		c-2.153-0.118-4.308-0.205-6.458-0.215c-1.075-0.004-2.15,0.01-3.219,0.065c-0.533,0.028-1.065,0.066-1.592,0.125
		c-0.263,0.03-0.523,0.065-0.778,0.109c-0.233,0.038-0.552,0.116-0.666,0.162l-0.44,0.176l-0.121-0.417
		c-2.036-6.989-4.952-13.76-8.388-20.203c-3.463-6.437-7.56-12.549-12.375-18.055c-4.812-5.5-10.365-10.382-16.61-14.2
		c-3.118-1.91-6.402-3.551-9.811-4.883c-3.404-1.344-6.949-2.3-10.495-3.216c-14.207-3.595-28.928-5.172-43.579-4.66
		c-3.662,0.133-7.32,0.399-10.96,0.831c-3.635,0.448-7.273,0.99-10.807,1.963c-0.438,0.13-0.879,0.263-1.293,0.452
		c-0.1,0.049-0.212,0.102-0.273,0.18c-0.021,0.085-0.034,0.228-0.091,0.326c-0.098,0.212-0.238,0.397-0.38,0.578
		c-0.586,0.71-1.261,1.333-1.901,1.988c-0.613,0.663-1.346,1.292-1.651,2.156c-0.179,0.897-0.281,1.81-0.404,2.717
		C358.563,195.537,358.156,199.181,357.752,202.825z M357.752,202.825c0.395-3.645,0.794-7.29,1.247-10.928
		c0.121-0.909,0.222-1.82,0.398-2.722c0.127-0.451,0.431-0.816,0.72-1.167c0.297-0.351,0.615-0.681,0.937-1.008
		c0.639-0.656,1.312-1.282,1.893-1.989c0.141-0.179,0.279-0.363,0.373-0.569c0.058-0.105,0.058-0.2,0.093-0.331
		c0.082-0.102,0.19-0.145,0.293-0.198c0.42-0.192,0.859-0.326,1.299-0.458c3.538-0.983,7.176-1.533,10.812-1.99
		c3.642-0.44,7.302-0.715,10.966-0.857c14.66-0.547,29.398,0.998,43.633,4.564c3.549,0.915,7.106,1.85,10.538,3.175
		c3.431,1.314,6.742,2.941,9.89,4.839c6.303,3.794,11.923,8.667,16.799,14.165c4.88,5.505,9.041,11.624,12.567,18.073
		c3.502,6.467,6.471,13.22,8.585,20.301l-0.561-0.241c0.384-0.165,0.603-0.185,0.897-0.25c0.277-0.052,0.552-0.092,0.825-0.126
		c0.548-0.068,1.094-0.113,1.639-0.148c1.091-0.069,2.178-0.095,3.265-0.103c2.172-0.014,4.34,0.049,6.505,0.144
		c4.329,0.193,8.647,0.52,12.96,0.9c4.315,0.399,8.605,0.789,12.927,1.344c4.312,0.586,8.58,1.476,12.779,2.615
		c8.396,2.294,16.512,5.61,24.132,9.837c3.805,2.127,7.502,4.448,10.968,7.158c0.866,0.69,1.709,1.378,2.533,2.221
		c0.103,0.106,0.208,0.225,0.313,0.349c0.115,0.162,0.207,0.218,0.374,0.597c0.695-0.197-0.764,1.767-0.667,1.357
		c0.627-0.099,0.666-1.627,0.541-1.144l0.135,0.185c0.297,0.377,0.663,0.791,1.014,1.194c1.427,1.624,2.849,3.289,4.198,5.004
		c5.409,6.851,9.892,14.525,12.756,22.851c2.88,8.306,4.031,17.267,3.136,26.061c-0.436,4.395-1.356,8.736-2.687,12.94
		c-1.344,4.191-3.023,8.251-4.927,12.202c-3.824,7.895-8.806,15.295-14.969,21.629c-6.148,6.339-13.471,11.566-21.498,15.301
		c-2.005,0.937-4.053,1.781-6.128,2.537c-1.037,0.379-2.082,0.735-3.121,1.075l-1.538,0.501l-0.721,0.246
		c-0.278,0.1-0.253,0.099-0.702,0.285c-1.312,0.48-2.372,0.648-3.491,0.861c-1.102,0.194-2.188,0.354-3.271,0.505l-6.45,0.838
		c-4.27,0.555-8.533,1.118-12.63,2.021c-1.02,0.229-2.027,0.48-2.996,0.776c-0.93,0.277-1.917,0.659-2.892,1.046
		c-1.945,0.776-3.851,1.658-5.707,2.626c-3.711,1.939-7.227,4.246-10.369,6.941c-1.569,1.348-3.043,2.795-4.381,4.343
		c-0.342,0.39-0.651,0.771-0.965,1.154l-0.497,0.641c-0.146,0.186-0.203,0.274-0.312,0.455c-0.392,0.66-0.732,1.571-1.007,2.507
		c-1.082,3.835-1.508,8.138-1.85,12.357c-0.317,4.249-0.468,8.536-0.539,12.827c-0.133,8.586,0.038,17.204,0.383,25.805l0.145,3.221
		l0.04,0.803l0.036,0.856l0.05,1.628l0.157,6.503c0.085,4.335,0.142,8.671,0.146,13.012c-0.002,4.341-0.046,8.685-0.178,13.041
		c-0.148,4.364-0.324,8.71-0.884,13.178c-0.15,1.124-0.322,2.25-0.613,3.453c-0.133,0.576-0.383,1.341-0.57,1.813
		c-0.198,0.537-0.41,1.073-0.638,1.607c-0.905,2.131-2.043,4.274-3.688,6.193c-1.622,1.927-3.844,3.498-6.188,4.396
		c-1.169,0.463-2.354,0.782-3.524,1.022l-0.889,0.163l-0.4,0.064l-0.505,0.066c-0.655,0.084-1.317,0.106-1.975,0.092
		c-2.648-0.065-5.16-0.927-7.309-2.166c-2.159-1.252-4.013-2.855-5.585-4.754c-0.766-0.973-1.541-1.951-2.111-3.392
		c-0.481-1.25-0.749-2.368-1.003-3.494c-0.485-2.238-0.808-4.425-1.091-6.614c-0.278-2.192-0.504-4.359-0.684-6.571l-0.097-6.646
		l-0.145-12.969l-0.07-6.484l-0.018-1.622l-0.079-1.515l-0.163-3.251c-0.207-4.333-0.378-8.666-0.509-13.004
		c-0.244-8.678-0.398-17.354-0.042-26.114c0.098-2.193,0.231-4.391,0.467-6.618c0.116-1.098,0.271-2.271,0.464-3.36
		c0.179-1.049,0.346-2.097,0.496-3.142c0.309-2.105,0.508-4.128,0.686-6.317c0.095-1.102,0.237-2.312,0.479-3.476
		c0.237-1.164,0.54-2.271,0.86-3.348c0.646-2.15,1.365-4.211,2.1-6.265c0.715-2.011,1.498-4.197,2.494-6.24
		c1.956-4.101,4.433-7.875,7.166-11.385c2.731-3.513,5.749-6.765,8.803-9.867l2.25-2.302c0.362-0.377,0.717-0.754,1.031-1.112
		c0.153-0.177,0.305-0.354,0.413-0.499l0.122-0.172c-0.002,0.004,0.028-0.051-0.005,0.015c-0.051,0.104-0.065,0.186-0.025,0.063
		c-0.082,0.237,0.17-0.478,0.225-0.509c0.092-0.167,0.193-0.322,0.264-0.413c0.167-0.232,0.296-0.371,0.431-0.519
		c0.265-0.287,0.501-0.5,0.741-0.717c0.474-0.417,0.934-0.779,1.397-1.13c0.924-0.696,1.852-1.328,2.79-1.938
		c3.75-2.421,7.633-4.511,11.654-6.368c4.025-1.839,8.185-3.445,12.582-4.519c2.201-0.528,4.466-0.919,6.817-1.02
		c1.139-0.062,2.467,0.008,3.518,0.115c1.032,0.103,2.065,0.158,3.1,0.195c4.135,0.12,8.276-0.311,12.282-1.34
		c8.004-2.016,15.499-6.4,21.745-11.832c3.038-2.758,5.456-6.055,6.951-9.835c0.778-1.894,1.292-3.877,1.995-6.055
		c0.183-0.545,0.388-1.106,0.648-1.684l0.21-0.436l0.231-0.427c0.119-0.206,0.151-0.282,0.229-0.479
		c0.269-0.716,0.412-1.706,0.479-2.687c0.223-4.018-0.374-8.298-1.193-12.42c-0.859-4.119-2.015-8.268-3.729-11.979
		c-1.737-3.646-4.541-6.717-7.891-9.156c-0.836-0.618-1.704-1.199-2.602-1.78l-1.377-0.895c-0.237-0.161-0.475-0.32-0.729-0.512
		c-0.114-0.082-0.279-0.215-0.434-0.347l-0.158-0.145c-0.069-0.064-0.096-0.09-0.079-0.074c-0.157-0.132-0.67-0.408-1.098-0.607
		c-0.455-0.215-0.933-0.42-1.416-0.619c-0.97-0.396-1.966-0.769-2.968-1.128c-4.018-1.417-8.144-2.681-12.269-3.659
		c-1.028-0.236-2.064-0.455-3.062-0.594c-0.247-0.034-0.493-0.064-0.726-0.081c-0.209-0.018-0.434-0.023-0.711-0.022l-1.616-0.001
		l-6.481,0.019l-25.938,0.125l-1.761,0.008l0.692-1.601c0.651-1.506,1.303-2.993,2.014-4.492c0.182-0.378,0.359-0.747,0.581-1.15
		c0.06-0.105,0.114-0.205,0.209-0.346l0.094-0.129c0.056-0.058,0.06-0.103,0.296-0.282c0.215-0.741,2.527,0.773,1.777,0.813
		c0.019,0.202,0.004,0.238,0.001,0.314c-0.054,0.396-0.111,0.546-0.17,0.779c-0.238,0.834-0.499,1.601-0.763,2.381
		c-1.051,3.106-2.233,6.138-3.249,9.193c-1.04,3.059-1.924,6.183-3.09,9.292c-1.154,3.114-2.771,6.103-4.701,8.791
		c-3.883,5.379-8.505,10.019-13.116,14.622c-2.32,2.29-4.672,4.544-7.038,6.78l-3.567,3.342c-1.217,1.118-2.494,2.169-3.822,3.147
		c-5.313,3.93-11.354,6.737-17.583,8.742c-6.243,2.005-12.697,3.234-19.183,3.962c-6.49,0.724-13.022,0.938-19.538,0.812
		c-6.517-0.125-13.021-0.604-19.488-1.392c-3.232-0.396-6.456-0.868-9.664-1.436c-1.604-0.284-3.203-0.592-4.797-0.941
		c-0.797-0.178-1.59-0.356-2.386-0.585l-0.304-0.096l-0.164-0.064c-0.061-0.022-0.152-0.103-0.149-0.103
		c-0.097-0.15-0.056-0.111-0.081-0.163c-0.068-0.233-0.097-0.426-0.134-0.633l-0.177-1.216c-0.398-3.239-0.735-6.462-1.007-9.719
		l-0.583-9.737l-0.584-9.738c-0.182-3.238-0.465-6.5-0.365-9.752l0.031-19.51L357.752,202.825z"/>
</g>
<g>
	<path fill="#E6B3C9" d="M322.542,149.758l66.333-68c0,0,20-30,0-55s-44.334-25-45-24s-12-1.667-23,6.333s-11,8-11,8
		s-4.077,6.666-10.872-2.667c-6.794-9.333-30.128-12.278-32.794-11.972s-30.667,5.306-40,20.639s-14,28-7.333,47
		s37.333,43.666,39.667,46.333s34.333,33.334,34.333,33.334s11.084,11.667,13.875,11.333S320.88,151.462,322.542,149.758z"/>
	<path d="M322.542,149.758c11.007-11.38,22.084-22.693,33.034-34.129l16.442-17.137l16.354-17.225l-0.082,0.101
		c3.148-5.228,5.473-11.058,6.916-17c1.426-5.954,1.875-12.15,0.923-18.13c-0.93-5.979-3.323-11.666-6.878-16.521
		c-3.646-4.836-7.974-9.252-12.747-12.996c-4.781-3.742-10.073-6.812-15.697-8.96c-2.81-1.073-5.703-1.912-8.624-2.476
		c-1.458-0.283-2.927-0.494-4.373-0.599c-0.72-0.052-1.44-0.076-2.107-0.054c-0.328,0.011-0.66,0.038-0.874,0.074
		c-0.035,0.007-0.102,0.02-0.078,0.017c-0.008,0.001,0.009-0.002,0.072-0.023c-0.003,0,0.196-0.075,0.337-0.18
		c0.087-0.057,0.217-0.159,0.309-0.257c0.011,0.017,0.381-0.478,0.059-0.066l-0.024,0.028c0.02-0.022-0.025,0.035-0.156,0.162
		c-0.524,0.452-0.66,0.437-0.85,0.536c-0.354,0.135-0.521,0.155-0.719,0.196c-0.664,0.103-1.049,0.099-1.481,0.118l-1.191,0.027
		c-0.771,0.015-1.517,0.037-2.26,0.079c-1.482,0.082-2.939,0.239-4.374,0.493c-2.868,0.505-5.636,1.406-8.196,2.714
		c-1.28,0.653-2.509,1.405-3.677,2.246l-3.747,2.74l-7.546,5.521l0.644-0.697c-0.236,0.37-0.358,0.514-0.544,0.746
		c-0.173,0.208-0.353,0.405-0.543,0.594c-0.38,0.378-0.804,0.727-1.279,1.034c-0.939,0.616-2.129,1.045-3.344,1.099
		c-1.216,0.063-2.371-0.228-3.328-0.655c-0.967-0.429-1.771-0.984-2.489-1.568c-0.711-0.589-1.337-1.215-1.908-1.857
		c-0.288-0.321-0.557-0.648-0.822-0.977l-0.72-0.942c-0.762-1.018-1.692-1.87-2.78-2.682c-2.171-1.604-4.782-2.84-7.47-3.899
		c-2.703-1.046-5.531-1.886-8.401-2.572c-2.869-0.683-5.798-1.228-8.7-1.583c-0.722-0.087-1.447-0.161-2.134-0.205
		c-0.335-0.021-0.689-0.035-0.92-0.03c-0.05,0-0.104,0.006-0.063,0l-0.245,0.031l-0.508,0.077c-1.418,0.231-2.881,0.531-4.323,0.858
		c-5.778,1.341-11.489,3.123-16.86,5.532c-5.338,2.422-10.437,5.511-14.204,9.71c-0.933,1.061-1.761,2.146-2.497,3.364
		c-0.795,1.284-1.575,2.557-2.329,3.852c-1.505,2.584-2.906,5.211-4.106,7.908c-2.42,5.378-3.94,11.101-4.019,16.949
		c-0.109,5.835,1.144,11.74,3.113,17.315c2.063,5.468,5.469,10.519,9.116,15.285c3.687,4.768,7.747,9.273,11.967,13.624
		c4.223,4.352,8.627,8.534,13.106,12.647l3.358,3.11c0.279,0.269,0.554,0.529,0.838,0.84c0.251,0.292,0.496,0.551,0.759,0.83
		l1.581,1.635l6.429,6.476l26.056,25.593c2.122,2.179,4.294,4.311,6.567,6.331c1.14,1.005,2.303,1.988,3.542,2.865
		c0.621,0.433,1.26,0.851,1.954,1.144c0.347,0.134,0.715,0.259,1.08,0.175c0.36-0.076,0.714-0.226,1.056-0.383
		c2.708-1.376,5.141-3.243,7.573-5.06C317.914,153.71,320.317,151.833,322.542,149.758z M322.542,149.758
		c-2.215,2.088-4.606,3.979-7.002,5.854c-2.425,1.833-4.842,3.711-7.561,5.113c-0.347,0.162-0.697,0.315-1.083,0.398
		c-0.392,0.09-0.788-0.041-1.141-0.176c-0.712-0.296-1.357-0.714-1.985-1.146c-1.251-0.875-2.421-1.854-3.57-2.854
		c-2.289-2.01-4.476-4.132-6.613-6.302l-26.475-25.155l-6.614-6.303l-1.638-1.603c-0.267-0.267-0.553-0.554-0.805-0.832
		c-0.236-0.244-0.52-0.502-0.795-0.753l-3.426-3c-4.6-3.995-9.143-8.075-13.52-12.341c-4.374-4.267-8.605-8.703-12.501-13.462
		c-3.857-4.776-7.52-9.829-9.94-15.715c-2.24-5.823-3.741-11.982-3.81-18.346c-0.098-6.353,1.408-12.685,3.822-18.459
		c1.196-2.899,2.589-5.691,4.072-8.409c0.743-1.355,1.507-2.705,2.291-4.023c0.815-1.402,1.813-2.767,2.872-4.006
		c4.326-4.965,9.86-8.37,15.515-11.062c5.694-2.676,11.636-4.632,17.708-6.053c1.524-0.354,3.042-0.676,4.625-0.943l0.62-0.097
		l0.321-0.043c0.231-0.025,0.366-0.031,0.506-0.036c0.53-0.014,0.937,0.007,1.361,0.03c0.832,0.048,1.622,0.126,2.411,0.216
		c3.142,0.367,6.209,0.921,9.266,1.629c3.052,0.713,6.08,1.588,9.061,2.722c2.976,1.142,5.915,2.548,8.645,4.571
		c1.347,1.008,2.68,2.239,3.738,3.666l0.66,0.875c0.212,0.265,0.425,0.527,0.644,0.774c0.436,0.498,0.89,0.95,1.349,1.335
		c2,1.618,3.124,1.391,4.251,0l0.455-0.561l0.188-0.136l7.577-5.478l3.819-2.751c1.377-0.958,2.828-1.813,4.337-2.551
		c3.017-1.479,6.261-2.47,9.539-2.991c1.639-0.262,3.288-0.411,4.919-0.474c0.814-0.032,1.626-0.042,2.414-0.045l1.146-0.006
		c0.346-0.003,0.742-0.021,0.849-0.039l-0.153,0.051c-0.1,0.062-0.146,0.006-0.595,0.396c-0.109,0.114-0.137,0.155-0.103,0.113
		l0.024-0.027c-0.306,0.395,0.082-0.116,0.11-0.117c0.11-0.114,0.257-0.234,0.362-0.306c0.227-0.151,0.51-0.276,0.602-0.303
		c0.153-0.057,0.265-0.087,0.351-0.108c0.212-0.056,0.339-0.073,0.495-0.1c0.557-0.081,1.003-0.098,1.454-0.108
		c0.891-0.014,1.729,0.032,2.562,0.104c1.66,0.149,3.277,0.412,4.873,0.748c3.187,0.686,6.272,1.693,9.254,2.921
		c5.961,2.468,11.477,5.885,16.399,9.961c4.92,4.09,9.271,8.775,12.983,13.997c3.668,5.307,6.07,11.503,6.878,17.876
		c0.833,6.378,0.168,12.841-1.474,18.951c-1.676,6.119-4.178,11.946-7.609,17.307l-0.034,0.054l-0.048,0.047l-16.813,16.775
		l-16.724,16.863C344.681,127.118,333.646,138.472,322.542,149.758z"/>
</g>
</svg>
