<?xml version="1.0" encoding="utf-8"?>
<!-- Generator: Adobe Illustrator 15.0.2, SVG Export Plug-In  -->
<!DOCTYPE svg PUBLIC "-//W3C//DTD SVG 1.1//EN" "http://www.w3.org/Graphics/SVG/1.1/DTD/svg11.dtd" [
	<!ENTITY ns_flows "http://ns.adobe.com/Flows/1.0/">
]>
<svg version="1.1"
	 xmlns="http://www.w3.org/2000/svg" xmlns:xlink="http://www.w3.org/1999/xlink" xmlns:a="http://ns.adobe.com/AdobeSVGViewerExtensions/3.0/"
	 x="0px" y="0px" width="245px" height="600px" viewBox="-14.829 -22.577 245 600"
	 overflow="visible" enable-background="new -14.829 -22.577 245 600" xml:space="preserve">
<defs>
</defs>
<path fill-rule="evenodd" clip-rule="evenodd" d="M133.15,62.45c-7.666,0-15.331,0-22.997,0
	c-2.075-17.74,13.001-18.328,16.998-29.996c-1.641-8.11-12.29-1.806-15.998,0c-3.65-5.349-7.611-10.387-11.998-14.998
	c15.204-20.818,61.766-9.586,50.993,20.997c-2.729,7.747-11.185,10.376-16.998,16.998C133.15,57.784,133.15,60.117,133.15,62.45z"/>
<path fill-rule="evenodd" clip-rule="evenodd" d="M111.153,69.45c6.666,0,13.332,0,19.997,0c0,6.666,0,13.332,0,19.998
	c-6.665,0-13.331,0-19.997,0C111.153,82.781,111.153,76.115,111.153,69.45z"/>
<path fill-rule="evenodd" clip-rule="evenodd" d="M186.144,247.427c15.266,15.093,28.699,46.651,18.998,74.991
	c-3.139,9.168-10.789,15.152-14.998,22.997c12.023,46.683,9.732,121.205-4,168.979c-4.916,17.104-11.137,46.042-34.995,42.995
	c-26.052-3.328-19.415-60.689-52.993-57.993c-3.091,22.735,4.509,53.482-15.998,56.993c-30.195,5.17-43.026-42.69-48.994-67.991
	c-6.021-25.528-8.256-48.417-9.999-76.99c-0.536-8.794,0.826-19.195-1-27.997c-2.219-10.698-10.636-14.406-11.998-24.997
	c-4.808-37.367,12.153-69.51,27.996-88.989c2.166-2.663,15.896-14.062,15.998-15.998c0.068-1.289-8.019-9.597-8.999-10.999
	c-2.889-4.132-6.462-8.873-7.999-11.999C5.892,166.81,55.493,94.676,128.151,101.445c54.222,5.052,97.163,66.026,71.991,123.985
	C197.462,231.601,191.532,239.852,186.144,247.427z M188.144,189.435c-0.336-41.579-33.756-75.51-80.99-69.991
	c-55.495,6.484-83.391,88.529-33.995,123.984c17.639-17.216,41.326,2.928,48.994,16.998
	C161.564,254.23,188.461,228.645,188.144,189.435z M137.15,305.42c-8.505-0.764-17.692-18.322-22.997-24.997
	c-8.302-10.444-13.322-19.182-23.997-23.997c-0.667,0-1.333,0-2,0c-1.065,3.187-1.934,7.423-2,10.999
	c-0.673,36.088,18.477,74.99,49.994,77.99c45.087,4.292,69.67-48.082,40.995-79.99C171.118,278.472,151.337,306.694,137.15,305.42z
	 M29.163,358.413c8.831,30.781,57.53,19.241,78.99,5c-12.148-5.517-19.194-16.135-27.996-24.997
	c-11.725,4.37-41.327,12.513-37.995-5.999c2.021-11.227,22.431-8.961,25.996-20.998c-3.507-12.156-5.747-25.582-7.999-38.995
	C46.274,287.826,19.89,326.086,29.163,358.413z M135.15,278.424c2.569,0.096,1.43,3.902,3.999,3.999
	c2.313-3.02,6.262-4.403,7.999-7.999C142.985,275.593,137.307,275.247,135.15,278.424z M137.15,363.413
	c-20.829,20.235-56.333,35.099-95.988,29.996c-0.715,43.236,6.82,85.342,17.998,116.985c3.57,10.109,6.828,23.893,17.997,25.997
	c4.32-17.163-6.629-42.531,2-53.994c8.29-11.012,38.094,1.182,45.994,7.999c14.603,12.603,20.853,33.939,27.997,46.994
	c6.84-2.313,8.51-11.305,10.998-17.997c15.942-42.872,17.312-108.793,8.999-161.98c-0.057-0.609-0.149-1.184-1-0.999
	C163.777,362.044,151.897,364.162,137.15,363.413z"/>
<path fill-rule="evenodd" clip-rule="evenodd" fill="#FFFFFF" d="M122.152,260.426c-7.668-14.07-31.355-34.214-48.994-16.998
	c-49.396-35.455-21.5-117.5,33.995-123.984c47.234-5.519,80.654,28.412,80.99,69.991
	C188.461,228.645,161.564,254.23,122.152,260.426z"/>
<path fill-rule="evenodd" clip-rule="evenodd" fill="#FFFFFF" d="M177.146,265.425c28.675,31.908,4.092,84.282-40.995,79.99
	c-31.518-3-50.667-41.902-49.994-77.99c0.066-3.575,0.935-7.812,2-10.999c0.667,0,1.333,0,2,0
	c10.675,4.815,15.695,13.553,23.997,23.997c5.305,6.675,14.492,24.233,22.997,24.997
	C151.337,306.694,171.118,278.472,177.146,265.425z"/>
<path fill-rule="evenodd" clip-rule="evenodd" fill="#FFFFFF" d="M60.159,272.424c2.252,13.413,4.492,26.838,7.999,38.995
	c-3.565,12.037-23.976,9.771-25.996,20.998c-3.332,18.512,26.271,10.369,37.995,5.999c8.802,8.862,15.848,19.48,27.996,24.997
	c-21.46,14.241-70.159,25.781-78.99-5C19.89,326.086,46.274,287.826,60.159,272.424z"/>
<path fill-rule="evenodd" clip-rule="evenodd" fill="#FFFFFF" d="M147.148,274.424c-1.737,3.596-5.686,4.979-7.999,7.999
	c-2.569-0.097-1.43-3.903-3.999-3.999C137.307,275.247,142.985,275.593,147.148,274.424z"/>
<path fill-rule="evenodd" clip-rule="evenodd" fill="#FFFFFF" d="M172.146,356.414c0.851-0.185,0.943,0.39,1,0.999
	c8.312,53.188,6.943,119.108-8.999,161.98c-2.488,6.692-4.158,15.684-10.998,17.997c-7.145-13.055-13.395-34.392-27.997-46.994
	c-7.9-6.817-37.704-19.011-45.994-7.999c-8.629,11.463,2.32,36.831-2,53.994c-11.169-2.104-14.427-15.888-17.997-25.997
	c-11.178-31.644-18.713-73.749-17.998-116.985c39.655,5.103,75.159-9.761,95.988-29.996
	C151.897,364.162,163.777,362.044,172.146,356.414z"/>
<g>
	<path fill="#E6B3C9" d="M92.171,11.756l13,15c0,0,4-4,7.667-4s6.334,1.667,7.667,4s-4,7-5.667,8s-9.369,7.334-9.185,8.667
		s-2.149,1.333-2.149,8s0,6.667,0,6.667h21.667c0,0,0.334-7.333,1.334-7.667s8.666-6.334,11.666-11.667s4.668-0.666,6.334-16.333
		s-26.666-25-37-19.667S96.837,6.089,92.171,11.756z"/>
	<path d="M92.171,11.756c2.309,2.377,4.636,4.737,6.913,7.143c2.294,2.39,4.572,4.793,6.832,7.212l-1.44-0.051
		c0.89-0.92,1.798-1.696,2.817-2.432c1.018-0.718,2.121-1.374,3.406-1.802c0.642-0.21,1.336-0.354,2.07-0.384
		c0.408-0.002,0.589-0.013,0.956,0.004c0.348,0.017,0.693,0.04,1.015,0.085c1.312,0.159,2.641,0.557,3.845,1.243
		c1.209,0.674,2.285,1.648,3.081,2.833l0.146,0.224l0.072,0.112l0.113,0.215c0.041,0.091,0.046,0.063,0.128,0.285
		c0.06,0.165,0.125,0.371,0.149,0.511c0.119,0.568,0.07,1.073-0.012,1.515c-0.178,0.891-0.522,1.54-0.869,2.154
		c-0.722,1.193-1.562,2.151-2.442,3.062c-0.903,0.906-1.777,1.718-2.931,2.527c-0.883,0.572-1.737,1.302-2.616,2.034
		c-0.868,0.736-1.726,1.495-2.555,2.268c-0.825,0.771-1.64,1.565-2.343,2.354c-0.336,0.378-0.695,0.812-0.816,1.033
		c-0.024,0.037-0.023,0.074,0.03-0.082c0.027-0.109,0.081-0.215,0.059-0.616l0.013,0.14l0.008,0.142l-0.002,0.232
		c-0.024,0.544-0.179,0.959-0.33,1.276c-0.153,0.309-0.287,0.501-0.392,0.658c-0.392,0.556-0.522,0.772-0.695,1.164
		c-0.158,0.362-0.279,0.785-0.375,1.243c-0.186,0.923-0.255,1.97-0.251,3.04l0.092,6.992l-2.342-2.343
		c3.611-0.063,7.222-0.062,10.833-0.083l10.833-0.049l-2.472,2.361c0.056-1.199,0.136-2.339,0.253-3.526
		c0.136-1.203,0.229-2.329,0.627-3.776c0.057-0.19,0.121-0.391,0.215-0.628c0.104-0.243,0.195-0.499,0.51-0.938
		c0.175-0.217,0.373-0.503,0.936-0.836c0.457-0.227,0.301-0.137,0.377-0.177c0.031-0.012,0.087-0.036,0.029-0.015
		c-0.196,0.091-0.019,0.006,0.038-0.037c0.351-0.221,0.789-0.54,1.201-0.854c0.838-0.637,1.672-1.331,2.482-2.042
		c1.618-1.427,3.165-2.949,4.521-4.549c0.675-0.8,1.304-1.622,1.827-2.449c0.146-0.219,0.233-0.385,0.392-0.648l0.244-0.412
		l0.276-0.433c0.375-0.569,0.821-1.142,1.318-1.66c0.494-0.52,1.027-0.959,1.354-1.258c0.329-0.307,0.491-0.484,0.678-0.772
		c0.365-0.565,0.691-1.506,0.946-2.49c0.513-1.999,0.845-4.206,1.144-6.398l0.211-1.656c0.069-0.547,0.103-0.956,0.106-1.43
		c0.003-0.928-0.12-1.853-0.373-2.759c-0.509-1.809-1.497-3.548-2.81-5.102c-2.646-3.12-6.371-5.503-10.312-7.255
		c-3.951-1.772-8.235-2.977-12.561-3.326c-2.155-0.167-4.34-0.139-6.392,0.343c-1.05,0.231-1.921,0.623-2.997,1.132
		c-1.039,0.472-2.087,0.927-3.151,1.345c-2.11,0.867-4.323,1.522-6.373,2.336C95.353,8.486,93.705,10.101,92.171,11.756z
		 M92.171,11.756c1.322-1.806,2.793-3.666,4.901-4.765c2.064-1.061,4.131-1.892,6.118-2.945c0.995-0.516,1.985-1.041,2.966-1.583
		c0.489-0.265,0.957-0.556,1.53-0.835c0.554-0.269,1.124-0.491,1.7-0.679c2.312-0.735,4.7-0.965,7.054-0.948
		c4.713,0.086,9.34,1.078,13.749,2.727c4.37,1.717,8.614,4.094,12.026,7.734c1.683,1.819,3.135,4.017,3.908,6.555
		c0.391,1.261,0.609,2.592,0.641,3.925c0.018,0.656-0.025,1.377-0.085,1.954l-0.17,1.713c-0.253,2.292-0.52,4.576-1.061,6.977
		c-0.293,1.201-0.611,2.459-1.406,3.843c-0.395,0.683-0.982,1.367-1.487,1.822c-0.506,0.465-0.844,0.75-1.125,1.055
		c-0.281,0.3-0.531,0.624-0.775,1.001l-0.178,0.283l-0.185,0.319c-0.132,0.223-0.313,0.554-0.479,0.807
		c-0.677,1.089-1.42,2.07-2.193,3.005c-1.552,1.863-3.226,3.532-4.981,5.111c-0.882,0.788-1.779,1.55-2.733,2.29
		c-0.485,0.374-0.954,0.73-1.556,1.12c-0.182,0.109-0.245,0.171-0.692,0.391l-0.164,0.073c0.012-0.012-0.21,0.106,0.183-0.092
		c0.438-0.263,0.542-0.44,0.633-0.545c0.147-0.212,0.121-0.208,0.12-0.188l-0.056,0.175c-0.195,0.736-0.358,1.868-0.471,2.908
		c-0.114,1.062-0.202,2.177-0.261,3.235l-0.132,2.373l-2.34-0.011l-10.833-0.049c-3.611-0.02-7.223-0.019-10.833-0.083l-2.375-0.042
		l0.033-2.301l0.1-7.051c0.033-1.268,0.139-2.569,0.451-3.935c0.163-0.682,0.378-1.387,0.708-2.089
		c0.301-0.681,0.831-1.44,1.129-1.828c0.062-0.084,0.091-0.136,0.069-0.089c-0.021,0.055-0.086,0.186-0.095,0.437
		c-0.002,0.041-0.001,0.083,0.002,0.123l0.006,0.06l-0.002-0.027c-0.001-0.023-0.008-0.103-0.004-0.079
		c-0.039-0.548,0.052-0.799,0.117-1.047c0.144-0.435,0.284-0.658,0.41-0.871c0.501-0.772,0.93-1.214,1.386-1.693
		c0.899-0.918,1.804-1.717,2.724-2.504c0.92-0.782,1.851-1.535,2.803-2.27c0.952-0.722,1.917-1.478,3.027-2.137
		c1.626-1.066,3.438-2.705,4.514-4.266c0.257-0.382,0.471-0.785,0.536-1.044c0.037-0.127,0.05-0.218,0.05-0.227
		c0.003-0.004,0.015,0.064,0.038,0.087c0.052,0.078-0.024-0.076-0.04-0.119l-0.021-0.05l-0.012-0.025
		c-0.055-0.106,0.069,0.13,0.055,0.103l-0.006-0.009l-0.042-0.075l-0.085-0.149c-0.46-0.792-1.117-1.483-1.921-2.001
		c-0.798-0.527-1.737-0.887-2.735-1.072c-0.255-0.053-0.492-0.082-0.729-0.111c-0.216-0.031-0.621-0.043-0.798-0.056
		c-0.436-0.01-0.905,0.046-1.384,0.171c-1.93,0.496-3.916,1.795-5.546,3.207l-0.825,0.714l-0.615-0.766
		c-2.074-2.58-4.129-5.177-6.168-7.787C96.201,17.019,94.195,14.379,92.171,11.756z"/>
</g>
<g>
	<rect x="105.171" y="64.089" fill="#E6B3C9" width="19" height="19.333"/>
	<path d="M105.171,64.089c0.279,1.611,0.492,3.222,0.694,4.833c0.206,1.611,0.355,3.222,0.535,4.833
		c0.282,3.223,0.563,6.445,0.738,9.667l-1.968-1.968c3.167-0.188,6.333-0.309,9.5-0.4c3.167-0.088,6.333-0.121,9.5-0.131
		l-2.499,2.499c0.007-3.222,0.04-6.444,0.13-9.667c0.092-3.222,0.221-6.444,0.412-9.667l1.957,1.957
		c-1.583-0.098-3.167-0.192-4.75-0.329l-4.75-0.41c-1.583-0.179-3.167-0.324-4.75-0.531
		C108.338,64.577,106.754,64.365,105.171,64.089z M105.171,64.089c1.583-0.276,3.167-0.487,4.75-0.688
		c1.583-0.207,3.167-0.352,4.75-0.531l4.75-0.41c1.583-0.136,3.167-0.23,4.75-0.329l1.833-0.114l0.124,2.07
		c0.191,3.222,0.32,6.444,0.412,9.667c0.09,3.223,0.123,6.445,0.13,9.667l0.006,2.507l-2.505-0.008
		c-3.167-0.01-6.333-0.043-9.5-0.131c-3.167-0.091-6.333-0.211-9.5-0.4l-2.068-0.124l0.1-1.845c0.175-3.222,0.457-6.444,0.738-9.667
		c0.181-1.611,0.329-3.222,0.536-4.833C104.679,67.312,104.892,65.701,105.171,64.089z"/>
</g>
<g>
	<path fill="#B3E0E0" d="M78.325,232.402c0,0-26.193,4.93-24.652,34.019c0,0,3.081,32.54,7.704,39.936
		c0,0,3.082,12.818,12.326,25.637c0,0,18.489,21.693,28.248,24.651c0,0,38.005,5.424,66.253-6.902c0,0,39.032-20.998,36.465-54.625
		c0,0,1.027-32.641-24.139-52.362c0,0-18.973-12.326-36.707,24.651c0,0-13.111,27.117-29.032-13.805
		C114.79,253.602,93.807,224.091,78.325,232.402z"/>
	<path d="M78.325,232.402c-6.988,1.832-13.381,5.895-17.746,11.515c-2.17,2.818-3.776,6.042-4.756,9.441
		c-0.989,3.4-1.378,6.956-1.321,10.497c0.015,0.869,0.053,1.811,0.124,2.618l0.327,2.684l0.716,5.365
		c0.498,3.573,1.063,7.136,1.659,10.687c0.603,3.549,1.267,7.086,2.078,10.565c0.408,1.737,0.853,3.463,1.375,5.138
		c0.524,1.651,1.127,3.353,1.923,4.615l0.119,0.189l0.076,0.274c0.592,2.158,1.392,4.409,2.247,6.564
		c0.866,2.168,1.82,4.303,2.851,6.397c2.068,4.187,4.475,8.2,7.229,11.942l-0.094-0.119c2.04,2.318,4.182,4.622,6.344,6.863
		c2.169,2.242,4.383,4.438,6.657,6.55c2.275,2.108,4.607,4.146,7.02,6.004c1.208,0.924,2.439,1.801,3.693,2.567
		c1.247,0.762,2.542,1.431,3.738,1.792l-0.325-0.072c5.396,0.657,10.999,0.959,16.517,1.039c5.537,0.07,11.075-0.115,16.574-0.606
		c5.497-0.489,10.963-1.254,16.315-2.447c5.349-1.192,10.594-2.796,15.556-4.971l-0.181,0.088c2.328-1.308,4.739-2.894,7.007-4.512
		c2.285-1.634,4.5-3.369,6.628-5.197c4.247-3.663,8.178-7.685,11.538-12.104c3.352-4.419,6.117-9.26,7.902-14.423
		c1.795-5.154,2.554-10.624,2.144-16.045l-0.008-0.105l0.002-0.154c0.031-2.23-0.144-4.718-0.41-7.078
		c-0.275-2.389-0.665-4.768-1.154-7.125c-0.986-4.713-2.417-9.334-4.324-13.74c-3.789-8.817-9.614-16.742-17.141-22.678l0.152,0.109
		c-0.053-0.035-0.28-0.165-0.441-0.245l-0.556-0.265c-0.382-0.169-0.779-0.323-1.186-0.457c-0.812-0.27-1.656-0.465-2.513-0.588
		c-1.713-0.245-3.475-0.188-5.199,0.152c-3.463,0.674-6.734,2.476-9.599,4.83c-2.875,2.362-5.388,5.248-7.622,8.35
		c-2.236,3.108-4.197,6.444-5.997,9.876c-0.474,0.878-0.82,1.672-1.393,2.683c-0.53,0.917-1.108,1.786-1.744,2.625
		c-1.271,1.669-2.758,3.237-4.629,4.444c-1.84,1.208-4.231,1.961-6.575,1.637c-2.342-0.301-4.348-1.482-5.962-2.846
		c-3.236-2.792-5.39-6.298-7.275-9.827c-1.864-3.555-3.394-7.235-4.768-10.957l0.109,0.203c-2.133-3.029-4.519-5.964-7.028-8.737
		c-2.521-2.772-5.208-5.402-8.134-7.736c-2.928-2.315-6.105-4.378-9.627-5.629c-1.759-0.61-3.613-0.99-5.486-0.964
		C81.883,231.093,80.011,231.546,78.325,232.402z M78.325,232.402c1.641-0.938,3.51-1.494,5.418-1.604
		c1.909-0.122,3.832,0.173,5.667,0.71c3.687,1.087,7.018,3.091,10.085,5.341c3.07,2.269,5.898,4.841,8.562,7.562
		c2.661,2.734,5.161,5.583,7.495,8.65l0.057,0.074l0.053,0.128c1.487,3.615,3.123,7.168,5.045,10.524
		c0.962,1.675,2,3.299,3.145,4.813c1.14,1.514,2.396,2.93,3.809,4.059c1.405,1.128,2.99,1.945,4.591,2.099
		c1.597,0.169,3.19-0.35,4.61-1.323c1.424-0.968,2.671-2.324,3.738-3.813c0.533-0.745,1.027-1.533,1.462-2.333
		c0.386-0.71,0.82-1.729,1.258-2.596c1.753-3.597,3.732-7.106,6.034-10.44c2.304-3.327,4.937-6.495,8.103-9.203
		c3.152-2.689,6.929-4.927,11.213-5.854c2.13-0.462,4.358-0.584,6.552-0.313c1.097,0.135,2.183,0.365,3.247,0.694
		c0.532,0.165,1.059,0.355,1.581,0.575c0.262,0.11,0.521,0.228,0.783,0.358c0.278,0.141,0.485,0.244,0.851,0.47l0.059,0.037
		l0.094,0.072c4.071,3.15,7.733,6.839,10.871,10.924c3.14,4.084,5.756,8.556,7.848,13.242c2.094,4.688,3.672,9.587,4.778,14.583
		c0.556,2.498,0.981,5.023,1.281,7.568c0.293,2.572,0.496,5.049,0.47,7.786l-0.006-0.26c0.486,6.079-0.353,12.267-2.33,18.004
		c-1.965,5.751-4.982,11.05-8.572,15.821c-3.595,4.778-7.762,9.058-12.266,12.891c-2.251,1.92-4.585,3.734-6.995,5.443
		c-2.434,1.715-4.844,3.304-7.548,4.81l-0.077,0.043l-0.104,0.045c-5.328,2.31-10.873,3.976-16.476,5.202
		c-5.607,1.22-11.278,2.014-16.961,2.464c-5.684,0.441-11.376,0.565-17.057,0.429c-5.697-0.152-11.313-0.511-17.049-1.275
		l-0.171-0.023l-0.154-0.049c-1.815-0.58-3.316-1.42-4.746-2.307c-1.423-0.895-2.748-1.864-4.03-2.868
		c-2.561-2.008-4.937-4.167-7.237-6.386c-2.299-2.22-4.517-4.504-6.683-6.83c-2.167-2.334-4.272-4.685-6.347-7.135l-0.057-0.067
		l-0.038-0.053c-2.82-3.99-5.251-8.229-7.322-12.627c-1.037-2.199-1.977-4.441-2.813-6.724c-0.838-2.298-1.586-4.562-2.191-7.019
		l0.195,0.464c-1.074-1.846-1.597-3.624-2.131-5.422c-0.507-1.793-0.918-3.585-1.29-5.38c-0.738-3.589-1.314-7.184-1.828-10.783
		c-0.515-3.599-0.92-7.207-1.299-10.816l-0.522-5.417l-0.23-2.714c-0.051-0.998-0.049-1.866-0.033-2.805
		c0.076-3.688,0.617-7.39,1.781-10.905c1.154-3.514,2.956-6.815,5.308-9.648c2.344-2.842,5.226-5.2,8.39-7.011
		C71.356,234.48,74.773,233.113,78.325,232.402z"/>
</g>
<g>
	<path fill="#B3E0E0" d="M58.171,242.09c0,0-47,25.333-53.667,82c0,0-15.334,45.333,29.333,64c0,0,55.055,9.409,93.361-28.462
		c0,0-16.027,2.205-25.361,0c0,0-32-22.279-34.333-35.742c0,0-17.667,8.87-17.333,2.87c0,0-6-4.667,12.333-9.667
		C62.504,317.089,46.504,259.424,58.171,242.09z"/>
	<path d="M58.171,242.09c-3.622,2.183-7.015,4.715-10.284,7.375c-3.258,2.676-6.405,5.483-9.374,8.466
		c-5.945,5.956-11.262,12.521-15.768,19.583c-4.491,7.068-8.229,14.599-11,22.466c-2.785,7.863-4.565,16.05-5.47,24.318L6.26,324.44
		l-0.066,0.221c-0.867,2.889-1.462,6.083-1.835,9.189c-0.371,3.133-0.512,6.29-0.399,9.429c0.219,6.273,1.5,12.482,3.982,18.152
		c2.478,5.673,6.226,10.731,10.879,14.817c4.644,4.106,10.126,7.259,15.933,9.646l-0.516-0.15c3.92,0.564,8.13,0.845,12.23,0.935
		c4.127,0.087,8.262-0.027,12.381-0.336c8.236-0.616,16.411-2.016,24.328-4.277c7.907-2.276,15.585-5.352,22.727-9.399
		c7.145-4.032,13.756-8.995,19.6-14.754l2.023,4.104c-2.197,0.282-4.315,0.482-6.48,0.646c-2.155,0.162-4.317,0.266-6.491,0.297
		c-2.173,0.032-4.356-0.001-6.56-0.149c-2.203-0.154-4.424-0.408-6.686-0.947l-0.441-0.105l-0.343-0.244
		c-3.487-2.498-6.814-5.067-10.113-7.741c-3.288-2.673-6.506-5.44-9.614-8.352c-3.106-2.913-6.105-5.971-8.831-9.343
		c-1.359-1.689-2.652-3.457-3.788-5.384c-1.118-1.932-2.136-4.018-2.565-6.48l2.75,1.387c-1.53,0.736-3.023,1.394-4.566,2.028
		c-1.538,0.63-3.098,1.219-4.707,1.735c-1.617,0.507-3.255,0.973-5.104,1.177c-0.937,0.072-1.914,0.159-3.179-0.248
		c-0.62-0.21-1.389-0.673-1.859-1.448c-0.465-0.766-0.535-1.569-0.5-2.184l0.663,1.456c-0.356-0.297-0.486-0.463-0.692-0.72
		c-0.184-0.239-0.346-0.501-0.484-0.785c-0.275-0.566-0.43-1.247-0.399-1.912c0.069-1.362,0.753-2.367,1.393-3.08
		c1.342-1.418,2.816-2.19,4.272-2.91c2.931-1.376,5.918-2.257,8.913-3.045l-1.035,1.819c-1.582-6.244-2.939-12.482-4.093-18.786
		c-1.138-6.301-2.091-12.637-2.75-19.008c-0.648-6.368-1.034-12.782-0.764-19.193c0.137-3.202,0.471-6.407,1.151-9.544
		C55.313,247.833,56.33,244.713,58.171,242.09z M58.171,242.09c-1.701,2.713-2.541,5.841-3.063,8.955
		c-0.507,3.131-0.671,6.306-0.702,9.475c-0.024,6.345,0.6,12.681,1.484,18.967c0.896,6.288,2.082,12.534,3.449,18.738
		c1.37,6.196,2.858,12.396,4.589,18.469l0.399,1.401l-1.434,0.418c-2.866,0.836-5.721,1.781-8.272,3.071
		c-1.251,0.639-2.476,1.41-3.201,2.249c-0.731,0.931-0.521,1.156-0.191,1.562l0.68,0.834l-0.017,0.622
		c-0.005,0.191,0.042,0.229,0.006,0.16c-0.041-0.076-0.089-0.074,0.055-0.023c0.289,0.101,0.979,0.118,1.646,0.028
		c1.381-0.176,2.883-0.613,4.349-1.111c1.473-0.505,2.943-1.092,4.398-1.722c1.448-0.629,2.915-1.312,4.297-2.012l2.27-1.149
		l0.48,2.536c0.318,1.682,1.164,3.438,2.183,5.098c1.028,1.669,2.247,3.274,3.547,4.825c2.618,3.099,5.554,5.998,8.591,8.792
		c3.048,2.788,6.226,5.455,9.478,8.035c3.248,2.569,6.596,5.088,9.957,7.435l-0.784-0.35c1.875,0.424,3.889,0.641,5.92,0.756
		c2.035,0.113,4.1,0.121,6.17,0.065c2.071-0.06,4.149-0.178,6.227-0.337c2.067-0.162,4.176-0.372,6.188-0.639l7.102-0.94
		l-5.077,5.044c-6.12,6.081-13.065,11.337-20.561,15.606c-7.498,4.265-15.518,7.588-23.798,9.904
		c-8.278,2.329-16.785,3.747-25.332,4.354c-4.274,0.303-8.561,0.404-12.847,0.297c-2.143-0.054-4.286-0.16-6.429-0.327
		c-2.161-0.174-4.247-0.375-6.49-0.742l-0.267-0.044l-0.25-0.106c-6.162-2.62-12.067-6.092-17.114-10.663
		c-5.057-4.543-9.157-10.216-11.804-16.489c-2.68-6.269-3.885-13.052-3.994-19.751c-0.054-3.354,0.163-6.702,0.621-10.011
		c0.477-3.329,1.119-6.537,2.186-9.852l-0.082,0.362c2.152-17.049,8.47-33.54,18.24-47.548c4.862-7.018,10.505-13.46,16.732-19.241
		C43.936,251.327,50.742,246.148,58.171,242.09z"/>
</g>
<g>
	<path fill="#FFFFFF" d="M112.519,96.09c0,0,82.614,1,87.652,89c0,0-2.687,40.999-20.15,57c0,0-19.493-10.997-31.912,15.168
		c0,0-4.357,7.166-8.389,11.166c0,0-9.119,3.998-13.097,3.333c0,0-7.389-5.334-11.251-16.667c0,0-20.079-30.503-34.086-24.164
		c0,0-13.448,2.535-18.471,6.497c-15.604,12.31-15.604,12.31-15.604,12.31S7.066,209.423,26.544,155.09
		C26.544,155.09,38.635,99.423,112.519,96.09z"/>
	<path d="M112.519,96.09c5.759,0.203,11.479,1.092,17.1,2.342c5.621,1.269,11.145,2.981,16.484,5.157
		c10.664,4.346,20.678,10.519,28.91,18.672c4.117,4.062,7.791,8.575,10.978,13.415c3.181,4.845,5.836,10.036,7.984,15.428
		c4.295,10.801,6.523,22.348,7.336,33.921l0.004,0.064l-0.005,0.076c-0.344,5.206-0.996,10.316-1.853,15.43
		c-0.867,5.104-1.969,10.179-3.399,15.183c-1.438,5-3.195,9.939-5.52,14.675c-2.332,4.714-5.233,9.289-9.22,13.054l-0.965,0.912
		l-1.277-0.655c-0.535-0.275-1.31-0.593-2.003-0.828c-0.718-0.246-1.452-0.451-2.193-0.616c-1.483-0.329-2.996-0.494-4.495-0.475
		c-3.001,0.036-5.931,0.826-8.534,2.292c-2.609,1.462-4.882,3.574-6.803,6.012c-1.925,2.442-3.514,5.203-4.862,8.096l-0.046,0.099
		l-0.066,0.11c-0.641,1.057-1.272,2.041-1.935,3.042c-0.66,0.995-1.339,1.98-2.042,2.954c-1.418,1.944-2.884,3.865-4.688,5.675
		l-0.314,0.316l-0.412,0.178c-1.125,0.487-2.188,0.907-3.302,1.32c-1.104,0.408-2.223,0.792-3.369,1.137
		c-1.148,0.345-2.319,0.656-3.562,0.888c-1.263,0.21-2.524,0.433-4.226,0.192l-0.554-0.078l-0.47-0.349
		c-0.487-0.362-0.796-0.627-1.167-0.947c-0.353-0.308-0.692-0.621-1.023-0.939c-0.663-0.637-1.293-1.296-1.896-1.975
		c-1.207-1.358-2.311-2.795-3.314-4.298c-2.007-3.004-3.606-6.271-4.777-9.678l0.276,0.564c-1.992-2.92-4.233-5.853-6.532-8.624
		c-2.318-2.775-4.769-5.431-7.391-7.837c-2.619-2.392-5.433-4.575-8.427-6.037c-2.984-1.47-6.145-2.029-8.672-0.846l-0.236,0.11
		l-0.309,0.062c-3.1,0.616-6.292,1.37-9.328,2.302c-1.521,0.469-3.02,0.986-4.441,1.583c-1.415,0.599-2.773,1.274-3.809,2.081
		l-15.633,12.141l-1.527,1.186l-1.277-1.354c-1.577-1.672-2.912-3.312-4.259-5.036c-1.33-1.714-2.598-3.468-3.812-5.257
		c-2.426-3.579-4.635-7.297-6.617-11.132c-3.959-7.668-7.004-15.819-8.876-24.243c-1.876-8.418-2.554-17.104-1.917-25.685
		c0.618-8.584,2.554-17.037,5.544-25.055l-0.029,0.102c1.229-4.643,3.104-8.937,5.277-13.109c2.191-4.153,4.756-8.099,7.642-11.788
		c5.771-7.375,12.792-13.754,20.699-18.725c3.946-2.495,8.098-4.654,12.385-6.483c4.279-1.85,8.694-3.375,13.188-4.604
		C93.933,97.753,103.22,96.489,112.519,96.09z M112.519,96.09c-9.296,0.447-18.573,1.759-27.541,4.258
		c-4.48,1.254-8.883,2.791-13.137,4.67c-4.249,1.891-8.351,4.104-12.238,6.646c-7.77,5.079-14.696,11.466-20.205,18.914
		c-2.758,3.717-5.188,7.674-7.238,11.811c-2.026,4.126-3.775,8.481-4.819,12.875l-0.013,0.055l-0.016,0.047
		c-2.739,7.959-4.416,16.272-4.804,24.643c-0.407,8.369,0.468,16.772,2.491,24.876c2.021,8.108,5.167,15.918,9.184,23.233
		c2.009,3.658,4.235,7.196,6.661,10.583c1.213,1.693,2.476,3.349,3.79,4.956c1.304,1.59,2.705,3.203,4.073,4.587l-2.803-0.168
		l15.446-12.377c1.562-1.239,3.191-2.038,4.794-2.754c1.61-0.705,3.227-1.288,4.849-1.815c3.259-1.042,6.479-1.889,9.849-2.561
		l-0.545,0.172c2.101-0.973,4.508-1.265,6.696-1c2.202,0.256,4.218,0.962,6.059,1.84c3.681,1.785,6.773,4.209,9.633,6.781
		c2.849,2.589,5.444,5.379,7.89,8.274c2.452,2.911,4.717,5.871,6.873,9.088l0.173,0.257l0.104,0.308
		c1.021,3.019,2.418,5.909,4.17,8.56c0.874,1.326,1.837,2.593,2.88,3.778c0.521,0.592,1.062,1.164,1.621,1.706
		c0.279,0.271,0.562,0.535,0.848,0.786c0.27,0.239,0.61,0.521,0.804,0.666l-1.023-0.427c0.556,0.101,1.585,0.019,2.553-0.162
		c0.991-0.179,2.022-0.443,3.052-0.748c1.031-0.305,2.065-0.653,3.095-1.027c1.02-0.372,2.073-0.783,3.034-1.194l-0.726,0.494
		c1.494-1.492,2.924-3.247,4.271-5.054c0.676-0.907,1.335-1.833,1.978-2.771c0.639-0.933,1.281-1.903,1.863-2.833l-0.112,0.209
		c1.512-3.117,3.305-6.147,5.548-8.908c2.236-2.75,4.96-5.24,8.2-6.992c3.222-1.77,6.948-2.693,10.612-2.624
		c1.832,0.023,3.646,0.271,5.402,0.708c0.879,0.22,1.744,0.485,2.596,0.801c0.871,0.33,1.641,0.648,2.574,1.158l-2.241,0.257
		c3.589-3.212,6.419-7.37,8.737-11.783c2.316-4.432,4.144-9.162,5.664-13.992c1.517-4.835,2.725-9.785,3.704-14.782
		c0.968-4.991,1.744-10.066,2.204-15.1l-0.001,0.14c-0.511-11.405-2.413-22.807-6.372-33.548
		c-3.944-10.717-9.995-20.746-18.095-28.898c-8.054-8.184-17.89-14.581-28.53-18.955c-5.318-2.199-10.826-3.938-16.436-5.235
		C123.988,97.242,118.275,96.323,112.519,96.09z"/>
</g>
<g>
	<path fill="#6793A1" d="M16.436,377.123c0,0-1.265,56.635,4.402,79.301c0,0,14,69.666,24.333,78.333
		c0,0,32.667,40.667,44.667-3.333v-38c0,0,23.721,0.667,37.36,42.333c0,0,20.973,42.667,44.973-8c0,0,18.668-45.332,17.334-82.998
		c0,0,1.478-77.563-7.595-106.281c0,0-14.415,11.939-16.739,12.945c0,0-19.945,9.073-37.973,8.205c0,0-35.726,30.091-65.381,28.912
		C61.817,388.54,31.368,394.486,16.436,377.123z"/>
	<path d="M16.436,377.123c-0.016,13.511,0.298,27.021,0.939,40.502c0.342,6.739,0.795,13.473,1.489,20.172
		c0.7,6.72,1.629,13.317,3.305,19.872c1.441,6.588,3.006,13.153,4.59,19.708c1.59,6.554,3.261,13.086,5.061,19.577
		c1.805,6.487,3.722,12.944,5.931,19.271c1.109,3.158,2.291,6.289,3.641,9.306c0.677,1.506,1.399,2.982,2.201,4.371
		c0.793,1.365,1.713,2.729,2.681,3.542l0.107,0.091l0.127,0.149c3.21,3.771,6.93,7.337,10.916,10.301
		c2.003,1.479,4.101,2.811,6.289,3.858c2.184,1.044,4.471,1.806,6.74,2.025c2.266,0.228,4.485-0.132,6.437-1.136
		c1.958-0.994,3.645-2.593,5.042-4.483c2.795-3.818,4.528-8.577,5.846-13.387l-0.075,0.562l-0.141-38l-0.009-2.38l2.349,0.104
		c0.513,0.023,0.798,0.062,1.173,0.11c0.352,0.048,0.695,0.105,1.034,0.17c0.677,0.129,1.337,0.287,1.988,0.467
		c1.3,0.36,2.56,0.81,3.782,1.328c2.446,1.038,4.742,2.353,6.887,3.852c4.292,3.008,7.961,6.747,11.102,10.811
		c3.139,4.074,5.745,8.491,7.979,13.049c2.229,4.564,4.08,9.28,5.656,14.067l-0.129-0.315c1.103,2.128,2.539,4.354,4.06,6.334
		c1.539,1.998,3.244,3.848,5.124,5.381c1.877,1.53,3.944,2.732,6.091,3.305c2.145,0.584,4.347,0.501,6.46-0.225
		c2.117-0.717,4.126-2.037,5.947-3.657c1.825-1.622,3.479-3.536,4.993-5.579c3.032-4.101,5.534-8.699,7.797-13.413l0.054-0.11
		c0.057-0.128-0.048,0.112-0.029,0.065l0.023-0.057l0.089-0.219l0.183-0.454l0.36-0.916l0.71-1.846l1.373-3.722
		c0.897-2.489,1.759-4.995,2.588-7.511c1.656-5.033,3.184-10.109,4.567-15.222c2.759-10.223,4.976-20.595,6.277-31.055
		c0.646-5.228,1.055-10.477,1.126-15.714c0.017-1.309,0.012-2.617-0.012-3.923l-0.023-0.979l-0.007-0.244v-0.376l0.011-0.495
		l0.033-1.993l0.08-7.989c0.054-10.658-0.058-21.32-0.375-31.969c-0.322-10.647-0.847-21.289-1.767-31.874
		c-0.451-5.292-1.009-10.571-1.769-15.804c-0.773-5.222-1.709-10.437-3.209-15.388l2.968,0.875
		c-3.921,3.183-7.843,6.328-11.878,9.399c-1.012,0.767-2.028,1.526-3.09,2.272c-0.54,0.375-1.06,0.738-1.713,1.118
		c-0.148,0.087-0.402,0.219-0.573,0.292l-0.456,0.197l-0.893,0.371c-2.375,0.968-4.771,1.833-7.192,2.63
		c-4.844,1.587-9.787,2.884-14.825,3.773c-5.035,0.881-10.179,1.362-15.35,1.087l0.988-0.334
		c-4.811,3.879-9.791,7.372-14.945,10.678c-5.146,3.298-10.486,6.302-16.004,8.949c-5.519,2.641-11.229,4.926-17.146,6.562
		c-5.907,1.627-12.061,2.614-18.232,2.308l0.157-0.013c-4.093,0.661-8.172,0.893-12.274,0.851
		c-4.093-0.059-8.189-0.441-12.201-1.272c-4.003-0.846-7.929-2.147-11.544-4.064C22.316,382.811,19.036,380.255,16.436,377.123z
		 M16.436,377.123c2.699,3.048,6.038,5.477,9.669,7.25c3.635,1.782,7.544,2.94,11.516,3.648c3.973,0.723,8.019,1.007,12.054,0.968
		c4.027-0.051,8.092-0.386,12.012-1.114l0.076-0.015l0.081,0.002c5.979,0.156,11.946-0.942,17.683-2.669
		c5.746-1.738,11.296-4.111,16.66-6.835c5.365-2.729,10.539-5.832,15.576-9.135c5.015-3.316,9.934-6.88,14.517-10.688l0.429-0.356
		l0.56,0.021c4.882,0.19,9.81-0.335,14.659-1.258c4.853-0.929,9.642-2.259,14.329-3.87c2.342-0.809,4.665-1.687,6.933-2.649
		l0.843-0.365l0.407-0.183c0.116-0.054,0.14-0.069,0.263-0.14c0.431-0.258,0.941-0.617,1.428-0.968
		c0.985-0.713,1.972-1.473,2.953-2.238c3.922-3.076,7.8-6.278,11.64-9.489l2.124-1.776l0.844,2.651
		c1.674,5.259,2.697,10.583,3.568,15.91c0.854,5.33,1.495,10.673,2.029,16.019c1.033,10.695,1.623,21.403,2.032,32.109
		c0.398,10.708,0.591,21.416,0.616,32.126l-0.021,8.037l-0.02,2.013l-0.006,0.506l-0.002,0.127c0.001,0.135-0.002-0.114-0.001-0.065
		l0.002,0.064l0.01,0.256l0.031,1.023c0.038,1.364,0.046,2.728,0.031,4.09c-0.062,5.447-0.472,10.867-1.122,16.243
		c-1.312,10.754-3.551,21.336-6.332,31.745c-1.395,5.204-2.934,10.367-4.605,15.486c-0.836,2.561-1.705,5.109-2.612,7.647
		l-1.393,3.8l-0.723,1.896l-0.371,0.949l-0.189,0.477l-0.1,0.245l-0.104,0.239l-0.056,0.115c-2.336,4.919-4.985,9.743-8.313,14.238
		c-1.672,2.239-3.526,4.396-5.7,6.319c-2.168,1.914-4.692,3.622-7.65,4.623c-2.938,1.021-6.308,1.143-9.318,0.295
		c-3.026-0.823-5.653-2.418-7.905-4.257c-2.256-1.853-4.182-3.971-5.896-6.205c-1.717-2.267-3.199-4.542-4.549-7.16l-0.069-0.134
		l-0.06-0.182c-3.013-9.206-7.045-18.135-12.81-25.724c-2.875-3.779-6.2-7.199-10-9.902c-1.898-1.349-3.912-2.517-6.016-3.428
		c-1.051-0.455-2.124-0.846-3.205-1.154c-0.541-0.153-1.083-0.287-1.62-0.393c-0.269-0.054-0.535-0.1-0.796-0.138
		c-0.236-0.036-0.567-0.068-0.672-0.074l2.34-2.275l-0.141,38l-0.001,0.299l-0.074,0.263c-1.437,5.095-3.309,10.227-6.695,14.73
		c-1.695,2.223-3.857,4.27-6.537,5.584c-2.667,1.333-5.762,1.762-8.618,1.421c-2.875-0.325-5.538-1.287-7.985-2.497
		c-2.451-1.219-4.707-2.704-6.831-4.318c-4.244-3.268-7.977-6.941-11.397-11.075l0.235,0.24c-1.591-1.417-2.499-2.966-3.394-4.509
		c-0.864-1.55-1.603-3.123-2.289-4.708c-1.364-3.17-2.521-6.384-3.604-9.613c-2.152-6.463-3.987-12.993-5.71-19.546
		c-3.422-13.111-6.381-26.314-8.969-39.599l-0.241-1.247c-0.058-0.324-0.185-0.812-0.268-1.209c-0.184-0.839-0.35-1.679-0.504-2.519
		c-0.307-1.681-0.565-3.364-0.793-5.05c-0.453-3.371-0.788-6.747-1.06-10.125c-0.539-6.755-0.833-13.517-1.018-20.276
		C15.854,404.149,15.989,390.628,16.436,377.123z"/>
</g>
</svg>
